<svg width="443" height="404" viewBox="0 0 443 404" fill="none" xmlns="http://www.w3.org/2000/svg">
<path d="M36.4151 228.642L34.8379 227.673C33.4763 226.625 32.3419 225.33 31.4987 223.863C28.4107 218.294 29.4819 210.127 34.7751 203.53C40.0683 196.933 49.2086 193.303 55.8888 195.663C57.0333 196.028 58.1014 196.584 59.0433 197.307C59.5348 197.678 59.9977 198.082 60.4285 198.517C65.7845 203.902 65.3449 213.705 59.1689 221.451C52.9929 229.197 43.16 232.153 36.4151 228.642Z" fill="#35E166"/>
<path d="M42.6332 231.636C40.2608 231.647 37.9223 231.081 35.8251 229.988L34.1548 228.952C32.6509 227.795 31.4076 226.342 30.504 224.686L29.0187 221.881L32.051 222.978C38.1156 225.234 46.2839 222.063 51.3583 215.474C56.4326 208.885 57.3612 201.636 54.4522 196.27L52.9053 193.412L56.001 194.57C57.2222 195.007 58.3692 195.624 59.4033 196.399L60.9503 197.739C66.6449 203.653 66.1498 214.261 59.7751 222.49C55.1958 228.343 48.6361 231.636 42.6332 231.636ZM34.5882 226.026C34.9077 226.382 35.2598 226.709 35.6401 227.001L37.0021 227.855C43.2516 231.209 52.1635 228.212 57.7946 220.966C63.4258 213.72 64.046 204.446 59.1566 199.447C58.7727 199.051 58.3586 198.684 57.9179 198.35C59.4649 204.14 57.7946 211.213 53.3387 216.943C48.8827 222.672 41.0862 226.758 34.5882 226.026Z" fill="black"/>
<path d="M36.642 225.52C34.8949 225.519 33.1603 225.232 31.5097 224.673L31.0765 224.496L30.8953 224.073C27.4937 217.967 28.7931 209.264 34.1718 202.433C39.5506 195.603 49.0758 191.614 56.3121 194.212L56.7434 194.333L56.9246 194.756C60.3262 200.862 59.0269 209.565 53.6463 216.395C49.1338 222.197 42.6405 225.52 36.642 225.52ZM32.809 222.558C38.8692 224.432 46.7217 221.288 51.6691 214.941C56.3701 209.018 57.606 201.583 55.0091 196.324C48.8873 194.389 41.1563 197.473 36.0856 203.941C31.0149 210.408 30.2121 217.24 32.809 222.56V222.558Z" fill="black"/>
<path d="M60.5894 211.759C60.2429 211.738 59.9177 211.595 59.6777 211.36L56.0915 207.543C55.9776 207.437 55.8883 207.311 55.8293 207.172C55.7394 206.962 55.7222 206.731 55.7802 206.511C55.8381 206.292 55.9683 206.095 56.1522 205.948C56.3977 205.742 56.7185 205.634 57.0476 205.644C57.3767 205.655 57.6887 205.784 57.9185 206.005L61.5101 209.822C61.6246 209.927 61.7145 210.054 61.7742 210.193C61.8633 210.403 61.8798 210.634 61.8216 210.854C61.7634 211.073 61.6332 211.27 61.4494 211.417C61.2235 211.629 60.9169 211.75 60.5966 211.751L60.5894 211.759Z" fill="black"/>
<path d="M56.7757 217.873C56.4449 217.869 56.1294 217.751 55.8978 217.546L53.0768 215.153C52.9555 215.055 52.8586 214.938 52.7924 214.806C52.7261 214.675 52.6919 214.533 52.6919 214.39C52.6919 214.247 52.7261 214.105 52.7924 213.973C52.8586 213.842 52.9555 213.724 53.0768 213.627C53.3032 213.421 53.6137 213.299 53.9419 213.289C54.2701 213.279 54.5898 213.381 54.8326 213.573L57.6518 216.022C57.7731 216.119 57.87 216.237 57.9365 216.368C58.0031 216.5 58.0375 216.642 58.0375 216.785C58.0375 216.928 58.0031 217.07 57.9365 217.201C57.87 217.333 57.7731 217.45 57.6518 217.548C57.5418 217.654 57.4065 217.739 57.2552 217.795C57.1039 217.852 56.9403 217.879 56.7757 217.875V217.873Z" fill="black"/>
<path d="M49.0551 226.284C48.6832 226.285 48.3246 226.166 48.0521 225.951L44.6435 222.878C44.4062 222.658 44.2801 222.367 44.2926 222.069C44.3051 221.77 44.455 221.488 44.7101 221.283C44.8287 221.172 44.9736 221.084 45.1352 221.024C45.3778 220.934 45.6475 220.91 45.9067 220.956C46.1659 221.003 46.4015 221.117 46.5809 221.283L49.9894 224.357C50.1844 224.51 50.3187 224.711 50.3734 224.931C50.4282 225.152 50.4008 225.382 50.295 225.589C50.2244 225.726 50.1202 225.85 49.9894 225.951C49.7416 226.162 49.4059 226.282 49.0551 226.284Z" fill="black"/>
<path d="M37.3413 221.696C36.9117 221.708 36.4848 221.622 36.0907 221.443C35.6967 221.264 35.3452 220.997 35.0611 220.66C33.5997 218.831 34.4186 215.112 37.6926 209.018C40.9665 202.923 44.0641 199.57 47.2216 198.9C47.8151 198.747 48.4323 198.722 49.0354 198.827C49.6385 198.932 50.2147 199.164 50.7285 199.509C50.9689 199.714 51.1228 200.009 51.1573 200.33C51.1917 200.652 51.1041 200.975 50.913 201.23C50.7219 201.485 50.4427 201.652 50.135 201.695C49.8274 201.738 49.5159 201.653 49.2671 201.46C49.0122 201.308 48.7298 201.213 48.4379 201.181C48.1458 201.149 47.8505 201.181 47.5711 201.276C46.2279 201.633 43.4216 203.227 39.7381 210.175C36.0547 217.124 36.8154 219.013 36.8736 219.074C37.1716 219.196 37.4989 219.218 37.809 219.135C38.0329 219.066 38.2713 219.068 38.494 219.141C38.7168 219.213 38.914 219.353 39.0607 219.542C39.2073 219.731 39.2969 219.962 39.3181 220.204C39.3393 220.446 39.2911 220.69 39.1796 220.903C39.0401 221.186 38.8041 221.403 38.5183 221.512C38.1336 221.618 37.7389 221.68 37.3413 221.696Z" fill="black"/>
<path d="M77.7953 98.6172H77.711C71.4035 97.8843 66.5546 95.2545 63.3756 90.7266C56.1665 80.5929 59.6032 64.7675 59.7289 64.1205C59.7539 64.01 59.8005 63.9056 59.866 63.8134C59.9312 63.7209 60.014 63.6424 60.1096 63.5823C60.2052 63.5222 60.3118 63.4818 60.4231 63.4634C60.5341 63.4446 60.6478 63.448 60.7575 63.4735C60.8707 63.4927 60.9785 63.5358 61.0739 63.6C61.1692 63.6641 61.25 63.7478 61.3108 63.8456C61.3716 63.9434 61.4111 64.053 61.4268 64.1673C61.4424 64.2815 61.4337 64.3978 61.4014 64.5084C61.3586 64.6348 58.0062 80.2479 64.7488 89.7346C67.6662 93.8316 72.0863 96.2465 77.8796 96.8923C77.9923 96.9034 78.1017 96.9369 78.2015 96.9909C78.3018 97.044 78.3903 97.1171 78.4618 97.2057C78.5333 97.2932 78.587 97.3941 78.6196 97.5025C78.6522 97.611 78.6631 97.7248 78.6516 97.8375C78.6301 98.051 78.5301 98.2488 78.3713 98.3922C78.2126 98.5357 78.0063 98.6146 77.7928 98.6135L77.7953 98.6172Z" fill="white"/>
<path d="M63.1178 114.668C60.4809 114.727 57.9036 113.851 55.8115 112.184C49.5536 107.13 49.6386 96.104 49.6386 95.6685C49.6322 95.5523 49.6498 95.4361 49.6902 95.3275C49.7296 95.2185 49.7914 95.1195 49.8711 95.0376C49.9503 94.9557 50.045 94.8917 50.1493 94.8499C50.2539 94.8079 50.3659 94.7896 50.4778 94.7962C50.7008 94.7962 50.9146 94.8881 51.0722 95.0517C51.2298 95.2153 51.3184 95.4372 51.3184 95.6685C51.3184 95.7962 51.2335 106.301 56.8563 110.833C59.544 113.012 63.1965 113.492 67.6859 112.228C67.7908 112.196 67.9009 112.186 68.0096 112.198C68.1181 112.212 68.2227 112.249 68.3172 112.306C68.4116 112.363 68.4937 112.44 68.5584 112.532C68.6232 112.623 68.6692 112.728 68.6938 112.838C68.742 113.006 68.74 113.186 68.6882 113.352C68.6364 113.519 68.5371 113.666 68.4034 113.773C68.315 113.845 68.2137 113.897 68.1056 113.928C66.4799 114.393 64.8039 114.642 63.1178 114.668Z" fill="white"/>
<path d="M124.475 268.33C124.274 268.331 124.075 268.319 123.89 268.297C123.704 268.275 123.536 268.242 123.394 268.201C123.252 268.16 123.139 268.111 123.063 268.057C122.986 268.003 122.947 267.945 122.948 267.887V206.086C122.948 205.969 123.109 205.856 123.395 205.773C123.682 205.69 124.07 205.644 124.475 205.644C124.88 205.644 125.269 205.69 125.555 205.773C125.841 205.856 126.002 205.969 126.002 206.086V267.887C126.003 267.945 125.964 268.003 125.887 268.057C125.811 268.111 125.698 268.16 125.556 268.201C125.415 268.242 125.246 268.275 125.06 268.297C124.875 268.319 124.676 268.331 124.475 268.33Z" fill="white"/>
<path d="M113.403 212.524C113.099 212.524 112.808 212.499 112.593 212.454C112.378 212.409 112.257 212.348 112.257 212.284V188.31C112.252 188.277 112.277 188.245 112.332 188.215C112.387 188.185 112.47 188.157 112.577 188.134C112.684 188.111 112.812 188.092 112.954 188.08C113.095 188.067 113.248 188.061 113.402 188.061C113.556 188.061 113.709 188.067 113.851 188.08C113.992 188.092 114.121 188.111 114.227 188.134C114.334 188.157 114.418 188.185 114.473 188.215C114.527 188.245 114.553 188.277 114.547 188.31V212.284C114.547 212.348 114.426 212.409 114.212 212.454C113.997 212.498 113.706 212.524 113.403 212.524Z" fill="white"/>
<path d="M321.66 291.265C321.535 291.266 321.41 291.247 321.295 291.209C321.18 291.173 321.075 291.12 320.989 291.053C320.902 290.985 320.835 290.905 320.791 290.818C320.748 290.731 320.729 290.638 320.734 290.545L321.938 191.014C321.947 190.837 322.048 190.669 322.221 190.546C322.393 190.423 322.624 190.354 322.863 190.354C323.102 190.354 323.332 190.423 323.505 190.546C323.677 190.669 323.779 190.837 323.788 191.014L322.584 290.579C322.585 290.669 322.561 290.759 322.514 290.842C322.468 290.925 322.4 291.001 322.314 291.064C322.228 291.128 322.126 291.178 322.014 291.213C321.902 291.247 321.781 291.265 321.66 291.265Z" fill="white"/>
<path d="M308.132 271.388C307.829 271.388 307.538 271.338 307.324 271.248C307.11 271.158 306.989 271.036 306.988 270.909V233.663C306.983 233.599 307.008 233.534 307.063 233.474C307.117 233.414 307.201 233.358 307.308 233.312C307.415 233.265 307.543 233.228 307.685 233.203C307.826 233.178 307.979 233.165 308.133 233.165C308.287 233.165 308.44 233.178 308.582 233.203C308.723 233.228 308.852 233.265 308.958 233.312C309.065 233.358 309.149 233.414 309.203 233.474C309.258 233.534 309.284 233.599 309.278 233.663V270.906C309.277 271.033 309.156 271.155 308.942 271.245C308.727 271.335 308.436 271.386 308.132 271.386V271.388Z" fill="white"/>
<path d="M308.132 222.462C307.828 222.462 307.537 222.395 307.323 222.277C307.108 222.159 306.988 221.999 306.988 221.832V208.543C306.999 208.38 307.125 208.226 307.338 208.113C307.552 208 307.837 207.937 308.133 207.937C308.429 207.937 308.714 208 308.928 208.113C309.142 208.226 309.267 208.38 309.279 208.543V221.832C309.279 221.999 309.158 222.159 308.943 222.277C308.728 222.396 308.436 222.462 308.132 222.462Z" fill="white"/>
<path d="M392.557 136.84C392.454 136.845 392.35 136.83 392.253 136.795C392.156 136.759 392.067 136.705 391.991 136.636C391.917 136.566 391.857 136.482 391.816 136.388C391.775 136.295 391.754 136.195 391.754 136.093C391.749 135.99 391.764 135.887 391.8 135.789C391.835 135.692 391.89 135.602 391.961 135.525C392.031 135.448 392.117 135.386 392.213 135.342C392.308 135.298 392.412 135.273 392.517 135.267C401.992 134.875 414.599 117.5 414.72 117.303C414.842 117.131 415.029 117.014 415.24 116.977C415.451 116.94 415.668 116.987 415.844 117.107C416.02 117.227 416.139 117.41 416.177 117.616C416.215 117.823 416.167 118.035 416.045 118.207C415.482 118.954 402.835 136.409 392.597 136.84H392.557Z" fill="white"/>
<path d="M392.296 147.543C390.767 147.551 389.244 147.373 387.764 147.014C387.662 146.991 387.566 146.95 387.482 146.892C387.397 146.832 387.326 146.757 387.274 146.67C387.222 146.585 387.189 146.491 387.177 146.393C387.164 146.295 387.173 146.196 387.204 146.101C387.26 145.911 387.389 145.747 387.567 145.642C387.745 145.537 387.958 145.498 388.165 145.534C396.225 147.462 403.604 143.189 406.411 141.26C409.219 139.332 410.742 137.404 410.782 136.949C410.749 136.757 410.796 136.561 410.914 136.401C411.031 136.242 411.209 136.131 411.41 136.092C411.612 136.053 411.822 136.089 411.996 136.192C412.171 136.295 412.296 136.458 412.346 136.647C412.581 137.744 411.143 139.332 409.859 140.467C406.651 143.383 399.834 147.543 392.296 147.543Z" fill="white"/>
<path d="M401.609 227.724C401.609 227.343 401.548 226.964 401.43 226.603C401.439 226.515 401.418 226.427 401.369 226.355C401.369 226.231 401.306 226.105 401.306 225.99C401.257 225.847 401.216 225.702 401.183 225.554L401.061 225.244L400.693 224.248C400.575 224.103 400.492 223.933 400.448 223.751H400.391C400.267 223.625 400.083 223.689 400.022 223.875C399.961 224.061 400.083 223.51 400.144 223.253C397.139 218.087 390.077 214.852 382.232 215.723C374.387 216.595 367.204 222.007 366.039 228.355C366.165 228.646 366.33 228.918 366.53 229.163C366.467 229.101 366.406 229.039 366.406 228.981C366.406 228.922 365.915 228.857 365.915 229.105C365.865 229.287 365.844 229.476 365.854 229.664V229.79C365.8 230.014 365.78 230.244 365.793 230.474C365.793 230.839 365.854 231.22 365.854 231.656C365.927 232.221 366.03 232.783 366.161 233.337C368.002 240.181 376.099 244.724 385.238 243.732C394.377 242.74 401.372 236.514 401.678 229.42C401.688 228.86 401.668 228.299 401.617 227.741L401.609 227.724Z" fill="#35E166"/>
<path d="M376.529 242.338C376.187 242.342 375.854 242.248 375.592 242.073C375.33 241.898 375.156 241.654 375.103 241.386L373.451 236.153C373.38 235.846 373.457 235.53 373.665 235.265C373.874 235.001 374.199 234.808 374.577 234.724C374.769 234.689 374.969 234.684 375.163 234.71C375.358 234.736 375.544 234.793 375.711 234.876C376.045 235.044 376.282 235.311 376.371 235.617L377.946 240.85C378.003 240.999 378.021 241.155 377.997 241.309C377.974 241.463 377.912 241.612 377.813 241.746C377.715 241.88 377.583 241.997 377.425 242.089C377.266 242.179 377.087 242.244 376.896 242.279L376.529 242.338Z" fill="black"/>
<path d="M386.077 241.574C385.817 241.568 385.567 241.471 385.364 241.297C385.161 241.123 385.017 240.882 384.955 240.611L384.226 237.182C384.154 237.02 384.116 236.842 384.116 236.662C384.116 236.482 384.154 236.305 384.226 236.142C384.299 235.98 384.404 235.837 384.534 235.723C384.665 235.61 384.817 235.53 384.981 235.488C385.143 235.448 385.312 235.448 385.474 235.488C385.638 235.526 385.792 235.604 385.925 235.715C386.058 235.825 386.165 235.967 386.24 236.128C386.315 236.289 386.355 236.466 386.357 236.646L387.142 240.075C387.175 240.23 387.18 240.39 387.155 240.546C387.132 240.702 387.08 240.851 387.001 240.985C386.922 241.119 386.82 241.235 386.7 241.327C386.58 241.419 386.445 241.484 386.301 241.519L386.077 241.574Z" fill="black"/>
<path d="M397.399 239.28C397.168 239.289 396.941 239.226 396.744 239.098C396.547 238.97 396.39 238.784 396.293 238.561L394.144 233.464C394.017 233.152 394.011 232.799 394.125 232.482C394.24 232.164 394.467 231.907 394.758 231.765C394.906 231.688 395.068 231.645 395.233 231.637C395.398 231.629 395.562 231.657 395.717 231.717C395.872 231.778 396.013 231.871 396.133 231.991C396.253 232.112 396.349 232.257 396.416 232.418L398.504 237.451C398.576 237.609 398.617 237.781 398.625 237.956C398.632 238.132 398.606 238.307 398.549 238.471C398.492 238.636 398.405 238.787 398.291 238.914C398.178 239.042 398.041 239.144 397.89 239.214L397.399 239.28Z" fill="black"/>
<path d="M372.396 227.047C372.089 227.064 371.788 226.963 371.554 226.764C371.32 226.566 371.172 226.286 371.139 225.982C371.104 225.117 371.248 224.254 371.561 223.447C371.875 222.639 372.352 221.905 372.962 221.288C375.289 218.784 379.564 217.658 385.663 217.91C391.762 218.161 395.661 219.474 396.792 221.913C397.073 222.594 397.163 223.338 397.052 224.066C396.942 224.794 396.635 225.478 396.164 226.046C396.064 226.177 395.939 226.287 395.796 226.37C395.653 226.454 395.495 226.51 395.331 226.534C395.168 226.556 395.001 226.546 394.841 226.506C394.643 226.451 394.462 226.348 394.315 226.207C394.167 226.065 394.057 225.889 393.994 225.694C393.932 225.499 393.919 225.292 393.957 225.092C393.994 224.891 394.082 224.702 394.211 224.544C394.379 224.311 394.489 224.042 394.533 223.759C394.576 223.476 394.552 223.187 394.463 222.915C394.148 222.289 392.639 220.725 385.534 220.411C378.429 220.098 376.039 221.664 374.782 223.041C374.422 223.378 374.135 223.785 373.94 224.238C373.745 224.69 373.647 225.178 373.651 225.67C373.668 225.833 373.652 225.999 373.604 226.156C373.556 226.313 373.478 226.46 373.373 226.587C373.268 226.715 373.138 226.821 372.991 226.899C372.845 226.977 372.685 227.026 372.52 227.042L372.396 227.047Z" fill="black"/>
<path d="M380.56 236.985C377.684 237.03 374.841 236.378 372.288 235.087C369.736 233.797 367.552 231.908 365.936 229.592C365.788 229.308 365.75 228.982 365.829 228.673C365.909 228.364 366.1 228.094 366.368 227.911C366.664 227.758 367.009 227.723 367.332 227.812C367.654 227.902 367.928 228.11 368.097 228.392C368.277 228.744 373.588 237.34 386.54 233.737C399.492 230.134 398.449 224.607 398.449 224.547C398.419 224.252 398.502 223.955 398.683 223.716C398.865 223.476 399.13 223.311 399.43 223.251C399.729 223.191 400.04 223.242 400.304 223.392C400.567 223.543 400.764 223.783 400.856 224.067C400.917 224.419 402.336 231.812 387.22 236.02C385.06 236.661 382.815 236.985 380.557 236.981L380.56 236.985Z" fill="black"/>
<path d="M218.024 332.139C163.716 332.139 112.602 327.944 74.1892 320.354C46.6361 314.929 13.7457 305.421 13.7457 290.859C13.7457 276.296 46.6361 266.732 74.1892 261.301C112.602 253.706 163.718 249.576 218.024 249.576C272.33 249.576 323.383 253.712 361.796 261.301C389.408 266.726 422.299 276.296 422.299 290.859C422.299 305.421 389.408 314.924 361.796 320.354C323.383 327.935 272.33 332.139 218.024 332.139ZM218.024 252.044C163.84 252.044 112.971 256.18 74.6802 263.708C37.4937 271.05 16.2004 280.924 16.2004 290.859C16.2004 300.794 37.4937 310.604 74.6802 317.947C112.971 325.476 163.84 329.671 218.024 329.671C272.208 329.671 323.076 325.476 361.366 317.947C398.492 310.604 419.846 300.732 419.846 290.859C419.846 280.985 398.492 271.05 361.366 263.708C323.076 256.18 272.145 252.044 218.024 252.044Z" fill="white"/>
<path d="M221.81 339.784C163.012 339.784 107.717 334.697 66.0814 325.442C24.4456 316.187 0.763641 303.44 0.763641 289.712C0.763641 275.984 23.9499 263.357 66.0814 253.98C108.213 244.602 163.012 239.638 221.81 239.638C280.608 239.638 335.903 244.725 377.539 253.98C419.174 263.235 442.917 276.043 442.917 289.712C442.917 303.38 419.666 316.127 377.54 325.442C335.414 334.757 280.606 339.784 221.81 339.784ZM221.81 242.09C163.195 242.09 108.088 247.176 66.6347 256.371C26.2877 265.319 3.22396 277.514 3.22396 289.712C3.22396 301.909 26.2949 314.105 66.6347 323.053C108.09 332.307 163.195 337.332 221.81 337.332C280.424 337.332 335.53 332.303 376.983 323.053C417.323 314.105 440.455 301.961 440.455 289.712C440.455 277.462 417.323 265.321 376.983 256.371C335.53 247.18 280.423 242.09 221.81 242.09Z" fill="white"/>
<path d="M212.043 352.78C165.061 352.78 121.932 348.988 83.603 341.407C41.1586 333.03 19.9068 323.063 14.4399 320.189C-5.52308 309.855 0.987839 289.615 1.11025 289.432C1.15109 289.275 1.22536 289.128 1.32805 289.002C1.42929 288.875 1.55626 288.771 1.70068 288.696C1.84537 288.621 2.00417 288.577 2.16692 288.567C2.32967 288.556 2.49276 288.58 2.64573 288.636C2.95015 288.76 3.19908 288.99 3.34612 289.282C3.49315 289.575 3.52826 289.911 3.44496 290.228C3.13714 290.961 -2.51335 308.685 15.5452 318.049C41.2864 331.377 116.53 353.146 235.568 350.028C345.887 347.161 414.744 333.03 434.584 309.244C439.376 303.434 441.281 296.953 440.174 289.982C440.121 289.666 440.194 289.342 440.377 289.08C440.561 288.817 440.841 288.636 441.157 288.576C441.481 288.539 441.806 288.626 442.069 288.818C442.331 289.011 442.51 289.296 442.57 289.615C443.799 297.259 441.772 304.413 436.428 310.772C425.987 323.307 402.705 333.273 367.202 340.305C333.664 346.971 289.438 351.067 235.63 352.474C227.704 352.657 219.783 352.78 212.043 352.78Z" fill="white"/>
<path d="M14.8921 355.074C14.5886 355.074 14.2974 354.943 14.0826 354.709C13.8679 354.476 13.747 354.16 13.7466 353.829V318.908C13.7407 318.74 13.7659 318.573 13.8208 318.417C13.8756 318.26 13.959 318.117 14.0659 317.996C14.1728 317.876 14.301 317.779 14.4428 317.714C14.5846 317.648 14.7371 317.614 14.8912 317.614C15.0453 317.614 15.1979 317.648 15.3397 317.714C15.4815 317.779 15.6097 317.876 15.7165 317.996C15.8234 318.117 15.9068 318.26 15.9616 318.417C16.0165 318.573 16.0417 318.74 16.0358 318.908V353.826C16.0354 354.156 15.9148 354.472 15.7004 354.705C15.486 354.938 15.1953 355.069 14.8921 355.07V355.074Z" fill="white"/>
<path d="M25.5011 356C25.1032 356 24.7218 355.823 24.4404 355.509C24.1591 355.194 24.0011 354.768 24.0011 354.323V323.741C23.9934 323.516 24.0264 323.291 24.0983 323.08C24.1701 322.869 24.2793 322.677 24.4192 322.514C24.5592 322.352 24.727 322.222 24.9127 322.134C25.0984 322.046 25.2982 322 25.5 322C25.7018 322 25.9016 322.046 26.0873 322.134C26.273 322.222 26.4408 322.352 26.5808 322.514C26.7207 322.677 26.8299 322.869 26.9017 323.08C26.9736 323.291 27.0066 323.516 26.9989 323.741V354.323C26.9989 354.767 26.8412 355.193 26.5604 355.508C26.2795 355.822 25.8985 355.999 25.5011 356Z" fill="white"/>
<path d="M23.0183 365.012H15.9278C14.2847 364.863 12.7602 364.155 11.651 363.024C10.5419 361.894 9.92746 360.422 9.92746 358.896C9.92746 357.37 10.5419 355.898 11.651 354.768C12.7602 353.637 14.2847 352.929 15.9278 352.78H23.0183C24.6615 352.929 26.186 353.637 27.2952 354.768C28.4043 355.898 29.0187 357.37 29.0187 358.896C29.0187 360.422 28.4043 361.894 27.2952 363.024C26.186 364.155 24.6615 364.863 23.0183 365.012ZM15.9278 355.121C14.9352 355.239 14.023 355.687 13.3619 356.381C12.7009 357.076 12.3362 357.969 12.3362 358.894C12.3362 359.819 12.7009 360.713 13.3619 361.407C14.023 362.102 14.9352 362.55 15.9278 362.667H23.0183C24.0109 362.55 24.9231 362.102 25.5842 361.407C26.2453 360.713 26.61 359.819 26.61 358.894C26.61 357.969 26.2453 357.076 25.5842 356.381C24.9231 355.687 24.0109 355.239 23.0183 355.121H15.9278Z" fill="white"/>
<path d="M422.299 348.191C422.096 348.191 421.902 348.06 421.759 347.827C421.616 347.593 421.535 347.277 421.535 346.947V320.39C421.535 320.059 421.616 319.743 421.759 319.509C421.902 319.276 422.096 319.145 422.299 319.145C422.401 319.137 422.502 319.163 422.597 319.221C422.692 319.281 422.778 319.372 422.85 319.489C422.922 319.607 422.978 319.748 423.014 319.903C423.051 320.058 423.067 320.224 423.061 320.39V346.947C423.067 347.112 423.051 347.278 423.014 347.433C422.979 347.589 422.923 347.73 422.85 347.847C422.778 347.964 422.692 348.055 422.597 348.115C422.502 348.175 422.401 348.201 422.299 348.191Z" fill="white"/>
<path d="M431.5 347.998C431.3 348.009 431.1 347.975 430.914 347.897C430.727 347.82 430.557 347.7 430.415 347.547C430.274 347.394 430.164 347.21 430.092 347.007C430.021 346.805 429.991 346.588 430.003 346.371V314.627C430.003 314.195 430.16 313.782 430.441 313.476C430.722 313.171 431.103 313 431.5 313C431.897 313 432.278 313.171 432.559 313.476C432.84 313.782 432.997 314.195 432.997 314.627V346.371C433.009 346.588 432.979 346.805 432.908 347.007C432.836 347.21 432.726 347.394 432.585 347.547C432.443 347.7 432.273 347.82 432.086 347.897C431.9 347.975 431.7 348.009 431.5 347.998Z" fill="white"/>
<path d="M430.2 359.628H423.294C422.395 359.721 421.487 359.614 420.63 359.312C419.772 359.01 418.983 358.521 418.314 357.876C417.645 357.232 417.111 356.445 416.745 355.567C416.379 354.69 416.19 353.74 416.19 352.78C416.19 351.82 416.379 350.871 416.745 349.993C417.111 349.115 417.645 348.329 418.314 347.684C418.983 347.039 419.772 346.55 420.63 346.248C421.487 345.947 422.395 345.839 423.294 345.933H430.2C431.801 346.099 433.286 346.892 434.366 348.158C435.446 349.424 436.045 351.071 436.045 352.78C436.045 354.489 435.446 356.137 434.366 357.403C433.286 358.668 431.801 359.462 430.2 359.628ZM423.294 348.554C422.729 348.477 422.156 348.529 421.611 348.706C421.067 348.883 420.564 349.181 420.137 349.581C419.709 349.981 419.367 350.472 419.132 351.024C418.898 351.575 418.777 352.173 418.777 352.778C418.777 353.383 418.898 353.981 419.132 354.533C419.367 355.084 419.709 355.576 420.137 355.976C420.564 356.375 421.067 356.674 421.611 356.851C422.156 357.028 422.729 357.08 423.294 357.003H430.2C431.167 356.871 432.055 356.37 432.699 355.592C433.343 354.814 433.698 353.814 433.698 352.778C433.698 351.742 433.343 350.742 432.699 349.965C432.055 349.187 431.167 348.685 430.2 348.554H423.294Z" fill="white"/>
<path d="M117.603 387.939C117.198 387.939 116.809 387.809 116.523 387.579C116.236 387.348 116.075 387.036 116.075 386.71V346.317C116.09 346 116.258 345.699 116.542 345.479C116.827 345.258 117.207 345.135 117.602 345.135C117.997 345.135 118.377 345.258 118.662 345.479C118.947 345.699 119.114 346 119.13 346.317V386.717C119.13 387.043 118.969 387.355 118.683 387.585C118.396 387.816 118.008 387.945 117.603 387.946V387.939Z" fill="white"/>
<path d="M127.911 387.939C127.607 387.938 127.316 387.807 127.102 387.573C126.887 387.34 126.767 387.024 126.767 386.694V347.957C126.761 347.789 126.786 347.622 126.841 347.466C126.896 347.309 126.979 347.167 127.086 347.046C127.193 346.925 127.321 346.829 127.463 346.764C127.605 346.698 127.757 346.664 127.912 346.664C128.066 346.664 128.218 346.698 128.36 346.764C128.502 346.829 128.63 346.925 128.737 347.046C128.844 347.167 128.927 347.309 128.982 347.466C129.037 347.622 129.062 347.789 129.056 347.957V386.701C129.056 387.031 128.935 387.348 128.721 387.581C128.506 387.815 128.215 387.946 127.911 387.946V387.939Z" fill="white"/>
<path d="M127.297 397.884H118.593C116.912 397.884 115.301 397.2 114.112 395.981C112.924 394.762 112.257 393.109 112.257 391.386C112.257 389.663 112.924 388.01 114.112 386.791C115.301 385.573 116.912 384.888 118.593 384.888H127.303C128.983 384.888 130.595 385.573 131.783 386.791C132.971 388.01 133.639 389.663 133.639 391.386C133.639 393.109 132.971 394.762 131.783 395.981C130.595 397.2 128.983 397.884 127.303 397.884H127.297ZM118.593 387.385C118.074 387.373 117.558 387.468 117.076 387.664C116.593 387.86 116.153 388.152 115.783 388.525C115.412 388.897 115.117 389.341 114.916 389.832C114.715 390.322 114.611 390.849 114.611 391.381C114.611 391.914 114.715 392.44 114.916 392.931C115.117 393.422 115.412 393.866 115.783 394.238C116.153 394.611 116.593 394.903 117.076 395.099C117.558 395.295 118.074 395.39 118.593 395.378H127.303C127.822 395.39 128.337 395.295 128.82 395.099C129.302 394.903 129.742 394.611 130.113 394.238C130.484 393.866 130.778 393.422 130.979 392.931C131.181 392.44 131.284 391.914 131.284 391.381C131.284 390.849 131.181 390.322 130.979 389.832C130.778 389.341 130.484 388.897 130.113 388.525C129.742 388.152 129.302 387.86 128.82 387.664C128.337 387.468 127.822 387.373 127.303 387.385H118.593Z" fill="white"/>
<path d="M241.695 392.533C241.391 392.532 241.1 392.403 240.886 392.173C240.671 391.943 240.55 391.632 240.55 391.306V351.668C240.561 351.35 240.687 351.05 240.9 350.83C241.114 350.61 241.399 350.487 241.695 350.487C241.992 350.487 242.277 350.61 242.49 350.83C242.704 351.05 242.83 351.35 242.841 351.668V391.306C242.84 391.632 242.72 391.944 242.505 392.174C242.29 392.404 241.998 392.533 241.695 392.533Z" fill="white"/>
<path d="M252.005 393.292C251.803 393.292 251.608 393.162 251.465 392.932C251.322 392.702 251.241 392.389 251.241 392.063V351.668C251.249 351.351 251.332 351.05 251.475 350.83C251.617 350.61 251.807 350.487 252.005 350.487C252.202 350.487 252.392 350.61 252.535 350.83C252.677 351.05 252.761 351.351 252.768 351.668V392.068C252.768 392.394 252.688 392.706 252.545 392.937C252.402 393.167 252.208 393.297 252.005 393.297V393.292Z" fill="white"/>
<path d="M251.551 404H242.531C240.79 404 239.121 403.315 237.89 402.097C236.659 400.878 235.968 399.225 235.968 397.502C235.968 395.779 236.659 394.126 237.89 392.907C239.121 391.689 240.79 391.004 242.531 391.004H251.551C253.292 391.004 254.961 391.689 256.192 392.907C257.422 394.126 258.114 395.779 258.114 397.502C258.114 399.225 257.422 400.878 256.192 402.097C254.961 403.315 253.292 404 251.551 404ZM242.531 393.506C241.46 393.506 240.433 393.927 239.676 394.677C238.919 395.427 238.493 396.443 238.493 397.504C238.493 398.564 238.919 399.581 239.676 400.331C240.433 401.08 241.46 401.501 242.531 401.501H251.551C252.622 401.501 253.649 401.08 254.406 400.331C255.163 399.581 255.589 398.564 255.589 397.504C255.589 396.443 255.163 395.427 254.406 394.677C253.649 393.927 252.622 393.506 251.551 393.506H242.531Z" fill="white"/>
<path d="M367.499 381C367.302 381 367.107 380.968 366.924 380.904C366.742 380.841 366.577 380.748 366.438 380.63C366.298 380.513 366.188 380.373 366.113 380.22C366.038 380.067 365.999 379.902 366 379.736V340.215C366.015 339.889 366.179 339.58 366.459 339.353C366.739 339.127 367.112 339 367.5 339C367.888 339 368.261 339.127 368.541 339.353C368.821 339.58 368.985 339.889 369 340.215V379.736C369 380.071 368.842 380.393 368.56 380.63C368.279 380.867 367.897 381 367.499 381Z" fill="white"/>
<path d="M378.501 381C378.104 381 377.722 380.838 377.441 380.549C377.16 380.26 377.002 379.868 377.001 379.459V337.602C376.993 337.395 377.026 337.188 377.098 336.994C377.17 336.8 377.279 336.623 377.419 336.473C377.559 336.323 377.727 336.204 377.913 336.123C378.098 336.042 378.298 336 378.5 336C378.702 336 378.902 336.042 379.087 336.123C379.273 336.204 379.441 336.323 379.581 336.473C379.721 336.623 379.83 336.8 379.902 336.994C379.974 337.188 380.007 337.395 379.999 337.602V379.459C379.999 379.662 379.961 379.862 379.885 380.049C379.732 380.426 379.441 380.726 379.074 380.883C378.893 380.961 378.698 381.001 378.501 381Z" fill="white"/>
<path d="M377.553 391.768H368.533C366.793 391.768 365.123 391.084 363.893 389.865C362.662 388.647 361.97 386.994 361.97 385.27C361.97 383.547 362.662 381.894 363.893 380.676C365.123 379.457 366.793 378.772 368.533 378.772H377.553C379.294 378.772 380.963 379.457 382.194 380.676C383.425 381.894 384.116 383.547 384.116 385.27C384.116 386.994 383.425 388.647 382.194 389.865C380.963 391.084 379.294 391.768 377.553 391.768ZM368.533 381.275C367.463 381.275 366.436 381.696 365.678 382.445C364.921 383.195 364.496 384.212 364.496 385.272C364.496 386.332 364.921 387.349 365.678 388.099C366.436 388.849 367.463 389.27 368.533 389.27H377.553C378.624 389.27 379.651 388.849 380.408 388.099C381.166 387.349 381.591 386.332 381.591 385.272C381.591 384.212 381.166 383.195 380.408 382.445C379.651 381.696 378.624 381.275 377.553 381.275H368.533Z" fill="white"/>
<path d="M422 292.387C421.774 292.381 421.554 292.309 421.362 292.179C421.169 292.048 421.011 291.863 420.904 291.643C420.83 291.484 420.786 291.31 420.775 291.131C420.763 290.952 420.783 290.772 420.834 290.602C420.884 290.43 420.964 290.272 421.07 290.136C421.177 289.999 421.306 289.888 421.452 289.809C422.853 288.996 430.039 285.071 433.024 286.636C433.174 286.709 433.309 286.815 433.422 286.947C433.535 287.079 433.622 287.235 433.679 287.405C433.735 287.576 433.76 287.757 433.752 287.939C433.745 288.119 433.705 288.296 433.634 288.458C433.564 288.621 433.464 288.766 433.342 288.885C433.22 289.002 433.079 289.092 432.926 289.148C432.773 289.205 432.611 289.227 432.45 289.214C432.289 289.2 432.132 289.152 431.989 289.071C430.711 288.395 426.08 290.154 422.548 292.184C422.387 292.31 422.196 292.379 422 292.383V292.387Z" fill="white"/>
<path d="M416.093 300.79C415.756 300.818 415.418 300.739 415.153 300.569C414.887 300.399 414.715 300.151 414.672 299.88C414.63 299.609 414.722 299.335 414.927 299.117C415.132 298.899 415.435 298.755 415.771 298.715C417.831 298.3 424.847 297.003 427.294 298.3C427.583 298.426 427.832 298.604 428.022 298.82C428.212 299.036 428.337 299.284 428.388 299.545C428.446 299.808 428.377 300.078 428.194 300.3C428.012 300.523 427.731 300.68 427.409 300.74C427.086 300.8 426.748 300.758 426.463 300.623C426.178 300.488 425.968 300.27 425.877 300.014C424.977 299.545 420.534 299.909 416.35 300.739L416.093 300.79Z" fill="white"/>
<path d="M418.225 285.506C418.024 285.502 417.828 285.453 417.649 285.361C417.469 285.269 417.313 285.138 417.189 284.976C417.041 284.761 416.959 284.504 416.954 284.241C416.948 283.977 417.02 283.717 417.159 283.495C417.252 283.349 417.372 283.222 417.512 283.123C426.376 276.829 426.7 276.963 427.347 277.161C427.624 277.2 427.881 277.335 428.073 277.544C428.265 277.753 428.382 278.022 428.404 278.308C428.426 278.594 428.352 278.879 428.195 279.116C428.037 279.353 427.805 279.528 427.536 279.611L427.277 279.745C426.306 280.209 422.424 282.851 418.994 285.308C418.756 285.434 418.493 285.502 418.225 285.506ZM425.858 278.949C425.858 279.015 425.858 279.015 425.923 279.015C425.987 279.015 425.858 279.015 425.858 278.949Z" fill="white"/>
<path d="M219.137 307.676C206.994 307.676 195.525 306.921 186.876 305.598C174.057 303.519 172.585 300.999 172.585 299.236C172.585 297.474 174.057 295.017 186.876 292.936C195.525 291.615 206.994 290.858 219.137 290.858C231.28 290.858 242.811 291.615 251.46 292.936C264.278 295.017 265.75 297.534 265.75 299.236C265.75 300.938 264.278 303.519 251.46 305.598C242.811 306.921 231.341 307.676 219.137 307.676ZM219.137 293.377C207.485 293.377 196.382 294.071 187.919 295.33C177.799 296.842 175.157 298.732 174.977 299.299C174.798 299.866 177.799 301.699 187.919 303.205C196.382 304.464 207.485 305.156 219.137 305.156C230.79 305.156 241.953 304.464 250.356 303.205C260.353 301.693 263.051 299.866 263.297 299.236C263.543 298.607 260.353 296.837 250.356 295.33C241.953 294.071 230.851 293.377 219.137 293.377Z" fill="white"/>
<path d="M175.917 298.502H175.737L172.185 298.256C106.459 294.48 60.8913 285.562 40.2481 272.506C39.9874 272.328 39.8046 272.055 39.7378 271.744C39.6709 271.433 39.7251 271.108 39.8891 270.836C39.9654 270.693 40.0698 270.568 40.1962 270.468C40.3225 270.368 40.4679 270.295 40.6233 270.254C40.7786 270.213 40.9407 270.206 41.099 270.232C41.2573 270.258 41.4088 270.316 41.5442 270.403C55.6928 279.375 89.8726 291.075 172.32 295.773L176.116 296.02C176.436 296.081 176.721 296.261 176.914 296.525C177.108 296.789 177.195 297.117 177.159 297.444C177.115 297.739 176.966 298.008 176.741 298.201C176.516 298.395 176.229 298.499 175.933 298.495L175.917 298.502Z" fill="white"/>
<path d="M76.4138 305.383C49.3546 305.383 25.6842 304.24 18.9718 300.639C18.6824 300.483 18.4694 300.229 18.3774 299.931C18.2855 299.633 18.3218 299.313 18.4786 299.039C18.666 298.791 18.9436 298.614 19.2605 298.54C19.5774 298.467 19.9124 298.502 20.2037 298.639C37.0317 307.726 173.744 300.067 175.102 299.952C175.266 299.937 175.431 299.953 175.588 300C175.745 300.047 175.889 300.124 176.011 300.227C176.133 300.329 176.231 300.455 176.298 300.595C176.363 300.735 176.397 300.886 176.397 301.039C176.413 301.186 176.397 301.335 176.35 301.476C176.279 301.689 176.139 301.877 175.948 302.013C175.758 302.15 175.527 302.228 175.286 302.238C171.768 302.468 119.806 305.383 76.4138 305.383Z" fill="white"/>
<path d="M257.83 296.973C257.522 296.975 257.225 296.862 256.996 296.656C256.767 296.451 256.623 296.168 256.593 295.863C256.562 295.558 256.647 295.253 256.831 295.007C257.014 294.761 257.283 294.591 257.586 294.532C258.321 294.41 329.159 281.532 357.741 261.264C357.874 261.172 358.024 261.106 358.182 261.072C358.34 261.037 358.504 261.034 358.663 261.062C358.823 261.091 358.975 261.15 359.112 261.237C359.248 261.324 359.366 261.437 359.458 261.57C359.644 261.837 359.717 262.167 359.661 262.487C359.603 262.808 359.419 263.092 359.151 263.278C330.141 283.847 260.958 296.419 258.013 296.968L257.83 296.973Z" fill="white"/>
<path d="M367.001 309.97C320.215 309.97 265.254 301.099 264.517 300.974C264.355 300.951 264.198 300.896 264.058 300.81C263.917 300.725 263.794 300.611 263.697 300.476C263.599 300.342 263.528 300.188 263.49 300.025C263.445 299.825 263.45 299.617 263.503 299.419C263.556 299.221 263.656 299.04 263.794 298.891C263.932 298.742 264.103 298.631 264.294 298.566C264.484 298.501 264.687 298.486 264.884 298.521C265.931 298.648 365.403 314.687 410.099 303.498C410.409 303.421 410.735 303.47 411.011 303.634C411.286 303.798 411.488 304.065 411.575 304.379C411.65 304.712 411.595 305.062 411.423 305.355C411.251 305.648 410.975 305.862 410.652 305.951C398.909 308.845 383.478 309.97 367.001 309.97Z" fill="white"/>
<path d="M130.815 146.338C130.573 146.331 130.336 146.259 130.131 146.129C129.926 145.999 129.759 145.817 129.649 145.601C129.523 145.307 129.516 144.975 129.631 144.676C129.745 144.377 129.972 144.135 130.262 144C130.57 143.82 162.633 128.442 174.858 117.62C175.105 117.398 175.428 117.28 175.76 117.291C176.092 117.303 176.407 117.442 176.638 117.681C176.838 117.942 176.936 118.267 176.914 118.595C176.891 118.924 176.75 119.232 176.516 119.463C164.046 130.533 132.658 145.538 131.306 146.215L130.815 146.338Z" fill="#35E166"/>
<path d="M250.899 64.8544C250.899 64.8544 202.804 54.4015 181.92 90.5594C161.035 126.717 163.184 176.779 203.479 194.187C243.774 211.594 297.95 192.833 306.984 137.855C316.019 82.8765 255.693 65.5915 250.899 64.8544Z" fill="#35E166"/>
<path d="M229.095 171.432C214.967 171.432 200.293 166.943 192.056 155.628C184.562 145.356 181.736 133.549 183.955 121.496C186.535 106.983 196.178 92.9617 209.754 83.9831C231.62 69.5311 255.208 81.4005 255.453 81.523C277.443 92.9004 283.954 110.735 277.26 141.238C274.189 155.381 261.167 166.144 242.554 170.073C238.125 170.967 233.619 171.42 229.102 171.425L229.095 171.432ZM234.009 79.2486C225.859 79.1624 217.874 81.5411 211.097 86.0736C198.075 94.6846 188.801 108.09 186.344 121.927C184.317 133.304 186.958 144.435 194.085 154.214C204.345 168.296 225.595 171.126 242.057 167.682C258.519 164.238 272.032 153.66 274.858 140.746C281.247 111.534 275.105 94.4287 254.337 83.6767C247.945 80.7896 241.018 79.2809 234.005 79.2486H234.009Z" fill="black"/>
<path d="M193.039 156.113C192.742 156.116 192.455 156.011 192.229 155.819C192.003 155.627 191.854 155.36 191.811 155.066C189.046 130.037 194.083 111.526 206.86 99.9652C228.481 80.4706 264.103 87.9732 265.582 88.2814C265.74 88.3175 265.888 88.3843 266.02 88.4779C266.151 88.5714 266.262 88.6903 266.347 88.8275C266.434 88.9644 266.492 89.1172 266.518 89.2768C266.545 89.4365 266.54 89.5999 266.502 89.7574C266.473 89.9125 266.413 90.06 266.326 90.1911C266.238 90.3223 266.125 90.4344 265.993 90.5206C265.862 90.6068 265.714 90.6654 265.558 90.6928C265.403 90.7203 265.244 90.716 265.091 90.6802C264.722 90.6171 229.156 83.1109 208.457 101.811C196.356 112.757 191.564 130.59 194.268 154.76C194.293 154.918 194.286 155.08 194.247 155.236C194.208 155.391 194.137 155.536 194.04 155.663C193.942 155.79 193.819 155.895 193.68 155.973C193.539 156.05 193.384 156.098 193.224 156.113H193.039Z" fill="black"/>
<path d="M224.956 105.787C227.993 103.615 231.938 103.171 235.381 104.615L250.003 110.745C253.602 112.254 256.102 115.593 256.538 119.471L258.186 134.128C258.621 138.006 256.925 141.817 253.75 144.087L240.855 153.31C237.818 155.482 233.873 155.926 230.43 154.482L215.808 148.352C212.209 146.843 209.709 143.504 209.273 139.626L207.625 124.968C207.189 121.091 208.886 117.28 212.06 115.01L224.956 105.787Z" stroke="black" stroke-width="2.47"/>
<path d="M236.98 155.736L234.781 136.178C234.297 131.867 236.177 127.629 239.7 125.096L255.408 113.798M257.56 126.549L251.158 130.802C247.411 133.291 245.371 137.667 245.874 142.137L246.674 149.259" stroke="black" stroke-width="2.47"/>
<path d="M222.942 151.567L220.737 131.954C220.235 127.487 222.272 123.114 226.014 120.624L244.72 108.176" stroke="black" stroke-width="2.47"/>
<path d="M224.549 190.431C217.828 190.428 211.137 189.539 204.648 187.787C189.782 183.729 179.833 176.165 178.174 173.643C178.072 173.519 177.999 173.373 177.959 173.218C177.92 173.062 177.914 172.899 177.943 172.741C177.973 172.583 178.036 172.433 178.129 172.302C178.222 172.171 178.342 172.062 178.481 171.982C178.614 171.888 178.764 171.822 178.923 171.787C179.081 171.752 179.245 171.748 179.405 171.776C179.565 171.804 179.718 171.864 179.855 171.953C179.991 172.041 180.109 172.155 180.201 172.29C181.308 173.95 190.337 181.33 205.263 185.446C218.224 188.951 238.554 190.611 261.966 178.435C296.978 160.233 298.637 127.271 297.777 113.986C297.232 107.2 295.701 100.529 293.232 94.1854C293.114 93.8847 293.119 93.5497 293.247 93.2529C293.374 92.9561 293.613 92.7216 293.912 92.6002C294.211 92.4787 294.546 92.4802 294.844 92.6042C295.142 92.7282 295.379 92.9649 295.503 93.2627C298.071 99.8441 299.664 106.766 300.234 113.808C301.156 127.582 299.374 161.776 263.071 180.594C248.813 188.032 235.667 190.431 224.549 190.431Z" fill="black"/>
<path d="M241.38 199.84C241.1 199.845 240.828 199.747 240.613 199.567C240.399 199.386 240.257 199.134 240.214 198.856L238.118 188.155C238.065 187.837 238.138 187.511 238.321 187.247C238.505 186.983 238.785 186.802 239.101 186.742C239.255 186.696 239.417 186.683 239.577 186.706C239.735 186.729 239.887 186.787 240.021 186.875C240.155 186.963 240.27 187.079 240.356 187.214C240.44 187.35 240.494 187.504 240.514 187.663L242.602 198.364C242.658 198.689 242.587 199.024 242.405 199.298C242.222 199.573 241.941 199.767 241.62 199.84H241.38Z" fill="black"/>
<path d="M257.903 196.766C257.616 196.771 257.335 196.676 257.111 196.495C256.885 196.315 256.73 196.059 256.675 195.775L254.094 183.413C254.058 183.259 254.054 183.1 254.082 182.945C254.111 182.789 254.172 182.641 254.262 182.51C254.346 182.378 254.458 182.264 254.589 182.177C254.72 182.089 254.868 182.027 255.023 181.997C255.181 181.96 255.344 181.955 255.503 181.982C255.662 182.009 255.815 182.067 255.952 182.153C256.089 182.238 256.208 182.35 256.301 182.481C256.395 182.613 256.461 182.762 256.497 182.919L259.077 195.281C259.113 195.434 259.118 195.594 259.091 195.749C259.06 195.905 258.999 196.053 258.911 196.185C258.824 196.317 258.712 196.43 258.582 196.517C258.451 196.605 258.304 196.665 258.15 196.696L257.903 196.766Z" fill="black"/>
<path d="M273.382 188.402C273.124 188.392 272.875 188.304 272.667 188.15C272.459 187.997 272.302 187.784 272.216 187.54L268.72 176.348C268.638 176.042 268.677 175.716 268.829 175.438C268.981 175.16 269.235 174.951 269.537 174.856C269.839 174.761 270.166 174.786 270.45 174.927C270.734 175.068 270.953 175.313 271.06 175.611L274.561 186.803C274.648 187.033 274.66 187.284 274.595 187.521C274.531 187.758 274.393 187.969 274.201 188.122C274.074 188.225 273.927 188.299 273.769 188.34L273.382 188.402Z" fill="black"/>
<path d="M284.685 179.484C284.44 179.486 284.201 179.417 283.994 179.286C283.788 179.156 283.622 178.969 283.518 178.747L279.34 168.846C279.235 168.543 279.246 168.211 279.371 167.916C279.496 167.621 279.727 167.382 280.017 167.247C280.319 167.125 280.656 167.128 280.955 167.255C281.254 167.382 281.491 167.622 281.614 167.923L285.79 177.763C285.918 178.066 285.926 178.406 285.812 178.715C285.698 179.023 285.47 179.277 285.176 179.423L284.685 179.484Z" fill="black"/>
<path d="M204.525 105.32C204.298 105.314 204.076 105.249 203.882 105.13C203.688 105.011 203.529 104.844 203.42 104.644L198.813 95.7263C198.703 95.5076 198.66 95.2608 198.69 95.0174C198.72 94.7741 198.822 94.5453 198.983 94.3602C199.112 94.2057 199.278 94.0851 199.465 94.0088C199.651 93.9324 199.854 93.9027 200.055 93.922C200.256 93.9413 200.449 94.0092 200.617 94.1197C200.786 94.2303 200.926 94.3802 201.024 94.5567L205.63 103.474C205.741 103.693 205.784 103.94 205.754 104.183C205.724 104.426 205.622 104.655 205.461 104.84C205.354 104.963 205.224 105.064 205.078 105.136C204.916 105.252 204.724 105.316 204.525 105.32Z" fill="black"/>
<path d="M212.572 98.309C212.338 98.2978 212.111 98.2231 211.917 98.0929C211.722 97.9628 211.566 97.782 211.466 97.5701L207.166 87.5462C207.042 87.2356 207.044 86.8891 207.17 86.5796C207.296 86.2701 207.537 86.0216 207.843 85.8863C208.144 85.7645 208.481 85.7672 208.781 85.8939C209.08 86.0206 209.317 86.2609 209.439 86.5622L213.74 96.5861C213.861 96.8883 213.858 97.2262 213.731 97.526C213.604 97.8259 213.364 98.0633 213.063 98.1865L212.572 98.309Z" fill="black"/>
<path d="M225.41 198.856C225.113 198.86 224.826 198.757 224.6 198.564C224.374 198.372 224.226 198.105 224.182 197.811L223.014 190.125C222.986 189.961 222.99 189.794 223.028 189.632C223.066 189.47 223.135 189.318 223.232 189.184C223.33 189.049 223.453 188.936 223.595 188.85C223.736 188.764 223.894 188.707 224.058 188.683C224.222 188.659 224.389 188.668 224.549 188.71C224.71 188.752 224.86 188.825 224.992 188.926C225.123 189.026 225.234 189.152 225.316 189.296C225.398 189.44 225.451 189.599 225.471 189.764L226.637 197.451C226.675 197.775 226.588 198.102 226.394 198.364C226.201 198.627 225.914 198.806 225.593 198.865L225.41 198.856Z" fill="black"/>
<path d="M362.632 175.119C362.347 175.123 362.067 175.037 361.833 174.872C361.473 174.566 325.291 144.186 302.866 137.051C302.557 136.952 302.3 136.735 302.151 136.447C302.001 136.159 301.972 135.824 302.068 135.514C302.192 135.209 302.422 134.96 302.716 134.813C303.01 134.666 303.347 134.631 303.665 134.715C326.515 142.032 361.957 171.737 363.428 172.966C363.679 173.171 363.839 173.467 363.873 173.79C363.907 174.113 363.811 174.436 363.608 174.689C363.487 174.83 363.336 174.942 363.166 175.016C362.996 175.091 362.811 175.126 362.625 175.119H362.632Z" fill="#35E166"/>
<path d="M172.584 236.058C172.584 236.058 177.13 251.483 169.758 253.834C162.387 256.185 131.737 259.416 135.238 245.826C138.739 232.237 158.518 245.312 157.597 236.645C156.675 227.979 172.584 236.058 172.584 236.058Z" fill="#35E166"/>
<path d="M264.722 237.53C264.722 237.53 273.443 250.166 267.179 255.379C260.915 260.593 233.157 276.389 232.473 262.285C231.789 248.181 254.218 252.075 250.834 244.362C247.45 236.65 264.722 237.53 264.722 237.53Z" fill="#35E166"/>
<path d="M166.135 238.628C165.858 238.626 165.59 238.518 165.369 238.319C165.147 238.121 164.986 237.843 164.907 237.526C161.282 220.486 162.567 206.959 168.838 197.272C178.298 182.656 195.618 182.435 196.356 182.435C196.674 182.449 196.975 182.61 197.195 182.884C197.416 183.158 197.539 183.524 197.539 183.904C197.539 184.284 197.416 184.649 197.195 184.923C196.975 185.197 196.674 185.358 196.356 185.373C196.176 185.373 179.464 185.588 170.741 199.109C164.968 207.997 163.863 220.703 167.303 236.779C167.381 237.158 167.335 237.559 167.175 237.9C167.016 238.241 166.754 238.496 166.442 238.615L166.135 238.628Z" fill="#35E166"/>
<path d="M259.808 242.154C259.586 242.161 259.368 242.087 259.181 241.943C258.995 241.799 258.849 241.591 258.764 241.347C245.983 213.434 255.077 191.693 255.507 190.81C255.58 190.635 255.681 190.479 255.804 190.351C255.928 190.223 256.072 190.126 256.227 190.066C256.381 190.003 256.544 189.979 256.706 189.995C256.868 190.009 257.027 190.062 257.172 190.15C257.445 190.349 257.645 190.662 257.736 191.028C257.827 191.394 257.801 191.787 257.664 192.132C257.54 192.427 248.818 213.443 260.918 239.95C261.071 240.291 261.105 240.691 261.013 241.063C260.921 241.434 260.711 241.747 260.427 241.934C260.246 242.082 260.032 242.157 259.813 242.15L259.808 242.154Z" fill="#35E166"/>
<path d="M124.243 139.881C124.055 139.876 123.871 139.83 123.703 139.746C123.533 139.659 123.384 139.536 123.267 139.385C123.206 139.263 117.431 131.145 110.127 130.1C106.931 129.669 103.922 130.59 101.097 132.928C100.844 133.131 100.52 133.226 100.197 133.191C99.8753 133.155 99.5801 132.995 99.3746 132.744C99.2663 132.622 99.1847 132.479 99.1352 132.324C99.0853 132.168 99.0681 132.004 99.0848 131.841C99.1021 131.679 99.1537 131.522 99.236 131.381C99.3175 131.24 99.4272 131.118 99.5582 131.021C102.937 128.255 106.624 127.148 110.431 127.701C118.846 128.869 125.051 137.603 125.296 137.974C125.47 138.247 125.535 138.576 125.478 138.896C125.421 139.215 125.246 139.501 124.988 139.697C124.76 139.813 124.508 139.875 124.252 139.877L124.243 139.881Z" fill="#35E166"/>
<path d="M90.6442 139.143C90.3385 139.145 90.0432 139.033 89.8159 138.828C89.5886 138.623 89.4456 138.341 89.4147 138.037C88.9845 134.96 90.1527 133.362 91.258 132.5C95.9868 128.75 107.842 133.239 109.194 133.793C109.415 133.875 109.606 134.022 109.742 134.215C109.878 134.408 109.952 134.638 109.956 134.874C109.958 135.031 109.928 135.187 109.869 135.332C109.815 135.487 109.73 135.629 109.619 135.75C109.452 135.932 109.235 136.06 108.995 136.117C108.755 136.174 108.503 136.158 108.272 136.071C103.727 134.286 95.4918 132.257 92.7323 134.409C92.4857 134.656 91.5028 135.393 91.8718 137.73C91.8885 137.892 91.8732 138.056 91.8268 138.212C91.7798 138.367 91.7027 138.512 91.5998 138.637C91.497 138.763 91.3704 138.867 91.2274 138.943C91.0847 139.021 90.928 139.068 90.7666 139.084C90.7666 139.143 90.7054 139.143 90.6442 139.143Z" fill="#35E166"/>
<path d="M88.1259 143.878C87.9053 143.874 87.689 143.816 87.496 143.709C87.303 143.602 87.1392 143.449 87.0189 143.263C85.9136 141.173 86.405 139.758 86.9577 138.897C89.8378 134.716 103.05 136.314 105.632 136.684C105.812 136.673 105.992 136.703 106.159 136.77C106.327 136.837 106.477 136.941 106.6 137.073C106.723 137.205 106.815 137.362 106.87 137.534C106.926 137.706 106.943 137.888 106.921 138.067C106.898 138.246 106.836 138.418 106.739 138.57C106.642 138.724 106.512 138.853 106.359 138.949C106.207 139.045 106.035 139.107 105.857 139.129C105.675 139.153 105.491 139.136 105.317 139.08C99.4197 138.28 90.4516 138.158 88.9773 140.31C88.8549 140.432 88.5471 140.863 89.224 142.094C89.2969 142.239 89.3404 142.397 89.3521 142.559C89.3638 142.722 89.3434 142.884 89.2921 143.039C89.2407 143.193 89.1595 143.335 89.0529 143.458C88.9464 143.581 88.8167 143.681 88.6713 143.754L88.1259 143.878Z" fill="#35E166"/>
<path d="M116.933 174.566C115.961 174.53 115.012 174.259 114.167 173.776C113.322 173.293 112.607 172.613 112.082 171.793C111.637 171.078 111.412 170.248 111.433 169.407C111.455 168.565 111.723 167.749 112.204 167.058C114.661 163.551 114.292 158.508 114.292 158.447V158.016C114.283 157.795 114.229 157.577 114.134 157.377C114.039 157.176 113.905 156.997 113.739 156.849C112.634 155.556 108.825 153.466 96.5395 153.965C91.4993 154.145 89.7226 151.752 89.476 151.262C88.1259 149.294 87.8793 147.634 88.8009 146.342C91.4417 142.528 103.666 144.988 107.351 145.85C107.508 145.886 107.657 145.952 107.788 146.046C107.92 146.14 108.032 146.259 108.118 146.396C108.204 146.533 108.261 146.686 108.287 146.846C108.314 147.005 108.309 147.168 108.273 147.326C108.231 147.57 108.112 147.794 107.935 147.966C107.757 148.138 107.529 148.249 107.284 148.283C107.122 148.306 106.956 148.294 106.798 148.248C99.9795 146.65 91.9331 146.097 90.8279 147.756C90.5812 148.117 90.8279 148.924 91.5029 149.908V150.031C91.5029 150.031 92.6099 151.631 96.3631 151.507C106.804 151.078 113.255 152.368 115.712 155.443C116.405 156.286 116.737 157.369 116.634 158.456C116.695 159.44 116.814 164.544 114.114 168.48C113.899 168.772 113.778 169.122 113.766 169.485C113.755 169.847 113.854 170.205 114.051 170.509C114.376 171.024 114.832 171.443 115.372 171.724C115.912 172.005 116.516 172.138 117.124 172.11C117.55 172.029 117.942 171.821 118.248 171.514C118.555 171.206 118.762 170.814 118.843 170.387C120.564 164.483 121.669 162.457 125.354 160.977C125.784 160.855 126.889 160.424 126.275 158.211C126.131 157.679 126.174 157.113 126.398 156.609C126.622 156.104 127.012 155.693 127.503 155.443L130.943 152.86C131.072 152.763 131.219 152.693 131.375 152.653C131.532 152.613 131.695 152.604 131.856 152.626C132.015 152.649 132.169 152.704 132.307 152.786C132.587 152.953 132.79 153.224 132.871 153.54C132.91 153.696 132.92 153.859 132.898 154.019C132.85 154.341 132.678 154.632 132.419 154.828L128.673 157.654C129.348 160.298 128.493 162.389 126.277 163.25C124.061 164.111 122.776 165.593 121.179 171.061C120.565 173.027 119.213 174.319 117.431 174.566H116.933Z" fill="#35E166"/>
<path d="M399.979 172.966C399.749 172.975 399.521 172.916 399.324 172.796C399.127 172.675 398.971 172.499 398.874 172.29C395.803 165.71 378.173 169.947 371.6 172.167C371.452 172.225 371.293 172.251 371.133 172.245C370.974 172.239 370.817 172.2 370.673 172.131C370.53 172.062 370.402 171.964 370.297 171.843C370.192 171.724 370.113 171.584 370.065 171.432C370.006 171.279 369.978 171.115 369.984 170.951C369.99 170.787 370.029 170.626 370.097 170.477C370.166 170.328 370.264 170.194 370.385 170.084C370.507 169.973 370.649 169.888 370.803 169.833C373.444 168.972 396.544 161.531 401.084 171.248C401.191 171.465 401.227 171.711 401.188 171.949C401.15 172.188 401.038 172.409 400.868 172.582C400.755 172.697 400.62 172.787 400.47 172.847C400.326 172.945 400.152 172.988 399.979 172.969V172.966Z" fill="#35E166"/>
<path d="M406.427 178.194H406.247C405.931 178.133 405.651 177.951 405.468 177.687C405.284 177.423 405.211 177.097 405.264 176.779C405.36 176.422 405.359 176.046 405.262 175.69C405.165 175.333 404.975 175.009 404.711 174.75C402.317 172.535 393.533 173.582 388.557 174.811C388.404 174.857 388.243 174.871 388.084 174.853C387.925 174.834 387.772 174.783 387.634 174.701C387.495 174.621 387.374 174.513 387.279 174.384C387.184 174.254 387.118 174.106 387.083 173.95C387.006 173.632 387.052 173.297 387.212 173.012C387.371 172.727 387.633 172.512 387.944 172.412C389.418 172.106 402.254 169.093 406.432 172.966C406.975 173.514 407.371 174.19 407.586 174.931C407.8 175.673 407.826 176.456 407.66 177.21C407.615 177.498 407.464 177.758 407.237 177.94C407.01 178.122 406.723 178.213 406.432 178.194H406.427Z" fill="#35E166"/>
<path d="M404.585 184.896H404.087C403.791 184.75 403.559 184.5 403.435 184.194C403.311 183.889 403.302 183.548 403.412 183.236C403.964 182.069 403.592 181.638 403.473 181.452C401.568 179.055 391.495 179.362 384.862 180.346C384.7 180.372 384.535 180.366 384.376 180.328C384.216 180.288 384.067 180.218 383.935 180.12C383.803 180.023 383.692 179.901 383.609 179.76C383.525 179.619 383.471 179.463 383.449 179.3C383.422 179.142 383.429 178.98 383.468 178.825C383.508 178.669 383.578 178.524 383.676 178.397C383.774 178.27 383.897 178.165 384.037 178.088C384.178 178.01 384.333 177.962 384.493 177.947C387.373 177.455 401.999 175.487 405.374 179.915C405.824 180.531 406.092 181.262 406.146 182.024C406.2 182.785 406.038 183.547 405.68 184.22C405.583 184.43 405.427 184.606 405.23 184.727C405.033 184.846 404.805 184.905 404.575 184.896H404.585Z" fill="#35E166"/>
<path d="M388.307 195.474C385.394 195.518 382.492 195.103 379.708 194.245C379.528 194.219 379.356 194.154 379.204 194.053C379.053 193.953 378.926 193.82 378.832 193.664C378.739 193.508 378.681 193.333 378.664 193.152C378.635 192.879 378.699 192.605 378.844 192.372C378.989 192.139 379.208 191.962 379.465 191.867C379.636 191.805 379.819 191.782 380 191.799C380.181 191.816 380.356 191.873 380.513 191.967C385.058 193.565 394.64 193.381 397.896 190.983C398.155 190.848 398.371 190.644 398.523 190.395C398.674 190.146 398.754 189.86 398.755 189.568C398.743 189.358 398.681 189.154 398.575 188.973C398.468 188.791 398.321 188.637 398.145 188.522C396.24 186.863 390.404 186.863 387.15 187.232C386.988 187.249 386.825 187.233 386.669 187.187C386.514 187.14 386.369 187.063 386.244 186.96C386.118 186.858 386.014 186.731 385.938 186.587C385.862 186.444 385.814 186.287 385.798 186.126C385.772 185.967 385.78 185.805 385.819 185.65C385.858 185.494 385.928 185.348 386.026 185.221C386.124 185.094 386.247 184.989 386.387 184.911C386.528 184.834 386.682 184.787 386.842 184.772C387.825 184.65 396.425 183.788 399.741 186.616C400.172 186.969 400.525 187.408 400.778 187.904C401.032 188.4 401.181 188.943 401.215 189.499C401.221 190.197 401.05 190.885 400.716 191.499C400.383 192.112 399.9 192.63 399.311 193.005C396.969 194.737 392.546 195.474 388.307 195.474Z" fill="#35E166"/>
<path d="M368.16 208.143C367.582 208.17 367.005 208.055 366.481 207.808C365.957 207.562 365.5 207.191 365.151 206.728C363.984 205.252 363.984 202.792 365.212 200.641C365.764 199.718 365.581 199.165 364.782 197.442C363.655 195.151 362.967 192.669 362.755 190.125C362.202 184.037 358.332 182.195 358.148 182.13C357.852 181.988 357.624 181.735 357.513 181.426C357.401 181.117 357.415 180.776 357.552 180.478C357.689 180.179 357.938 179.946 358.245 179.83C358.551 179.713 358.892 179.722 359.192 179.854C359.372 179.976 364.537 182.314 365.212 189.878C365.422 192.145 366.047 194.355 367.055 196.396C367.853 198.242 368.529 199.779 367.361 201.87C366.193 203.96 366.625 204.638 367.055 205.252C367.485 205.867 368.407 205.683 369.082 205.498C373.627 204.268 372.828 195.843 372.828 195.721C372.81 195.397 372.914 195.079 373.119 194.828C373.324 194.578 373.615 194.413 373.935 194.367C374.093 194.35 374.253 194.366 374.405 194.414C374.557 194.46 374.698 194.537 374.819 194.641C374.94 194.745 375.038 194.872 375.107 195.016C375.177 195.159 375.217 195.315 375.224 195.474C375.285 195.904 376.329 206.107 369.757 207.896C369.235 208.033 368.7 208.116 368.16 208.143Z" fill="#35E166"/>
</svg>
