<svg width="443" height="412" viewBox="0 0 443 412" fill="none" xmlns="http://www.w3.org/2000/svg">
<path d="M36.4151 199.592L34.8379 198.623C33.4763 197.575 32.3419 196.28 31.4987 194.813C28.4107 189.244 29.4819 181.077 34.7751 174.48C40.0683 167.883 49.2086 164.253 55.8888 166.614C57.0334 166.978 58.1014 167.534 59.0433 168.257C59.5348 168.628 59.9977 169.032 60.4285 169.467C65.7845 174.852 65.3449 184.655 59.1689 192.401C52.9929 200.147 43.16 203.103 36.4151 199.592Z" fill="#35E166"/>
<path d="M42.6332 202.586C40.2608 202.597 37.9223 202.031 35.8251 200.938L34.1548 199.902C32.6509 198.745 31.4076 197.292 30.504 195.636L29.0187 192.831L32.051 193.928C38.1156 196.184 46.2839 193.013 51.3583 186.424C56.4326 179.836 57.3612 172.586 54.4522 167.221L52.9053 164.362L56.001 165.52C57.2222 165.957 58.3692 166.574 59.4033 167.349L60.9503 168.689C66.6449 174.603 66.1498 185.211 59.7751 193.44C55.1958 199.293 48.6361 202.586 42.6332 202.586ZM34.5882 196.976C34.9077 197.332 35.2598 197.659 35.6401 197.951L37.0021 198.805C43.2516 202.159 52.1635 199.163 57.7946 191.916C63.4258 184.67 64.046 175.396 59.1566 170.397C58.7727 170.001 58.3586 169.634 57.9179 169.3C59.4649 175.09 57.7946 182.163 53.3387 187.893C48.8827 193.622 41.0862 197.708 34.5882 196.976Z" fill="black"/>
<path d="M36.642 196.47C34.8949 196.469 33.1603 196.182 31.5097 195.623L31.0765 195.446L30.8953 195.023C27.4937 188.917 28.7931 180.214 34.1718 173.383C39.5506 166.553 49.0758 162.564 56.3121 165.162L56.7434 165.283L56.9246 165.706C60.3262 171.812 59.0269 180.515 53.6463 187.346C49.1338 193.147 42.6405 196.47 36.642 196.47ZM32.809 193.508C38.8692 195.382 46.7217 192.238 51.6691 185.891C56.3701 179.968 57.606 172.533 55.0091 167.274C48.8873 165.339 41.1563 168.423 36.0856 174.891C31.0149 181.358 30.2121 188.19 32.809 193.51V193.508Z" fill="black"/>
<path d="M60.5894 182.709C60.2429 182.688 59.9177 182.545 59.6777 182.31L56.0915 178.493C55.9776 178.388 55.8883 178.261 55.8293 178.122C55.7394 177.912 55.7222 177.681 55.7802 177.461C55.8381 177.242 55.9683 177.045 56.1522 176.898C56.3977 176.693 56.7185 176.584 57.0476 176.594C57.3767 176.605 57.6887 176.734 57.9185 176.955L61.5101 180.772C61.6246 180.877 61.7145 181.004 61.7742 181.143C61.8633 181.353 61.8798 181.584 61.8216 181.804C61.7634 182.023 61.6332 182.22 61.4494 182.367C61.2235 182.58 60.9169 182.7 60.5966 182.701L60.5894 182.709Z" fill="black"/>
<path d="M56.7757 188.823C56.4449 188.819 56.1294 188.702 55.8978 188.496L53.0768 186.103C52.9555 186.006 52.8586 185.888 52.7924 185.756C52.7261 185.625 52.6919 185.483 52.6919 185.34C52.6919 185.197 52.7261 185.055 52.7924 184.924C52.8586 184.792 52.9555 184.674 53.0768 184.577C53.3032 184.371 53.6137 184.249 53.9419 184.239C54.2701 184.229 54.5898 184.331 54.8326 184.523L57.6518 186.972C57.7731 187.07 57.87 187.187 57.9365 187.319C58.0031 187.45 58.0375 187.592 58.0375 187.735C58.0375 187.878 58.0031 188.02 57.9365 188.151C57.87 188.283 57.7731 188.401 57.6518 188.498C57.5418 188.604 57.4065 188.689 57.2552 188.745C57.1039 188.802 56.9403 188.829 56.7757 188.825V188.823Z" fill="black"/>
<path d="M49.0551 197.234C48.6832 197.236 48.3246 197.116 48.0521 196.901L44.6435 193.828C44.4062 193.608 44.2801 193.317 44.2926 193.019C44.3051 192.72 44.455 192.438 44.7101 192.233C44.8287 192.122 44.9736 192.034 45.1352 191.974C45.3778 191.884 45.6475 191.86 45.9067 191.906C46.1659 191.953 46.4015 192.067 46.5809 192.233L49.9894 195.308C50.1844 195.46 50.3187 195.661 50.3734 195.882C50.4282 196.102 50.4008 196.332 50.295 196.539C50.2244 196.677 50.1202 196.8 49.9894 196.901C49.7416 197.112 49.4059 197.232 49.0551 197.234Z" fill="black"/>
<path d="M37.3413 192.647C36.9117 192.658 36.4848 192.572 36.0907 192.393C35.6967 192.214 35.3452 191.947 35.0611 191.611C33.5997 189.781 34.4186 186.062 37.6926 179.968C40.9665 173.873 44.0641 170.52 47.2216 169.85C47.8151 169.697 48.4323 169.672 49.0354 169.777C49.6385 169.882 50.2147 170.114 50.7285 170.459C50.9689 170.664 51.1228 170.959 51.1573 171.28C51.1917 171.602 51.1041 171.925 50.913 172.18C50.7219 172.435 50.4427 172.602 50.135 172.645C49.8274 172.688 49.5159 172.604 49.2671 172.41C49.0122 172.258 48.7298 172.164 48.4379 172.131C48.1458 172.099 47.8505 172.131 47.5711 172.226C46.2279 172.583 43.4216 174.177 39.7381 181.125C36.0547 188.074 36.8154 189.964 36.8736 190.024C37.1716 190.146 37.4989 190.168 37.809 190.085C38.0329 190.016 38.2713 190.018 38.494 190.091C38.7168 190.163 38.914 190.303 39.0607 190.492C39.2073 190.681 39.2969 190.912 39.3181 191.154C39.3393 191.396 39.2911 191.64 39.1796 191.853C39.0401 192.136 38.8041 192.353 38.5183 192.463C38.1336 192.568 37.7389 192.63 37.3413 192.647Z" fill="black"/>
<path d="M77.7953 98.6172H77.711C71.4035 97.8843 66.5546 95.2545 63.3756 90.7266C56.1665 80.5929 59.6032 64.7675 59.7289 64.1205C59.7539 64.01 59.8005 63.9056 59.866 63.8134C59.9312 63.7209 60.014 63.6424 60.1096 63.5823C60.2052 63.5222 60.3118 63.4818 60.4231 63.4634C60.5341 63.4446 60.6478 63.448 60.7575 63.4735C60.8707 63.4927 60.9785 63.5358 61.0739 63.6C61.1692 63.6641 61.25 63.7478 61.3108 63.8456C61.3716 63.9434 61.4111 64.053 61.4268 64.1673C61.4424 64.2815 61.4337 64.3978 61.4014 64.5084C61.3586 64.6348 58.0062 80.2479 64.7488 89.7346C67.6662 93.8316 72.0863 96.2465 77.8796 96.8923C77.9923 96.9034 78.1017 96.9369 78.2015 96.9909C78.3018 97.044 78.3903 97.1171 78.4618 97.2057C78.5333 97.2932 78.587 97.3941 78.6196 97.5025C78.6522 97.611 78.6631 97.7248 78.6516 97.8375C78.6301 98.051 78.5301 98.2488 78.3713 98.3922C78.2126 98.5357 78.0063 98.6146 77.7928 98.6135L77.7953 98.6172Z" fill="white"/>
<path d="M63.1178 114.668C60.4809 114.727 57.9036 113.851 55.8115 112.184C49.5536 107.13 49.6386 96.104 49.6386 95.6685C49.6322 95.5523 49.6498 95.4361 49.6902 95.3275C49.7296 95.2185 49.7914 95.1195 49.8711 95.0376C49.9503 94.9557 50.045 94.8917 50.1493 94.8499C50.2539 94.8079 50.3659 94.7896 50.4778 94.7962C50.7008 94.7962 50.9146 94.8881 51.0722 95.0517C51.2298 95.2153 51.3184 95.4372 51.3184 95.6685C51.3184 95.7962 51.2335 106.301 56.8563 110.833C59.544 113.012 63.1965 113.492 67.6859 112.228C67.7908 112.196 67.9009 112.186 68.0096 112.198C68.1181 112.212 68.2227 112.249 68.3172 112.306C68.4116 112.363 68.4937 112.44 68.5584 112.532C68.6232 112.623 68.6692 112.728 68.6938 112.838C68.742 113.006 68.74 113.186 68.6882 113.352C68.6364 113.519 68.5371 113.666 68.4034 113.773C68.315 113.845 68.2137 113.897 68.1056 113.928C66.4799 114.393 64.8039 114.642 63.1178 114.668Z" fill="white"/>
<path d="M124.475 280.562C124.274 280.562 124.075 280.553 123.89 280.535C123.704 280.516 123.536 280.49 123.394 280.456C123.252 280.422 123.139 280.383 123.063 280.339C122.986 280.295 122.947 280.247 122.948 280.2V229.704C122.948 229.608 123.109 229.516 123.395 229.448C123.682 229.38 124.07 229.342 124.475 229.342C124.88 229.342 125.269 229.38 125.555 229.448C125.841 229.516 126.002 229.608 126.002 229.704V280.2C126.003 280.247 125.964 280.295 125.887 280.339C125.811 280.383 125.698 280.422 125.556 280.456C125.415 280.49 125.246 280.516 125.06 280.535C124.875 280.553 124.676 280.562 124.475 280.562Z" fill="white"/>
<path d="M113.403 265.273C113.099 265.273 112.808 265.247 112.593 265.202C112.378 265.157 112.257 265.097 112.257 265.033V241.058C112.252 241.026 112.277 240.994 112.332 240.964C112.387 240.934 112.47 240.906 112.577 240.883C112.684 240.86 112.812 240.841 112.954 240.829C113.095 240.816 113.248 240.809 113.402 240.809C113.556 240.809 113.709 240.816 113.851 240.829C113.992 240.841 114.121 240.86 114.227 240.883C114.334 240.906 114.418 240.934 114.473 240.964C114.527 240.994 114.553 241.026 114.547 241.058V265.033C114.547 265.096 114.426 265.157 114.212 265.202C113.997 265.247 113.706 265.273 113.403 265.273Z" fill="white"/>
<path d="M321.66 291.265C321.535 291.265 321.41 291.255 321.295 291.236C321.18 291.217 321.075 291.189 320.989 291.154C320.902 291.119 320.835 291.077 320.791 291.031C320.748 290.985 320.729 290.937 320.734 290.889L321.938 238.861C321.947 238.768 322.048 238.681 322.221 238.616C322.393 238.552 322.624 238.516 322.863 238.516C323.102 238.516 323.332 238.552 323.505 238.616C323.677 238.681 323.779 238.768 323.788 238.861L322.584 290.907C322.585 290.954 322.561 291 322.514 291.044C322.468 291.087 322.4 291.127 322.314 291.16C322.228 291.193 322.126 291.22 322.014 291.238C321.902 291.256 321.781 291.265 321.66 291.265Z" fill="white"/>
<path d="M308.132 271.388C307.829 271.388 307.538 271.338 307.324 271.248C307.109 271.158 306.989 271.036 306.988 270.909V233.663C306.982 233.599 307.008 233.534 307.063 233.474C307.117 233.414 307.201 233.358 307.308 233.312C307.415 233.265 307.543 233.228 307.685 233.203C307.826 233.178 307.979 233.165 308.133 233.165C308.287 233.165 308.44 233.178 308.582 233.203C308.723 233.228 308.851 233.265 308.958 233.312C309.065 233.358 309.149 233.414 309.203 233.474C309.258 233.534 309.284 233.599 309.278 233.663V270.906C309.277 271.033 309.156 271.155 308.942 271.245C308.727 271.335 308.436 271.386 308.132 271.386V271.388Z" fill="white"/>
<path d="M308.132 227.813C307.828 227.813 307.537 227.722 307.323 227.56C307.108 227.399 306.988 227.179 306.988 226.951V208.767C306.999 208.544 307.125 208.333 307.338 208.178C307.552 208.023 307.837 207.937 308.133 207.937C308.429 207.937 308.714 208.023 308.928 208.178C309.141 208.333 309.267 208.544 309.279 208.767V226.951C309.279 227.18 309.158 227.399 308.943 227.561C308.728 227.722 308.436 227.813 308.132 227.813Z" fill="white"/>
<path d="M392.557 136.84C392.454 136.845 392.35 136.83 392.253 136.795C392.156 136.759 392.067 136.705 391.991 136.636C391.916 136.566 391.857 136.482 391.816 136.388C391.775 136.295 391.754 136.195 391.754 136.093C391.749 135.99 391.764 135.887 391.8 135.789C391.835 135.692 391.89 135.602 391.961 135.525C392.031 135.448 392.117 135.386 392.213 135.342C392.308 135.298 392.412 135.273 392.517 135.267C401.992 134.875 414.599 117.5 414.72 117.303C414.842 117.131 415.029 117.014 415.24 116.977C415.451 116.94 415.668 116.987 415.844 117.107C416.02 117.227 416.139 117.41 416.177 117.616C416.215 117.823 416.167 118.035 416.045 118.207C415.482 118.954 402.835 136.409 392.597 136.84H392.557Z" fill="white"/>
<path d="M392.295 147.543C390.767 147.551 389.244 147.373 387.764 147.014C387.662 146.991 387.566 146.95 387.482 146.892C387.397 146.832 387.326 146.757 387.274 146.67C387.222 146.585 387.189 146.491 387.177 146.393C387.164 146.295 387.173 146.196 387.204 146.101C387.26 145.911 387.389 145.747 387.567 145.642C387.745 145.537 387.958 145.498 388.165 145.534C396.225 147.462 403.604 143.189 406.411 141.26C409.219 139.332 410.742 137.404 410.782 136.949C410.749 136.757 410.796 136.561 410.914 136.401C411.031 136.242 411.209 136.131 411.41 136.092C411.612 136.053 411.822 136.089 411.996 136.192C412.171 136.295 412.296 136.458 412.346 136.647C412.581 137.744 411.143 139.332 409.859 140.467C406.651 143.383 399.834 147.543 392.295 147.543Z" fill="white"/>
<path d="M401.609 176.504C401.609 176.123 401.548 175.745 401.43 175.383C401.439 175.296 401.418 175.207 401.369 175.135C401.369 175.011 401.306 174.885 401.306 174.77C401.257 174.627 401.216 174.482 401.183 174.334L401.061 174.024L400.693 173.029C400.575 172.883 400.492 172.713 400.448 172.531H400.391C400.267 172.405 400.083 172.469 400.022 172.655C399.961 172.841 400.083 172.29 400.144 172.033C397.139 166.867 390.077 163.632 382.232 164.504C374.387 165.375 367.204 170.788 366.039 177.135C366.165 177.426 366.33 177.698 366.53 177.943C366.467 177.881 366.406 177.819 366.406 177.761C366.406 177.703 365.915 177.637 365.915 177.885C365.865 178.067 365.844 178.256 365.854 178.445V178.571C365.8 178.794 365.78 179.025 365.793 179.254C365.793 179.619 365.854 180 365.854 180.436C365.927 181.002 366.03 181.563 366.161 182.117C368.002 188.961 376.099 193.504 385.238 192.512C394.377 191.52 401.372 185.294 401.678 178.2C401.688 177.64 401.668 177.079 401.617 176.521L401.609 176.504Z" fill="#35E166"/>
<path d="M376.529 191.118C376.187 191.123 375.854 191.029 375.592 190.854C375.33 190.679 375.156 190.434 375.103 190.166L373.451 184.933C373.38 184.626 373.457 184.31 373.665 184.046C373.874 183.782 374.199 183.588 374.577 183.504C374.77 183.469 374.969 183.464 375.163 183.49C375.358 183.516 375.544 183.573 375.711 183.656C376.045 183.825 376.282 184.091 376.371 184.397L377.946 189.631C378.003 189.779 378.021 189.935 377.997 190.089C377.974 190.243 377.912 190.392 377.813 190.526C377.715 190.661 377.583 190.777 377.425 190.869C377.266 190.96 377.087 191.024 376.897 191.059L376.529 191.118Z" fill="black"/>
<path d="M386.077 190.354C385.817 190.349 385.567 190.251 385.364 190.077C385.161 189.903 385.017 189.662 384.955 189.392L384.227 185.963C384.154 185.8 384.116 185.623 384.116 185.443C384.116 185.263 384.154 185.085 384.227 184.922C384.299 184.76 384.404 184.617 384.534 184.503C384.665 184.39 384.817 184.31 384.981 184.268C385.143 184.228 385.312 184.228 385.474 184.268C385.638 184.307 385.792 184.384 385.925 184.495C386.058 184.606 386.165 184.747 386.24 184.908C386.315 185.069 386.355 185.247 386.357 185.427L387.142 188.856C387.175 189.01 387.18 189.17 387.156 189.326C387.132 189.482 387.08 189.632 387.001 189.765C386.922 189.899 386.82 190.015 386.7 190.107C386.58 190.199 386.445 190.265 386.301 190.3L386.077 190.354Z" fill="black"/>
<path d="M397.399 188.06C397.168 188.069 396.941 188.006 396.744 187.878C396.547 187.751 396.39 187.564 396.293 187.342L394.144 182.244C394.017 181.932 394.011 181.579 394.125 181.262C394.24 180.944 394.467 180.687 394.758 180.546C394.906 180.469 395.068 180.425 395.233 180.417C395.398 180.409 395.562 180.437 395.717 180.498C395.872 180.558 396.013 180.651 396.133 180.772C396.253 180.892 396.349 181.038 396.416 181.199L398.504 186.231C398.576 186.389 398.617 186.561 398.625 186.737C398.632 186.912 398.606 187.087 398.549 187.252C398.492 187.416 398.405 187.567 398.291 187.694C398.178 187.822 398.041 187.924 397.89 187.995L397.399 188.06Z" fill="black"/>
<path d="M372.396 175.827C372.089 175.844 371.788 175.743 371.554 175.545C371.32 175.346 371.172 175.066 371.14 174.762C371.104 173.897 371.248 173.034 371.561 172.227C371.875 171.42 372.352 170.685 372.962 170.068C375.289 167.565 379.564 166.439 385.663 166.69C391.762 166.941 395.661 168.254 396.792 170.694C397.073 171.375 397.163 172.119 397.052 172.846C396.942 173.574 396.635 174.258 396.164 174.826C396.064 174.957 395.939 175.068 395.796 175.151C395.653 175.235 395.495 175.29 395.331 175.314C395.168 175.336 395.001 175.327 394.841 175.286C394.643 175.232 394.462 175.129 394.315 174.987C394.167 174.845 394.057 174.669 393.994 174.474C393.932 174.28 393.919 174.073 393.957 173.872C393.994 173.671 394.082 173.483 394.211 173.324C394.379 173.091 394.489 172.822 394.533 172.539C394.576 172.256 394.552 171.967 394.463 171.695C394.148 171.07 392.639 169.505 385.534 169.192C378.429 168.878 376.039 170.444 374.782 171.822C374.422 172.158 374.135 172.566 373.94 173.018C373.745 173.47 373.647 173.958 373.651 174.45C373.668 174.614 373.652 174.779 373.604 174.936C373.556 175.094 373.478 175.24 373.373 175.367C373.268 175.496 373.138 175.602 372.991 175.679C372.845 175.757 372.685 175.806 372.52 175.822L372.396 175.827Z" fill="black"/>
<path d="M380.56 185.765C377.684 185.81 374.841 185.158 372.288 183.868C369.736 182.577 367.552 180.689 365.936 178.372C365.788 178.089 365.75 177.762 365.829 177.453C365.909 177.145 366.1 176.874 366.368 176.691C366.664 176.539 367.009 176.503 367.332 176.593C367.654 176.682 367.928 176.89 368.097 177.172C368.277 177.524 373.588 186.121 386.54 182.518C399.492 178.915 398.449 173.388 398.449 173.328C398.419 173.032 398.502 172.736 398.683 172.496C398.865 172.257 399.13 172.091 399.43 172.031C399.729 171.972 400.04 172.022 400.304 172.173C400.567 172.323 400.764 172.564 400.856 172.847C400.917 173.199 402.336 180.592 387.22 184.801C385.06 185.441 382.815 185.765 380.557 185.762L380.56 185.765Z" fill="black"/>
<path d="M218.024 332.139C163.716 332.139 112.602 327.944 74.1892 320.354C46.6361 314.929 13.7457 305.421 13.7457 290.859C13.7457 276.296 46.6361 266.732 74.1892 261.301C112.602 253.706 163.718 249.576 218.024 249.576C272.33 249.576 323.383 253.712 361.796 261.301C389.408 266.726 422.299 276.296 422.299 290.859C422.299 305.421 389.408 314.924 361.796 320.354C323.383 327.935 272.33 332.139 218.024 332.139ZM218.024 252.044C163.84 252.044 112.971 256.18 74.6802 263.708C37.4937 271.05 16.2004 280.924 16.2004 290.859C16.2004 300.794 37.4937 310.604 74.6802 317.947C112.971 325.476 163.84 329.671 218.024 329.671C272.208 329.671 323.076 325.476 361.366 317.947C398.492 310.604 419.846 300.732 419.846 290.859C419.846 280.985 398.492 271.05 361.366 263.708C323.076 256.18 272.145 252.044 218.024 252.044Z" fill="white"/>
<path d="M221.81 339.784C163.012 339.784 107.717 334.697 66.0814 325.442C24.4456 316.187 0.763641 303.44 0.763641 289.712C0.763641 275.984 23.9499 263.357 66.0814 253.98C108.213 244.602 163.012 239.638 221.81 239.638C280.608 239.638 335.903 244.725 377.539 253.98C419.174 263.235 442.917 276.043 442.917 289.712C442.917 303.38 419.666 316.127 377.54 325.442C335.414 334.757 280.606 339.784 221.81 339.784ZM221.81 242.09C163.195 242.09 108.088 247.176 66.6347 256.371C26.2877 265.319 3.22396 277.514 3.22396 289.712C3.22396 301.909 26.2949 314.105 66.6347 323.053C108.09 332.307 163.195 337.332 221.81 337.332C280.424 337.332 335.53 332.303 376.983 323.053C417.323 314.105 440.455 301.961 440.455 289.712C440.455 277.462 417.323 265.321 376.983 256.371C335.53 247.18 280.423 242.09 221.81 242.09Z" fill="white"/>
<path d="M212.043 352.78C165.061 352.78 121.932 348.988 83.603 341.407C41.1586 333.03 19.9068 323.063 14.4399 320.189C-5.52308 309.855 0.987839 289.615 1.11025 289.432C1.15109 289.275 1.22536 289.128 1.32805 289.002C1.42929 288.875 1.55626 288.771 1.70068 288.696C1.84537 288.621 2.00417 288.577 2.16692 288.567C2.32967 288.556 2.49276 288.58 2.64573 288.636C2.95015 288.76 3.19908 288.99 3.34612 289.282C3.49315 289.575 3.52826 289.911 3.44496 290.228C3.13714 290.961 -2.51335 308.685 15.5452 318.049C41.2864 331.377 116.53 353.146 235.568 350.028C345.887 347.161 414.744 333.03 434.584 309.244C439.376 303.434 441.281 296.953 440.174 289.982C440.121 289.666 440.194 289.342 440.377 289.08C440.561 288.817 440.841 288.636 441.157 288.576C441.481 288.539 441.806 288.626 442.069 288.818C442.331 289.011 442.51 289.296 442.57 289.615C443.799 297.259 441.772 304.413 436.428 310.772C425.987 323.307 402.705 333.273 367.202 340.305C333.664 346.971 289.438 351.067 235.63 352.474C227.704 352.657 219.783 352.78 212.043 352.78Z" fill="white"/>
<path d="M15.0008 359C14.7358 359 14.4816 358.857 14.2941 358.601C14.1066 358.346 14.0011 358 14.0007 357.638V319.416C13.9956 319.233 14.0176 319.05 14.0655 318.878C14.1134 318.707 14.1862 318.55 14.2795 318.418C14.3728 318.286 14.4847 318.181 14.6085 318.109C14.7323 318.037 14.8655 318 15 318C15.1345 318 15.2677 318.037 15.3915 318.109C15.5153 318.181 15.6272 318.286 15.7205 318.418C15.8138 318.55 15.8866 318.707 15.9345 318.878C15.9824 319.05 16.0044 319.233 15.9993 319.416V357.634C15.9989 357.995 15.8936 358.341 15.7064 358.597C15.5192 358.852 15.2655 358.995 15.0008 358.996V359Z" fill="white"/>
<path d="M25.5011 360C25.1032 360 24.7218 359.803 24.4404 359.451C24.1591 359.099 24.0011 358.623 24.0011 358.126V323.946C23.9934 323.694 24.0264 323.443 24.0983 323.207C24.1701 322.971 24.2793 322.756 24.4192 322.575C24.5592 322.393 24.727 322.248 24.9127 322.15C25.0984 322.051 25.2982 322 25.5 322C25.7018 322 25.9016 322.051 26.0873 322.15C26.273 322.248 26.4408 322.393 26.5808 322.575C26.7207 322.756 26.8299 322.971 26.9017 323.207C26.9736 323.443 27.0066 323.694 26.9989 323.946V358.126C26.9989 358.622 26.8412 359.099 26.5604 359.45C26.2795 359.801 25.8985 359.999 25.5011 360Z" fill="white"/>
<path d="M23.0283 370H15.9717C14.3364 369.83 12.8192 369.019 11.7153 367.725C10.6115 366.431 10 364.747 10 363C10 361.253 10.6115 359.569 11.7153 358.275C12.8192 356.981 14.3364 356.17 15.9717 356H23.0283C24.6636 356.17 26.1808 356.981 27.2847 358.275C28.3885 359.569 29 361.253 29 363C29 364.747 28.3885 366.431 27.2847 367.725C26.1808 369.019 24.6636 369.83 23.0283 370ZM15.9717 358.679C14.9838 358.814 14.076 359.327 13.4181 360.122C12.7601 360.917 12.3972 361.939 12.3972 362.998C12.3972 364.057 12.7601 365.079 13.4181 365.874C14.076 366.669 14.9838 367.182 15.9717 367.317H23.0283C24.0161 367.182 24.924 366.669 25.5819 365.874C26.2399 365.079 26.6028 364.057 26.6028 362.998C26.6028 361.939 26.2399 360.917 25.5819 360.122C24.924 359.327 24.0161 358.814 23.0283 358.679H15.9717Z" fill="white"/>
<path d="M422.5 355.998C422.367 355.998 422.24 355.84 422.146 355.558C422.053 355.277 422 354.896 422 354.498V322.501C422 322.104 422.053 321.722 422.146 321.441C422.24 321.16 422.367 321.002 422.5 321.002C422.567 320.992 422.633 321.024 422.695 321.094C422.757 321.166 422.814 321.276 422.861 321.417C422.908 321.558 422.945 321.728 422.968 321.915C422.992 322.102 423.003 322.302 422.999 322.501V354.498C423.003 354.698 422.993 354.898 422.969 355.084C422.945 355.272 422.908 355.442 422.861 355.583C422.814 355.724 422.757 355.834 422.695 355.906C422.633 355.978 422.567 356.009 422.5 355.998Z" fill="white"/>
<path d="M431.5 355.997C431.3 356.011 431.1 355.969 430.914 355.874C430.727 355.779 430.557 355.632 430.415 355.443C430.274 355.255 430.164 355.029 430.092 354.78C430.021 354.531 429.991 354.265 430.003 353.999V314.999C430.003 314.469 430.16 313.96 430.441 313.585C430.722 313.211 431.103 313 431.5 313C431.897 313 432.278 313.211 432.559 313.585C432.84 313.96 432.997 314.469 432.997 314.999V353.999C433.009 354.265 432.979 354.531 432.908 354.78C432.836 355.029 432.726 355.255 432.585 355.443C432.443 355.632 432.273 355.779 432.086 355.874C431.9 355.969 431.7 356.011 431.5 355.997Z" fill="white"/>
<path d="M430.113 369.96H423.156C422.251 370.075 421.336 369.942 420.473 369.57C419.609 369.197 418.814 368.593 418.14 367.796C417.466 366.999 416.928 366.027 416.559 364.943C416.19 363.859 416 362.686 416 361.5C416 360.314 416.19 359.141 416.559 358.057C416.928 356.973 417.466 356.001 418.14 355.204C418.814 354.407 419.609 353.803 420.473 353.43C421.336 353.058 422.251 352.925 423.156 353.04H430.113C431.725 353.246 433.221 354.226 434.309 355.789C435.397 357.353 436 359.389 436 361.5C436 363.611 435.397 365.647 434.309 367.211C433.221 368.774 431.725 369.754 430.113 369.96ZM423.156 356.279C422.587 356.183 422.01 356.248 421.461 356.466C420.913 356.685 420.406 357.054 419.976 357.548C419.545 358.041 419.2 358.649 418.964 359.33C418.728 360.011 418.606 360.75 418.606 361.498C418.606 362.245 418.728 362.984 418.964 363.665C419.2 364.346 419.545 364.954 419.976 365.448C420.406 365.942 420.913 366.31 421.461 366.529C422.01 366.748 422.587 366.812 423.156 366.717H430.113C431.087 366.554 431.982 365.934 432.63 364.974C433.279 364.013 433.637 362.777 433.637 361.498C433.637 360.218 433.279 358.982 432.63 358.022C431.982 357.061 431.087 356.441 430.113 356.279H423.156Z" fill="white"/>
<path d="M117.501 396.991C117.103 396.991 116.721 396.834 116.44 396.554C116.158 396.274 116 395.894 116 395.499V346.436C116.015 346.05 116.179 345.685 116.459 345.417C116.739 345.15 117.112 345 117.5 345C117.888 345 118.261 345.15 118.541 345.417C118.821 345.685 118.985 346.05 119 346.436V395.507C119 395.903 118.842 396.282 118.561 396.562C118.28 396.842 117.899 396.999 117.501 397V396.991Z" fill="white"/>
<path d="M127.999 396.991C127.734 396.991 127.48 396.831 127.293 396.549C127.106 396.266 127.001 395.883 127.001 395.483V348.565C126.996 348.363 127.018 348.16 127.066 347.971C127.113 347.781 127.186 347.608 127.28 347.462C127.373 347.316 127.485 347.2 127.609 347.12C127.732 347.041 127.865 347 128 347C128.135 347 128.268 347.041 128.392 347.12C128.515 347.2 128.627 347.316 128.721 347.462C128.814 347.608 128.887 347.781 128.934 347.971C128.982 348.16 129.004 348.363 128.999 348.565V395.492C128.999 395.892 128.894 396.276 128.706 396.558C128.519 396.841 128.265 397 127.999 397V396.991Z" fill="white"/>
<path d="M127.475 409H118.519C116.79 409 115.132 408.157 113.909 406.657C112.687 405.157 112 403.122 112 401C112 398.878 112.687 396.843 113.909 395.343C115.132 393.843 116.79 393 118.519 393H127.481C129.21 393 130.868 393.843 132.091 395.343C133.313 396.843 134 398.878 134 401C134 403.122 133.313 405.157 132.091 406.657C130.868 408.157 129.21 409 127.481 409H127.475ZM118.519 396.074C117.985 396.06 117.455 396.177 116.958 396.418C116.462 396.659 116.009 397.019 115.628 397.477C115.246 397.935 114.943 398.483 114.736 399.087C114.529 399.691 114.423 400.339 114.423 400.994C114.423 401.65 114.529 402.298 114.736 402.902C114.943 403.506 115.246 404.053 115.628 404.512C116.009 404.97 116.462 405.33 116.958 405.571C117.455 405.812 117.985 405.929 118.519 405.915H127.481C128.015 405.929 128.545 405.812 129.042 405.571C129.538 405.33 129.991 404.97 130.372 404.512C130.754 404.053 131.057 403.506 131.264 402.902C131.471 402.298 131.577 401.65 131.577 400.994C131.577 400.339 131.471 399.691 131.264 399.087C131.057 398.483 130.754 397.935 130.372 397.477C129.991 397.019 129.538 396.659 129.042 396.418C128.545 396.177 128.015 396.06 127.481 396.074H118.519Z" fill="white"/>
<path d="M241.999 399C241.734 398.999 241.48 398.849 241.293 398.581C241.106 398.313 241 397.95 241 397.571V351.376C241.01 351.007 241.12 350.657 241.306 350.4C241.492 350.143 241.741 350 242 350C242.259 350 242.507 350.143 242.694 350.4C242.88 350.657 242.99 351.007 243 351.376V397.571C243 397.95 242.894 398.314 242.706 398.582C242.519 398.85 242.264 399 241.999 399Z" fill="white"/>
<path d="M252.001 399.994C251.735 399.994 251.481 399.842 251.293 399.573C251.105 399.304 251 398.939 251 398.559V351.38C251.01 351.009 251.12 350.658 251.306 350.401C251.493 350.144 251.741 350 252 350C252.259 350 252.508 350.144 252.694 350.401C252.88 350.658 252.99 351.009 253 351.38V398.565C253 398.945 252.895 399.31 252.707 399.579C252.52 399.848 252.266 399.999 252.001 400V399.994Z" fill="white"/>
<path d="M251.48 412H242.52C240.791 412 239.132 411.21 237.91 409.803C236.687 408.397 236 406.489 236 404.5C236 402.511 236.687 400.603 237.91 399.197C239.132 397.79 240.791 397 242.52 397H251.48C253.209 397 254.868 397.79 256.09 399.197C257.313 400.603 258 402.511 258 404.5C258 406.489 257.313 408.397 256.09 409.803C254.868 411.21 253.209 412 251.48 412ZM242.52 399.888C241.456 399.888 240.436 400.374 239.683 401.239C238.931 402.105 238.509 403.278 238.509 404.502C238.509 405.726 238.931 406.899 239.683 407.765C240.436 408.63 241.456 409.116 242.52 409.116H251.48C252.544 409.116 253.564 408.63 254.317 407.765C255.069 406.899 255.491 405.726 255.491 404.502C255.491 403.278 255.069 402.105 254.317 401.239C253.564 400.374 252.544 399.888 251.48 399.888H242.52Z" fill="white"/>
<path d="M367.499 384C367.302 384 367.107 383.965 366.924 383.897C366.742 383.829 366.577 383.73 366.438 383.604C366.298 383.478 366.188 383.329 366.113 383.164C366.038 383 365.999 382.824 366 382.646V340.302C366.015 339.952 366.179 339.621 366.459 339.378C366.739 339.136 367.112 339 367.5 339C367.888 339 368.261 339.136 368.541 339.378C368.821 339.621 368.985 339.952 369 340.302V382.646C369 383.005 368.842 383.35 368.56 383.603C368.279 383.857 367.897 384 367.499 384Z" fill="white"/>
<path d="M378.501 384C378.104 384 377.722 383.827 377.441 383.519C377.16 383.211 377.002 382.793 377.001 382.357V337.709C376.993 337.487 377.026 337.267 377.098 337.06C377.17 336.853 377.279 336.664 377.419 336.505C377.559 336.345 377.727 336.218 377.913 336.131C378.098 336.045 378.298 336 378.5 336C378.702 336 378.902 336.045 379.087 336.131C379.273 336.218 379.441 336.345 379.581 336.505C379.721 336.664 379.83 336.853 379.902 337.06C379.974 337.267 380.007 337.487 379.999 337.709V382.357C379.999 382.573 379.961 382.786 379.885 382.986C379.732 383.388 379.441 383.707 379.074 383.875C378.893 383.958 378.698 384.001 378.501 384Z" fill="white"/>
<path d="M377.48 396H368.52C366.791 396 365.132 395.263 363.91 393.95C362.687 392.637 362 390.857 362 389C362 387.143 362.687 385.363 363.91 384.05C365.132 382.737 366.791 382 368.52 382H377.48C379.209 382 380.868 382.737 382.09 384.05C383.313 385.363 384 387.143 384 389C384 390.857 383.313 392.637 382.09 393.95C380.868 395.263 379.209 396 377.48 396ZM368.52 384.695C367.456 384.695 366.436 385.149 365.683 385.957C364.931 386.764 364.509 387.86 364.509 389.002C364.509 390.144 364.931 391.239 365.683 392.047C366.436 392.855 367.456 393.308 368.52 393.308H377.48C378.544 393.308 379.564 392.855 380.317 392.047C381.069 391.239 381.491 390.144 381.491 389.002C381.491 387.86 381.069 386.764 380.317 385.957C379.564 385.149 378.544 384.695 377.48 384.695H368.52Z" fill="white"/>
<path d="M422 292.387C421.774 292.381 421.554 292.309 421.362 292.179C421.169 292.048 421.011 291.863 420.904 291.643C420.83 291.484 420.786 291.31 420.775 291.131C420.763 290.952 420.783 290.772 420.834 290.602C420.884 290.43 420.964 290.272 421.07 290.136C421.177 289.999 421.306 289.888 421.452 289.809C422.853 288.996 430.039 285.071 433.024 286.636C433.174 286.709 433.309 286.815 433.422 286.947C433.535 287.079 433.622 287.235 433.679 287.405C433.735 287.576 433.76 287.757 433.752 287.939C433.745 288.119 433.705 288.296 433.634 288.458C433.564 288.621 433.464 288.766 433.342 288.885C433.22 289.002 433.079 289.092 432.926 289.148C432.773 289.205 432.611 289.227 432.45 289.214C432.289 289.2 432.132 289.152 431.989 289.071C430.711 288.395 426.08 290.154 422.548 292.184C422.387 292.31 422.196 292.379 422 292.383V292.387Z" fill="white"/>
<path d="M416.093 300.79C415.756 300.818 415.418 300.739 415.153 300.569C414.887 300.399 414.715 300.151 414.672 299.88C414.63 299.609 414.722 299.335 414.927 299.117C415.132 298.899 415.435 298.755 415.771 298.715C417.831 298.3 424.847 297.003 427.294 298.3C427.583 298.426 427.832 298.604 428.022 298.82C428.212 299.036 428.337 299.284 428.388 299.545C428.446 299.808 428.377 300.078 428.194 300.3C428.012 300.523 427.731 300.68 427.409 300.74C427.086 300.8 426.748 300.758 426.463 300.623C426.178 300.488 425.968 300.27 425.877 300.014C424.977 299.545 420.534 299.909 416.35 300.739L416.093 300.79Z" fill="white"/>
<path d="M418.225 285.506C418.024 285.502 417.828 285.453 417.649 285.361C417.47 285.269 417.313 285.138 417.189 284.976C417.041 284.761 416.959 284.504 416.954 284.241C416.948 283.977 417.02 283.717 417.159 283.495C417.252 283.349 417.372 283.222 417.512 283.123C426.376 276.829 426.7 276.963 427.347 277.161C427.624 277.2 427.881 277.335 428.073 277.544C428.265 277.753 428.382 278.022 428.404 278.308C428.426 278.594 428.352 278.879 428.195 279.116C428.037 279.353 427.805 279.528 427.536 279.611L427.277 279.745C426.306 280.209 422.424 282.851 418.994 285.308C418.756 285.434 418.493 285.502 418.225 285.506ZM425.858 278.949C425.858 279.015 425.858 279.015 425.923 279.015C425.987 279.015 425.858 279.015 425.858 278.949Z" fill="white"/>
<path d="M219.137 314.963C206.994 314.963 195.525 314.071 186.876 312.507C174.057 310.05 172.585 307.073 172.585 304.989C172.585 302.906 174.057 300.002 186.876 297.543C195.525 295.981 206.994 295.087 219.137 295.087C231.28 295.087 242.811 295.981 251.46 297.543C264.278 300.002 265.75 302.978 265.75 304.989C265.75 307.001 264.278 310.05 251.46 312.507C242.811 314.071 231.341 314.963 219.137 314.963ZM219.137 298.065C207.485 298.065 196.382 298.885 187.919 300.373C177.799 302.16 175.157 304.394 174.977 305.063C174.798 305.733 177.799 307.899 187.919 309.68C196.382 311.167 207.485 311.986 219.137 311.986C230.79 311.986 241.953 311.167 250.356 309.68C260.353 307.893 263.051 305.733 263.297 304.989C263.543 304.245 260.353 302.153 250.356 300.373C241.953 298.885 230.851 298.065 219.137 298.065Z" fill="white"/>
<path d="M175.896 304.261H175.714L172.102 303.974C105.28 299.587 58.9534 289.222 37.9662 274.049C37.7011 273.842 37.5152 273.524 37.4473 273.163C37.3793 272.801 37.4344 272.424 37.6012 272.108C37.6787 271.942 37.7849 271.796 37.9133 271.68C38.0417 271.564 38.1896 271.479 38.3476 271.432C38.5055 271.384 38.6702 271.376 38.8312 271.406C38.9922 271.436 39.1462 271.504 39.2838 271.604C53.6683 282.032 88.4176 295.629 172.239 301.089L176.099 301.376C176.423 301.446 176.713 301.656 176.91 301.963C177.107 302.269 177.195 302.651 177.159 303.03C177.114 303.373 176.963 303.686 176.734 303.911C176.505 304.135 176.213 304.257 175.912 304.252L175.896 304.261Z" fill="white"/>
<path d="M82.2103 311.905C56.7198 311.905 34.4215 310.636 28.0982 306.634C27.8257 306.461 27.625 306.18 27.5383 305.848C27.4517 305.517 27.4859 305.161 27.6337 304.857C27.8102 304.581 28.0717 304.384 28.3703 304.303C28.6688 304.221 28.9843 304.26 29.2588 304.412C45.1112 314.509 173.898 306 175.178 305.871C175.332 305.855 175.488 305.873 175.635 305.925C175.783 305.977 175.919 306.063 176.033 306.177C176.149 306.291 176.241 306.43 176.304 306.586C176.366 306.742 176.397 306.91 176.398 307.079C176.413 307.243 176.398 307.408 176.353 307.565C176.286 307.802 176.154 308.01 175.975 308.162C175.795 308.313 175.578 308.401 175.351 308.412C172.036 308.667 123.087 311.905 82.2103 311.905Z" fill="white"/>
<path d="M257.83 301.967C257.522 301.969 257.225 301.839 256.996 301.603C256.767 301.367 256.623 301.042 256.593 300.692C256.562 300.341 256.647 299.99 256.831 299.708C257.014 299.425 257.283 299.23 257.586 299.162C258.321 299.022 329.159 284.227 357.741 260.939C357.874 260.833 358.024 260.758 358.182 260.718C358.34 260.679 358.504 260.675 358.663 260.708C358.823 260.74 358.975 260.809 359.112 260.909C359.248 261.009 359.366 261.139 359.458 261.291C359.644 261.598 359.717 261.977 359.661 262.345C359.603 262.713 359.419 263.04 359.151 263.253C330.141 286.886 260.958 301.33 258.013 301.961L257.83 301.967Z" fill="white"/>
<path d="M354.726 317.257C313.487 317.257 265.041 307.204 264.391 307.062C264.248 307.036 264.111 306.973 263.987 306.876C263.863 306.779 263.754 306.651 263.669 306.498C263.582 306.345 263.52 306.171 263.486 305.986C263.447 305.759 263.451 305.524 263.498 305.299C263.544 305.075 263.633 304.87 263.754 304.701C263.876 304.532 264.027 304.406 264.195 304.333C264.362 304.259 264.541 304.242 264.715 304.281C265.638 304.425 353.317 322.603 392.714 309.922C392.987 309.835 393.275 309.89 393.517 310.077C393.76 310.263 393.938 310.565 394.015 310.92C394.081 311.298 394.033 311.695 393.881 312.027C393.73 312.36 393.486 312.602 393.202 312.703C382.851 315.982 369.249 317.257 354.726 317.257Z" fill="white"/>
<path d="M132.733 167.038C132.504 166.96 132.3 166.821 132.142 166.636C131.985 166.451 131.879 166.228 131.838 165.989C131.805 165.67 131.897 165.351 132.095 165.1C132.293 164.848 132.581 164.684 132.898 164.642C133.246 164.561 168.426 159.378 183.309 152.665C183.611 152.527 183.955 152.51 184.268 152.62C184.582 152.729 184.841 152.955 184.991 153.252C185.105 153.56 185.102 153.9 184.983 154.207C184.865 154.513 184.638 154.766 184.346 154.918C169.156 161.793 134.731 166.82 133.239 167.067L132.733 167.038Z" fill="#35E166"/>
<path d="M250.899 107.665C250.899 107.665 202.804 97.2121 181.92 133.37C161.035 169.528 163.184 219.59 203.479 236.997C243.774 254.405 297.95 235.644 306.984 180.665C316.019 125.687 255.693 108.402 250.899 107.665Z" fill="#35E166"/>
<path d="M229.095 214.243C214.967 214.243 200.293 209.753 192.056 198.439C184.562 188.166 181.736 176.36 183.955 164.307C186.535 149.793 196.178 135.772 209.754 126.794C231.62 112.342 255.208 124.211 255.453 124.334C277.443 135.711 283.954 153.546 277.26 184.048C274.189 198.192 261.167 208.955 242.554 212.884C238.125 213.777 233.619 214.23 229.102 214.235L229.095 214.243ZM234.009 122.059C225.859 121.973 217.874 124.352 211.097 128.884C198.075 137.495 188.801 150.9 186.344 164.737C184.317 176.115 186.958 187.245 194.085 197.024C204.345 211.107 225.595 213.936 242.057 210.492C258.519 207.048 272.032 196.471 274.858 183.556C281.247 154.344 275.105 137.239 254.337 126.487C247.945 123.6 241.018 122.091 234.005 122.059H234.009Z" fill="black"/>
<path d="M193.039 198.924C192.742 198.926 192.455 198.822 192.229 198.63C192.003 198.438 191.854 198.17 191.811 197.877C189.046 172.848 194.083 154.337 206.86 142.776C228.481 123.281 264.103 130.784 265.582 131.092C265.74 131.128 265.888 131.195 266.02 131.288C266.151 131.382 266.262 131.501 266.347 131.638C266.434 131.775 266.492 131.928 266.518 132.087C266.545 132.247 266.54 132.41 266.502 132.568C266.473 132.723 266.413 132.871 266.326 133.002C266.238 133.133 266.125 133.245 265.993 133.331C265.862 133.417 265.714 133.476 265.558 133.503C265.403 133.531 265.244 133.527 265.091 133.491C264.722 133.428 229.156 125.921 208.457 144.621C196.356 155.568 191.564 173.401 194.268 197.57C194.293 197.729 194.286 197.891 194.247 198.046C194.208 198.201 194.137 198.347 194.04 198.473C193.942 198.6 193.819 198.706 193.68 198.783C193.539 198.86 193.384 198.908 193.224 198.924H193.039Z" fill="black"/>
<path d="M224.549 233.242C217.828 233.238 211.137 232.349 204.648 230.598C189.782 226.539 179.833 218.975 178.174 216.454C178.072 216.329 177.999 216.184 177.959 216.028C177.92 215.872 177.914 215.71 177.943 215.552C177.973 215.394 178.036 215.244 178.129 215.113C178.222 214.982 178.342 214.872 178.481 214.792C178.614 214.699 178.764 214.633 178.923 214.597C179.081 214.562 179.245 214.559 179.405 214.587C179.565 214.615 179.718 214.675 179.855 214.763C179.991 214.851 180.109 214.966 180.201 215.1C181.308 216.76 190.337 224.14 205.263 228.257C218.224 231.762 238.554 233.422 261.966 221.246C296.978 203.044 298.637 170.081 297.777 156.797C297.232 150.01 295.701 143.34 293.232 136.996C293.114 136.695 293.119 136.36 293.247 136.063C293.374 135.767 293.613 135.532 293.912 135.411C294.211 135.289 294.546 135.291 294.844 135.415C295.142 135.539 295.379 135.775 295.503 136.073C298.071 142.655 299.664 149.576 300.234 156.619C301.156 170.393 299.374 204.586 263.071 223.405C248.813 230.843 235.667 233.242 224.549 233.242Z" fill="black"/>
<path d="M241.38 242.651C241.1 242.655 240.828 242.558 240.613 242.377C240.399 242.196 240.257 241.944 240.214 241.667L238.118 230.965C238.065 230.648 238.138 230.322 238.321 230.058C238.505 229.794 238.785 229.612 239.101 229.552C239.255 229.506 239.417 229.494 239.577 229.516C239.735 229.54 239.887 229.597 240.021 229.686C240.155 229.774 240.27 229.889 240.356 230.025C240.44 230.161 240.494 230.314 240.514 230.473L242.602 241.175C242.658 241.5 242.587 241.834 242.405 242.109C242.222 242.383 241.941 242.577 241.62 242.651H241.38Z" fill="black"/>
<path d="M257.903 239.576C257.616 239.582 257.335 239.486 257.111 239.306C256.885 239.125 256.73 238.87 256.675 238.585L254.094 226.224C254.058 226.07 254.054 225.91 254.082 225.755C254.111 225.599 254.172 225.452 254.262 225.321C254.346 225.188 254.458 225.074 254.589 224.987C254.72 224.899 254.868 224.838 255.023 224.807C255.181 224.771 255.344 224.766 255.503 224.793C255.662 224.82 255.815 224.878 255.952 224.964C256.089 225.049 256.208 225.16 256.301 225.292C256.394 225.424 256.461 225.572 256.497 225.73L259.077 238.091C259.113 238.245 259.118 238.404 259.091 238.56C259.06 238.716 258.999 238.864 258.911 238.996C258.824 239.127 258.712 239.24 258.582 239.328C258.451 239.415 258.304 239.476 258.15 239.506L257.903 239.576Z" fill="black"/>
<path d="M273.382 231.212C273.124 231.202 272.875 231.115 272.667 230.961C272.459 230.807 272.302 230.595 272.216 230.351L268.72 219.159C268.638 218.853 268.677 218.527 268.829 218.248C268.981 217.97 269.235 217.762 269.537 217.667C269.839 217.572 270.166 217.597 270.45 217.738C270.734 217.878 270.953 218.124 271.06 218.422L274.561 229.614C274.648 229.843 274.66 230.095 274.595 230.332C274.531 230.569 274.393 230.779 274.201 230.933C274.074 231.035 273.927 231.11 273.769 231.151L273.382 231.212Z" fill="black"/>
<path d="M284.685 222.295C284.44 222.296 284.201 222.227 283.994 222.097C283.788 221.966 283.622 221.779 283.518 221.558L279.34 211.656C279.235 211.353 279.246 211.022 279.371 210.727C279.496 210.431 279.727 210.193 280.017 210.058C280.319 209.936 280.656 209.939 280.955 210.065C281.254 210.192 281.491 210.432 281.614 210.734L285.79 220.574C285.918 220.877 285.926 221.217 285.812 221.525C285.698 221.834 285.47 222.087 285.176 222.234L284.685 222.295Z" fill="black"/>
<path d="M204.525 148.13C204.298 148.125 204.076 148.059 203.882 147.941C203.688 147.822 203.529 147.654 203.42 147.454L198.813 138.537C198.703 138.318 198.66 138.071 198.69 137.828C198.72 137.585 198.822 137.356 198.983 137.171C199.112 137.016 199.278 136.896 199.465 136.819C199.651 136.743 199.854 136.713 200.055 136.733C200.256 136.752 200.449 136.82 200.617 136.93C200.786 137.041 200.926 137.191 201.024 137.367L205.63 146.285C205.741 146.503 205.784 146.75 205.754 146.993C205.724 147.237 205.622 147.466 205.461 147.651C205.354 147.774 205.224 147.874 205.078 147.946C204.916 148.062 204.724 148.126 204.525 148.13Z" fill="black"/>
<path d="M212.571 141.119C212.338 141.108 212.111 141.034 211.917 140.903C211.722 140.773 211.566 140.592 211.466 140.381L207.166 130.357C207.042 130.046 207.044 129.7 207.17 129.39C207.296 129.081 207.537 128.832 207.843 128.697C208.144 128.575 208.481 128.578 208.78 128.704C209.08 128.831 209.317 129.071 209.439 129.373L213.74 139.397C213.861 139.699 213.858 140.037 213.731 140.336C213.604 140.636 213.364 140.874 213.063 140.997L212.571 141.119Z" fill="black"/>
<path d="M225.41 241.667C225.113 241.671 224.826 241.567 224.6 241.375C224.374 241.183 224.226 240.915 224.182 240.622L223.014 232.935C222.986 232.772 222.99 232.604 223.028 232.443C223.066 232.281 223.135 232.129 223.232 231.994C223.33 231.86 223.453 231.747 223.595 231.661C223.736 231.575 223.894 231.518 224.058 231.494C224.222 231.47 224.389 231.479 224.549 231.521C224.71 231.562 224.86 231.635 224.992 231.736C225.123 231.837 225.234 231.963 225.316 232.107C225.398 232.251 225.451 232.41 225.471 232.575L226.637 240.261C226.675 240.586 226.588 240.912 226.394 241.175C226.201 241.438 225.914 241.617 225.593 241.676L225.41 241.667Z" fill="black"/>
<path d="M175.424 261.678C175.424 261.678 182.594 271.726 175.805 274.725C169.015 277.724 139.628 285.579 140.647 275.361C141.666 265.143 163.311 270.762 160.878 264.819C158.445 258.877 175.424 261.678 175.424 261.678Z" fill="#35E166"/>
<path d="M169.574 264.664C169.303 264.713 169.022 264.685 168.771 264.585C168.519 264.486 168.312 264.319 168.179 264.11C161.622 252.756 160.487 242.985 164.904 235.015C171.566 222.988 188.456 219.681 189.177 219.546C189.491 219.499 189.813 219.558 190.077 219.711C190.341 219.864 190.526 220.099 190.593 220.367C190.66 220.635 190.604 220.915 190.437 221.148C190.27 221.381 190.005 221.55 189.697 221.618C189.521 221.651 173.224 224.843 167.088 235.963C163.017 243.28 164.184 252.44 170.389 263.147C170.532 263.401 170.558 263.692 170.463 263.961C170.367 264.23 170.156 264.458 169.872 264.599L169.574 264.664Z" fill="#35E166"/>
<path d="M363.418 215.214C363.149 215.311 362.856 215.32 362.582 215.24C362.142 215.068 318.055 198.085 294.528 198.62C294.204 198.627 293.89 198.505 293.655 198.281C293.42 198.057 293.283 197.749 293.274 197.425C293.292 197.097 293.429 196.786 293.659 196.552C293.889 196.317 294.197 196.175 294.525 196.151C318.513 195.651 361.681 212.234 363.471 212.919C363.775 213.032 364.023 213.26 364.159 213.554C364.296 213.849 364.311 214.185 364.201 214.49C364.132 214.663 364.026 214.818 363.889 214.944C363.752 215.07 363.589 215.163 363.411 215.217L363.418 215.214Z" fill="#35E166"/>
<path d="M262.77 266.669C262.77 266.669 268.899 277.236 261.815 279.691C254.732 282.146 224.717 287.891 226.697 277.844C228.677 267.798 249.805 274.866 247.954 268.791C246.103 262.715 262.77 266.669 262.77 266.669Z" fill="#35E166"/>
<path d="M257.113 268.971C256.896 268.933 256.697 268.839 256.542 268.702C256.388 268.565 256.285 268.39 256.247 268.202C249.029 246.113 261.971 232.586 262.556 232.048C262.66 231.939 262.788 231.849 262.932 231.783C263.077 231.717 263.235 231.676 263.398 231.664C263.559 231.65 263.723 231.664 263.878 231.706C264.033 231.748 264.178 231.815 264.303 231.905C264.531 232.098 264.668 232.357 264.688 232.632C264.707 232.906 264.608 233.178 264.41 233.394C264.234 233.577 251.791 246.666 258.609 267.636C258.694 267.905 258.652 268.193 258.493 268.437C258.334 268.68 258.07 268.859 257.758 268.936C257.554 269.005 257.331 269.016 257.119 268.969L257.113 268.971Z" fill="#35E166"/>
<path d="M128.37 158.923C128.193 158.863 128.03 158.764 127.895 158.634C127.758 158.501 127.653 158.339 127.586 158.16C127.563 158.025 124.454 148.561 117.788 145.398C114.864 144.039 111.716 144.027 108.326 145.422C108.024 145.541 107.687 145.535 107.388 145.406C107.092 145.277 106.857 145.036 106.735 144.736C106.668 144.587 106.632 144.427 106.631 144.264C106.63 144.1 106.662 143.938 106.726 143.787C106.791 143.638 106.886 143.503 107.007 143.393C107.126 143.283 107.268 143.198 107.421 143.145C111.468 141.504 115.317 141.54 118.789 143.197C126.48 146.807 129.818 156.987 129.941 157.414C130.026 157.727 129.991 158.06 129.842 158.348C129.693 158.636 129.441 158.857 129.137 158.968C128.884 159.012 128.625 158.996 128.38 158.922L128.37 158.923Z" fill="#35E166"/>
<path d="M96.5002 148.26C96.2078 148.171 95.9592 147.976 95.8027 147.713C95.6463 147.45 95.5932 147.139 95.654 146.839C96.155 143.773 97.7446 142.593 99.0555 142.097C104.684 139.917 114.675 147.719 115.803 148.648C115.989 148.792 116.128 148.989 116.201 149.214C116.273 149.439 116.276 149.68 116.209 149.907C116.165 150.057 116.091 150.197 115.991 150.318C115.893 150.45 115.77 150.56 115.628 150.643C115.415 150.768 115.169 150.826 114.923 150.809C114.677 150.793 114.441 150.703 114.247 150.551C110.435 147.499 103.171 143.12 99.8979 144.357C99.5891 144.52 98.432 144.933 98.0915 147.274C98.0595 147.434 97.9964 147.585 97.9059 147.721C97.8149 147.855 97.6984 147.97 97.563 148.06C97.4275 148.149 97.2758 148.211 97.1165 148.242C96.9574 148.273 96.7935 148.272 96.6347 148.239C96.6171 148.296 96.5587 148.278 96.5002 148.26Z" fill="#35E166"/>
<path d="M92.6918 152.035C92.4823 151.966 92.2929 151.846 92.1404 151.687C91.9878 151.527 91.8767 151.333 91.8167 151.12C91.3808 148.796 92.2695 147.59 93.0526 146.931C97.0427 143.792 109.188 149.235 111.544 150.353C111.719 150.397 111.882 150.478 112.022 150.592C112.162 150.706 112.275 150.849 112.353 151.012C112.431 151.174 112.473 151.352 112.474 151.532C112.477 151.713 112.439 151.892 112.364 152.056C112.29 152.221 112.179 152.367 112.041 152.483C111.904 152.601 111.741 152.686 111.567 152.732C111.393 152.779 111.211 152.787 111.033 152.755C110.853 152.724 110.682 152.654 110.532 152.549C105.137 150.037 96.6086 147.261 94.5627 148.879C94.4095 148.96 93.9879 149.28 94.2694 150.657C94.296 150.817 94.2907 150.981 94.2538 151.139C94.2169 151.298 94.1491 151.447 94.0544 151.579C93.9596 151.711 93.8397 151.823 93.7016 151.909C93.5635 151.995 93.4099 152.052 93.2496 152.078L92.6918 152.035Z" fill="#35E166"/>
<path d="M111.108 189.883C110.19 189.56 109.364 189.02 108.7 188.308C108.036 187.597 107.555 186.735 107.297 185.796C107.084 184.982 107.114 184.123 107.385 183.325C107.655 182.528 108.153 181.828 108.817 181.311C112.203 178.689 113.345 173.764 113.364 173.706L113.491 173.294C113.548 173.08 113.561 172.856 113.53 172.636C113.498 172.416 113.423 172.205 113.31 172.015C112.637 170.453 109.619 167.328 97.7374 164.163C92.8702 162.841 91.8828 160.028 91.7926 159.487C91.0865 157.207 91.343 155.549 92.6062 154.588C96.2587 151.729 107.205 157.702 110.468 159.617C110.608 159.698 110.73 159.806 110.828 159.934C110.926 160.062 110.998 160.209 111.039 160.366C111.08 160.522 111.09 160.686 111.067 160.846C111.045 161.006 110.992 161.16 110.911 161.3C110.799 161.52 110.619 161.699 110.399 161.811C110.178 161.922 109.927 161.961 109.684 161.921C109.521 161.894 109.367 161.834 109.23 161.744C103.191 158.196 95.6703 155.282 94.1227 156.54C93.7803 156.811 93.7765 157.655 94.1296 158.795L94.0932 158.912C94.0932 158.912 94.6762 160.769 98.2975 161.763C108.396 164.448 114.175 167.592 115.61 171.257C116.022 172.268 116.018 173.401 115.598 174.408C115.364 175.366 113.965 180.276 110.219 183.235C109.927 183.45 109.708 183.749 109.59 184.091C109.471 184.434 109.46 184.805 109.558 185.154C109.716 185.742 110.027 186.277 110.459 186.706C110.891 187.134 111.429 187.44 112.018 187.593C112.449 187.642 112.885 187.56 113.269 187.357C113.653 187.155 113.967 186.841 114.171 186.457C117.564 181.329 119.22 179.722 123.178 179.401C123.625 179.411 124.808 179.328 124.878 177.032C124.898 176.481 125.107 175.953 125.47 175.538C125.833 175.123 126.328 174.845 126.871 174.752L130.922 173.305C131.074 173.251 131.235 173.227 131.396 173.235C131.558 173.244 131.716 173.284 131.863 173.352C132.009 173.422 132.139 173.519 132.247 173.639C132.465 173.881 132.578 174.2 132.562 174.526C132.553 174.687 132.514 174.845 132.446 174.991C132.305 175.285 132.054 175.512 131.748 175.622L127.333 177.211C127.194 179.936 125.758 181.679 123.386 181.845C121.015 182.011 119.348 183.045 116.202 187.794C115.033 189.49 113.359 190.323 111.584 190.031L111.108 189.883Z" fill="#35E166"/>
<path d="M398.041 201.048C397.826 201.132 397.591 201.151 397.366 201.101C397.141 201.05 396.936 200.935 396.776 200.768C391.734 195.542 376.436 205.275 370.941 209.51C370.819 209.612 370.677 209.689 370.525 209.735C370.372 209.781 370.211 209.795 370.053 209.777C369.894 209.757 369.741 209.706 369.603 209.626C369.465 209.547 369.345 209.441 369.25 209.313C369.145 209.187 369.065 209.041 369.017 208.884C368.97 208.727 368.954 208.562 368.971 208.399C368.988 208.236 369.037 208.078 369.115 207.934C369.194 207.79 369.301 207.663 369.429 207.561C371.647 205.889 391.079 191.349 398.528 199.065C398.699 199.236 398.814 199.456 398.855 199.694C398.896 199.933 398.861 200.178 398.757 200.397C398.688 200.542 398.589 200.671 398.467 200.776C398.362 200.916 398.212 201.013 398.042 201.052L398.041 201.048Z" fill="#35E166"/>
<path d="M405.837 203.899L405.667 203.958C405.348 204.003 405.025 203.922 404.765 203.731C404.505 203.541 404.331 203.256 404.278 202.939C404.252 202.57 404.13 202.215 403.922 201.909C403.714 201.603 403.429 201.358 403.096 201.199C400.112 199.882 392.144 203.725 387.838 206.503C387.708 206.597 387.56 206.662 387.403 206.696C387.247 206.73 387.085 206.731 386.928 206.699C386.771 206.669 386.622 206.606 386.49 206.514C386.358 206.422 386.247 206.304 386.163 206.167C385.987 205.892 385.922 205.56 385.98 205.238C386.039 204.917 386.216 204.629 386.478 204.434C387.773 203.665 398.935 196.646 404.144 198.953C404.835 199.295 405.43 199.805 405.874 200.437C406.317 201.069 406.596 201.801 406.684 202.568C406.734 202.855 406.676 203.15 406.52 203.396C406.365 203.642 406.123 203.821 405.842 203.897L405.837 203.899Z" fill="#35E166"/>
<path d="M406.272 210.836L405.8 210.998C405.473 210.956 405.173 210.795 404.956 210.546C404.739 210.297 404.621 209.978 404.623 209.648C404.766 208.364 404.274 208.077 404.101 207.94C401.522 206.292 392.094 209.853 386.14 212.938C385.996 213.016 385.837 213.064 385.674 213.079C385.511 213.094 385.346 213.076 385.19 213.026C385.034 212.977 384.889 212.897 384.764 212.791C384.64 212.685 384.537 212.555 384.464 212.408C384.387 212.267 384.341 212.112 384.328 211.952C384.315 211.792 384.334 211.632 384.386 211.48C384.437 211.328 384.519 211.189 384.627 211.07C384.734 210.951 384.865 210.855 385.012 210.789C387.576 209.389 400.77 202.777 405.4 205.869C406.026 206.306 406.516 206.91 406.815 207.613C407.114 208.315 407.208 209.088 407.088 209.842C407.064 210.072 406.973 210.289 406.827 210.467C406.679 210.644 406.482 210.774 406.262 210.84L406.272 210.836Z" fill="#35E166"/>
<path d="M394.311 226.127C391.57 227.115 388.691 227.665 385.779 227.757C385.601 227.792 385.417 227.786 385.24 227.74C385.065 227.694 384.901 227.61 384.762 227.493C384.623 227.376 384.512 227.229 384.437 227.063C384.321 226.814 384.292 226.534 384.354 226.267C384.415 225.999 384.564 225.76 384.777 225.588C384.919 225.473 385.084 225.392 385.261 225.349C385.438 225.307 385.622 225.304 385.8 225.341C390.618 225.377 399.621 222.091 401.922 218.765C402.123 218.553 402.262 218.291 402.324 218.006C402.386 217.721 402.369 217.424 402.275 217.148C402.195 216.954 402.071 216.781 401.911 216.644C401.751 216.507 401.562 216.409 401.358 216.358C399.018 215.406 393.498 217.302 390.54 218.708C390.393 218.776 390.233 218.815 390.071 218.821C389.909 218.828 389.747 218.802 389.595 218.745C389.443 218.689 389.303 218.603 389.185 218.491C389.066 218.381 388.97 218.248 388.902 218.1C388.827 217.959 388.781 217.803 388.768 217.643C388.754 217.484 388.773 217.323 388.824 217.171C388.876 217.019 388.958 216.879 389.065 216.761C389.173 216.642 389.304 216.547 389.45 216.481C390.34 216.046 398.194 212.438 402.249 214.036C402.771 214.23 403.247 214.53 403.648 214.917C404.049 215.304 404.366 215.769 404.58 216.284C404.812 216.943 404.873 217.649 404.757 218.337C404.641 219.026 404.352 219.673 403.917 220.218C402.264 222.617 398.321 224.75 394.311 226.127Z" fill="#35E166"/>
<path d="M379.371 244.653C378.833 244.866 378.25 244.944 377.674 244.881C377.098 244.818 376.546 244.616 376.065 244.292C374.483 243.275 373.684 240.948 374.146 238.514C374.369 237.462 374.016 236.998 372.7 235.628C370.89 233.828 369.434 231.704 368.407 229.366C365.907 223.788 361.648 223.303 361.454 223.301C361.128 223.263 360.83 223.098 360.624 222.842C360.418 222.586 360.321 222.259 360.353 221.932C360.386 221.605 360.546 221.304 360.798 221.094C361.05 220.884 361.375 220.782 361.702 220.809C361.912 220.867 367.556 221.4 370.651 228.335C371.586 230.411 372.895 232.298 374.511 233.902C375.865 235.388 377.004 236.622 376.578 238.979C376.152 241.335 376.781 241.836 377.387 242.278C377.994 242.719 378.806 242.246 379.384 241.851C383.284 239.212 379.791 231.503 379.752 231.387C379.629 231.087 379.624 230.753 379.736 230.449C379.849 230.146 380.071 229.895 380.359 229.748C380.503 229.68 380.66 229.644 380.819 229.64C380.978 229.634 381.136 229.661 381.284 229.72C381.432 229.779 381.566 229.868 381.678 229.981C381.791 230.093 381.879 230.228 381.937 230.376C382.135 230.763 386.436 240.074 380.801 243.901C380.352 244.2 379.873 244.452 379.371 244.653Z" fill="#35E166"/>
<path d="M224.956 147.787C227.993 145.615 231.938 145.171 235.381 146.615L250.003 152.745C253.602 154.254 256.102 157.593 256.538 161.471L258.186 176.128C258.621 180.006 256.925 183.817 253.75 186.087L240.855 195.31C237.818 197.482 233.873 197.926 230.43 196.482L215.808 190.352C212.209 188.843 209.709 185.504 209.273 181.626L207.625 166.968C207.189 163.091 208.886 159.28 212.06 157.01L224.956 147.787Z" stroke="black" stroke-width="2.47"/>
<path d="M236.98 197.736L234.781 178.178C234.297 173.867 236.177 169.629 239.7 167.096L255.408 155.798M257.56 168.549L251.158 172.802C247.411 175.291 245.371 179.667 245.874 184.137L246.674 191.259" stroke="black" stroke-width="2.47"/>
<path d="M222.942 193.567L220.737 173.954C220.235 169.487 222.272 165.114 226.014 162.624L244.72 150.176" stroke="black" stroke-width="2.47"/>
</svg>
