<svg width="443" height="404" viewBox="0 0 443 404" fill="none" xmlns="http://www.w3.org/2000/svg">
<path d="M36.4152 209.23L34.8379 208.261C33.4763 207.213 32.3419 205.918 31.4987 204.451C28.4107 198.882 29.4819 190.715 34.7751 184.118C40.0683 177.521 49.2086 173.891 55.8888 176.251C57.0334 176.616 58.1015 177.172 59.0433 177.895C59.5348 178.266 59.9977 178.67 60.4285 179.105C65.7845 184.49 65.3449 194.293 59.1689 202.039C52.9929 209.785 43.16 212.741 36.4152 209.23Z" fill="#35E166"/>
<path d="M42.6332 212.224C40.2608 212.235 37.9223 211.669 35.8251 210.576L34.1548 209.54C32.6509 208.383 31.4076 206.93 30.504 205.274L29.0187 202.469L32.051 203.566C38.1156 205.822 46.2839 202.651 51.3583 196.062C56.4326 189.473 57.3612 182.224 54.4522 176.859L52.9053 174L56.001 175.158C57.2222 175.595 58.3692 176.212 59.4033 176.987L60.9503 178.327C66.6449 184.241 66.1498 194.849 59.7751 203.078C55.1958 208.931 48.6361 212.224 42.6332 212.224ZM34.5882 206.614C34.9077 206.97 35.2598 207.297 35.6401 207.589L37.0021 208.443C43.2516 211.797 52.1635 208.801 57.7946 201.554C63.4258 194.308 64.046 185.034 59.1566 180.035C58.7727 179.639 58.3586 179.272 57.9179 178.938C59.4649 184.728 57.7946 191.801 53.3387 197.531C48.8827 203.26 41.0862 207.346 34.5882 206.614Z" fill="black"/>
<path d="M36.642 206.108C34.8949 206.107 33.1603 205.82 31.5097 205.261L31.0765 205.084L30.8953 204.661C27.4937 198.555 28.7931 189.852 34.1718 183.021C39.5506 176.191 49.0758 172.202 56.3121 174.8L56.7434 174.921L56.9246 175.344C60.3262 181.45 59.0269 190.153 53.6463 196.983C49.1338 202.785 42.6405 206.108 36.642 206.108ZM32.809 203.146C38.8692 205.02 46.7217 201.876 51.6691 195.529C56.3701 189.606 57.606 182.171 55.0091 176.912C48.8873 174.977 41.1563 178.061 36.0856 184.529C31.0149 190.996 30.2121 197.828 32.809 203.148V203.146Z" fill="black"/>
<path d="M60.5894 192.347C60.2429 192.326 59.9176 192.183 59.6777 191.948L56.0915 188.131C55.9776 188.025 55.8883 187.899 55.8292 187.76C55.7394 187.55 55.7222 187.319 55.7801 187.099C55.8381 186.88 55.9682 186.683 56.1522 186.536C56.3976 186.33 56.7184 186.222 57.0475 186.232C57.3766 186.243 57.6886 186.372 57.9185 186.593L61.51 190.41C61.6245 190.515 61.7144 190.642 61.7741 190.781C61.8632 190.991 61.8798 191.222 61.8215 191.442C61.7633 191.661 61.6332 191.858 61.4494 192.005C61.2234 192.217 60.9168 192.338 60.5965 192.339L60.5894 192.347Z" fill="black"/>
<path d="M56.7757 198.461C56.4449 198.457 56.1293 198.339 55.8978 198.134L53.0768 195.741C52.9554 195.643 52.8586 195.526 52.7923 195.394C52.7261 195.263 52.6919 195.121 52.6919 194.978C52.6919 194.835 52.7261 194.693 52.7923 194.561C52.8586 194.43 52.9554 194.312 53.0768 194.215C53.3032 194.009 53.6137 193.887 53.9419 193.877C54.2701 193.867 54.5898 193.969 54.8325 194.161L57.6518 196.61C57.773 196.707 57.87 196.825 57.9365 196.957C58.0031 197.088 58.0374 197.23 58.0374 197.373C58.0374 197.516 58.0031 197.658 57.9365 197.789C57.87 197.921 57.773 198.038 57.6518 198.136C57.5418 198.242 57.4065 198.327 57.2552 198.383C57.1039 198.44 56.9403 198.467 56.7757 198.463V198.461Z" fill="black"/>
<path d="M49.0551 206.872C48.6832 206.873 48.3246 206.754 48.0521 206.539L44.6435 203.466C44.4062 203.246 44.2801 202.955 44.2926 202.657C44.3051 202.358 44.455 202.076 44.7101 201.871C44.8287 201.76 44.9736 201.672 45.1352 201.612C45.3778 201.522 45.6475 201.498 45.9067 201.544C46.1659 201.591 46.4015 201.705 46.5809 201.871L49.9894 204.945C50.1844 205.098 50.3187 205.299 50.3734 205.519C50.4282 205.74 50.4008 205.97 50.295 206.177C50.2244 206.314 50.1202 206.438 49.9894 206.539C49.7416 206.75 49.4059 206.87 49.0551 206.872Z" fill="black"/>
<path d="M37.3414 202.284C36.9117 202.296 36.4848 202.21 36.0907 202.031C35.6967 201.852 35.3452 201.585 35.0611 201.248C33.5997 199.419 34.4186 195.7 37.6926 189.606C40.9666 183.511 44.0641 180.158 47.2216 179.488C47.8151 179.335 48.4324 179.31 49.0355 179.415C49.6385 179.52 50.2147 179.752 50.7286 180.097C50.9689 180.302 51.1228 180.597 51.1573 180.918C51.1918 181.24 51.1041 181.563 50.913 181.818C50.722 182.073 50.4427 182.24 50.1351 182.283C49.8275 182.326 49.5159 182.242 49.2672 182.048C49.0122 181.896 48.7298 181.801 48.438 181.769C48.1458 181.737 47.8505 181.769 47.5711 181.864C46.2279 182.221 43.4216 183.815 39.7382 190.763C36.0547 197.712 36.8154 199.602 36.8737 199.662C37.1716 199.784 37.4989 199.806 37.8091 199.723C38.0329 199.654 38.2713 199.656 38.4941 199.729C38.7169 199.801 38.914 199.941 39.0607 200.13C39.2074 200.319 39.297 200.55 39.3182 200.792C39.3393 201.034 39.2911 201.278 39.1797 201.491C39.0401 201.774 38.8042 201.991 38.5184 202.1C38.1336 202.206 37.7389 202.268 37.3414 202.284Z" fill="black"/>
<path d="M130.815 82.8865C130.572 82.8794 130.336 82.8073 130.131 82.6776C129.926 82.548 129.759 82.3656 129.649 82.1494C129.523 81.8552 129.516 81.5233 129.631 81.2244C129.745 80.9255 129.972 80.6832 130.262 80.5491C130.57 80.3688 162.633 64.9905 174.858 54.1682C175.105 53.9462 175.428 53.8286 175.76 53.84C176.092 53.8514 176.407 53.991 176.638 54.2295C176.838 54.4905 176.936 54.8157 176.914 55.1439C176.891 55.4721 176.75 55.7808 176.516 56.0119C164.046 67.0811 132.658 82.0864 131.306 82.764L130.815 82.8865Z" fill="#35E166"/>
<path d="M250.899 1.40296C250.899 1.40296 202.804 -9.04989 181.92 27.108C161.035 63.2658 163.184 113.328 203.479 130.735C243.774 148.143 297.95 129.382 306.984 74.4035C316.019 19.4251 255.693 2.14007 250.899 1.40296Z" fill="#35E166"/>
<path d="M229.095 107.981C214.967 107.981 200.293 103.491 192.056 92.1769C184.562 81.9043 181.736 70.098 183.955 58.0448C186.535 43.5315 196.178 29.5103 209.754 20.5317C231.62 6.07968 255.208 17.9491 255.453 18.0716C277.443 29.449 283.954 47.2837 277.26 77.7862C274.189 91.93 261.167 102.693 242.554 106.622C238.125 107.515 233.619 107.968 229.102 107.973L229.095 107.981ZM234.009 15.7972C225.859 15.711 217.874 18.0897 211.097 22.6222C198.075 31.2332 188.801 44.6381 186.344 58.4755C184.317 69.8529 186.958 80.9834 194.085 90.7622C204.345 104.845 225.595 107.674 242.057 104.23C258.519 100.786 272.032 90.2089 274.858 77.2942C281.247 48.0821 275.105 30.9773 254.337 20.2253C247.945 17.3381 241.018 15.8295 234.005 15.7972H234.009Z" fill="black"/>
<path d="M193.039 92.6618C192.742 92.6641 192.455 92.5599 192.229 92.368C192.003 92.1759 191.854 91.9082 191.811 91.6147C189.046 66.5856 194.083 48.075 206.86 36.5138C228.481 17.0192 264.103 24.5218 265.582 24.83C265.739 24.8661 265.888 24.9329 266.02 25.0265C266.151 25.12 266.262 25.2389 266.347 25.3761C266.434 25.513 266.492 25.6657 266.518 25.8254C266.545 25.9851 266.539 26.1485 266.502 26.306C266.473 26.461 266.413 26.6086 266.326 26.7397C266.238 26.8709 266.125 26.983 265.993 27.0692C265.861 27.1554 265.714 27.214 265.558 27.2414C265.403 27.2689 265.244 27.2645 265.091 27.2288C264.722 27.1657 229.156 19.6595 208.456 38.3592C196.356 49.3059 191.564 67.1388 194.268 91.3083C194.293 91.4668 194.286 91.6287 194.246 91.7841C194.208 91.9394 194.137 92.0849 194.039 92.2113C193.942 92.3381 193.819 92.4436 193.679 92.5212C193.539 92.5984 193.384 92.6462 193.224 92.6618H193.039Z" fill="black"/>
<path d="M224.549 126.98C217.828 126.976 211.137 126.087 204.647 124.336C189.782 120.277 179.833 112.713 178.174 110.192C178.072 110.067 177.999 109.922 177.959 109.766C177.919 109.61 177.914 109.448 177.943 109.29C177.973 109.132 178.036 108.982 178.129 108.851C178.222 108.72 178.342 108.61 178.481 108.53C178.614 108.437 178.764 108.371 178.923 108.336C179.081 108.3 179.245 108.297 179.405 108.325C179.565 108.353 179.718 108.413 179.854 108.501C179.991 108.589 180.109 108.704 180.2 108.838C181.308 110.498 190.337 117.878 205.263 121.995C218.224 125.5 238.554 127.16 261.966 114.984C296.978 96.7816 298.637 63.8191 297.777 50.535C297.232 43.7484 295.701 37.0778 293.232 30.734C293.114 30.4333 293.119 30.0982 293.247 29.8015C293.374 29.5047 293.613 29.2702 293.912 29.1487C294.211 29.0273 294.546 29.0288 294.844 29.1528C295.142 29.2768 295.379 29.5134 295.503 29.8113C298.071 36.3927 299.664 43.3141 300.234 50.3566C301.156 64.1309 299.374 98.3243 263.071 117.143C248.813 124.581 235.667 126.98 224.549 126.98Z" fill="black"/>
<path d="M241.38 136.389C241.1 136.393 240.828 136.296 240.613 136.115C240.399 135.934 240.257 135.682 240.214 135.405L238.118 124.703C238.065 124.386 238.138 124.06 238.321 123.796C238.505 123.532 238.785 123.35 239.101 123.29C239.255 123.244 239.417 123.232 239.577 123.254C239.735 123.278 239.887 123.335 240.021 123.424C240.155 123.512 240.27 123.627 240.356 123.763C240.44 123.899 240.494 124.052 240.514 124.211L242.602 134.913C242.658 135.238 242.587 135.572 242.405 135.847C242.222 136.121 241.941 136.315 241.62 136.389H241.38Z" fill="black"/>
<path d="M257.903 133.314C257.616 133.32 257.335 133.224 257.111 133.044C256.885 132.863 256.73 132.608 256.675 132.323L254.094 119.962C254.058 119.808 254.054 119.649 254.082 119.493C254.111 119.337 254.172 119.19 254.262 119.059C254.346 118.926 254.458 118.812 254.589 118.725C254.72 118.637 254.868 118.576 255.023 118.545C255.18 118.509 255.344 118.504 255.503 118.531C255.662 118.558 255.815 118.616 255.952 118.702C256.089 118.787 256.207 118.898 256.301 119.03C256.394 119.162 256.461 119.31 256.497 119.468L259.077 131.829C259.113 131.983 259.118 132.142 259.091 132.298C259.06 132.454 258.999 132.602 258.911 132.734C258.824 132.865 258.712 132.978 258.582 133.066C258.451 133.153 258.304 133.214 258.15 133.244L257.903 133.314Z" fill="black"/>
<path d="M273.382 124.95C273.124 124.94 272.875 124.853 272.667 124.699C272.459 124.545 272.302 124.333 272.216 124.089L268.72 112.897C268.637 112.591 268.676 112.265 268.829 111.987C268.981 111.708 269.235 111.5 269.537 111.405C269.839 111.31 270.166 111.335 270.45 111.476C270.734 111.617 270.952 111.862 271.06 112.16L274.561 123.352C274.648 123.581 274.66 123.833 274.595 124.07C274.531 124.307 274.393 124.517 274.201 124.671C274.074 124.773 273.927 124.848 273.769 124.889L273.382 124.95Z" fill="black"/>
<path d="M284.685 116.033C284.44 116.034 284.201 115.965 283.994 115.835C283.788 115.704 283.622 115.517 283.518 115.296L279.34 105.394C279.235 105.091 279.246 104.76 279.371 104.465C279.496 104.169 279.727 103.931 280.017 103.796C280.319 103.674 280.656 103.677 280.955 103.803C281.254 103.93 281.491 104.17 281.614 104.472L285.79 114.312C285.918 114.615 285.926 114.955 285.812 115.263C285.698 115.572 285.47 115.825 285.176 115.972L284.685 116.033Z" fill="black"/>
<path d="M204.525 41.8681C204.298 41.8626 204.076 41.7972 203.882 41.6786C203.688 41.5599 203.529 41.3922 203.42 41.1923L198.813 32.2749C198.703 32.0562 198.66 31.8094 198.69 31.566C198.72 31.3227 198.822 31.0939 198.983 30.9088C199.112 30.7543 199.278 30.6337 199.465 30.5574C199.651 30.481 199.854 30.4512 200.055 30.4706C200.256 30.4899 200.449 30.5577 200.617 30.6683C200.786 30.7789 200.926 30.9288 201.024 31.1053L205.63 40.0226C205.741 40.2414 205.784 40.4882 205.754 40.7315C205.724 40.9749 205.622 41.2037 205.461 41.3887C205.354 41.5117 205.224 41.6122 205.078 41.6843C204.916 41.8004 204.724 41.8645 204.525 41.8681Z" fill="black"/>
<path d="M212.571 34.8575C212.338 34.8462 212.111 34.7716 211.917 34.6414C211.722 34.5112 211.566 34.3305 211.466 34.1186L207.166 24.0946C207.042 23.784 207.044 23.4376 207.17 23.1281C207.296 22.8186 207.537 22.5701 207.843 22.4348C208.144 22.313 208.481 22.3157 208.78 22.4424C209.08 22.569 209.317 22.8093 209.439 23.1106L213.74 33.1346C213.861 33.4367 213.858 33.7746 213.731 34.0745C213.604 34.3743 213.364 34.6117 213.063 34.7349L212.571 34.8575Z" fill="black"/>
<path d="M225.41 135.405C225.113 135.409 224.826 135.305 224.6 135.113C224.374 134.921 224.226 134.653 224.182 134.36L223.014 126.673C222.986 126.51 222.99 126.342 223.028 126.181C223.066 126.019 223.135 125.867 223.232 125.732C223.33 125.598 223.453 125.485 223.595 125.399C223.736 125.313 223.894 125.256 224.058 125.232C224.222 125.208 224.389 125.217 224.549 125.259C224.71 125.3 224.86 125.374 224.992 125.474C225.123 125.575 225.234 125.701 225.316 125.845C225.398 125.989 225.451 126.148 225.471 126.313L226.637 133.999C226.675 134.324 226.588 134.65 226.394 134.913C226.201 135.176 225.914 135.355 225.593 135.414L225.41 135.405Z" fill="black"/>
<path d="M362.334 112.235C362.049 112.218 361.777 112.111 361.555 111.929C361.219 111.597 327.405 78.6022 305.574 69.8139C305.274 69.6922 305.034 69.4564 304.906 69.1581C304.779 68.8598 304.774 68.523 304.894 68.2214C305.04 67.9266 305.288 67.6953 305.592 67.5706C305.896 67.446 306.235 67.4367 306.546 67.5443C328.786 76.5458 361.913 108.812 363.288 110.147C363.523 110.37 363.661 110.678 363.67 111.002C363.68 111.327 363.561 111.642 363.339 111.879C363.208 112.01 363.049 112.111 362.874 112.172C362.698 112.234 362.511 112.255 362.327 112.235L362.334 112.235Z" fill="#35E166"/>
<path d="M174.817 170.134C174.817 170.134 181.421 183.984 174.473 187.623C167.525 191.262 137.735 200.155 139.32 186.532C140.906 172.908 162.214 181.627 160.113 173.537C158.013 165.446 174.817 170.134 174.817 170.134Z" fill="#35E166"/>
<path d="M262.976 176.049C262.976 176.049 269.358 190.061 262.335 193.522C255.313 196.982 225.443 205.399 227.18 191.888C228.917 178.378 250.211 187.343 248.214 179.247C246.217 171.15 262.976 176.049 262.976 176.049Z" fill="#35E166"/>
<path d="M168.808 173.809C168.535 173.859 168.255 173.807 168.01 173.659C167.765 173.512 167.567 173.277 167.445 172.99C161.527 157.427 160.935 144.283 165.79 133.856C173.111 118.123 190.166 114.627 190.894 114.487C191.21 114.441 191.529 114.538 191.784 114.757C192.039 114.977 192.211 115.302 192.263 115.664C192.315 116.027 192.244 116.399 192.064 116.702C191.884 117.005 191.61 117.215 191.298 117.29C191.121 117.324 174.665 120.698 167.919 135.246C163.446 144.817 164.103 157.145 169.706 171.824C169.835 172.171 169.845 172.561 169.735 172.917C169.624 173.272 169.401 173.566 169.11 173.738L168.808 173.809Z" fill="#35E166"/>
<path d="M257.376 179.268C257.158 179.223 256.956 179.102 256.799 178.922C256.641 178.741 256.534 178.51 256.491 178.259C248.743 148.831 261.356 130.393 261.928 129.659C262.029 129.51 262.155 129.386 262.298 129.294C262.44 129.203 262.598 129.144 262.76 129.124C262.922 129.101 263.085 129.116 263.241 129.169C263.398 129.221 263.544 129.308 263.671 129.426C263.904 129.678 264.047 130.022 264.073 130.39C264.099 130.758 264.007 131.124 263.814 131.418C263.642 131.668 251.517 149.506 258.839 177.444C258.931 177.803 258.896 178.189 258.743 178.519C258.589 178.849 258.329 179.096 258.02 179.206C257.818 179.303 257.594 179.324 257.382 179.266L257.376 179.268Z" fill="#35E166"/>
<path d="M124.243 76.4293C124.055 76.4243 123.871 76.3781 123.703 76.2941C123.533 76.2072 123.384 76.0842 123.267 75.9337C123.206 75.8111 117.431 67.6939 110.127 66.6486C106.931 66.2179 103.922 67.1388 101.097 69.4763C100.844 69.6798 100.52 69.7744 100.197 69.7394C99.8753 69.7036 99.5801 69.5432 99.3746 69.2925C99.2663 69.1709 99.1847 69.0278 99.1352 68.8726C99.0853 68.7168 99.0681 68.5523 99.0848 68.3896C99.1021 68.2274 99.1537 68.0708 99.236 67.93C99.3175 67.789 99.4272 67.6663 99.5582 67.5696C102.937 64.8032 106.624 63.6966 110.431 64.2499C118.846 65.4177 125.051 74.1513 125.296 74.5225C125.47 74.796 125.535 75.125 125.478 75.4441C125.421 75.7633 125.246 76.0493 124.988 76.2454C124.76 76.3615 124.508 76.4232 124.252 76.4257L124.243 76.4293Z" fill="#35E166"/>
<path d="M90.6441 75.692C90.3385 75.6936 90.0432 75.5811 89.8159 75.3765C89.5886 75.1719 89.4455 74.8899 89.4146 74.5855C88.9844 71.5091 90.1527 69.9105 91.2579 69.049C95.9868 65.2986 107.842 69.788 109.194 70.3412C109.415 70.4235 109.606 70.5708 109.742 70.7638C109.878 70.9568 109.952 71.1864 109.955 71.4226C109.958 71.5794 109.928 71.7351 109.869 71.8803C109.815 72.0351 109.729 72.1773 109.619 72.2984C109.452 72.4807 109.235 72.6086 108.995 72.6658C108.755 72.723 108.503 72.7068 108.272 72.6192C103.727 70.835 95.4918 68.8058 92.7322 70.9576C92.4856 71.2045 91.5028 71.9416 91.8718 74.2791C91.8884 74.4409 91.8731 74.6044 91.8268 74.7603C91.7798 74.9157 91.7026 75.0603 91.5997 75.1858C91.4969 75.3114 91.3703 75.4154 91.2273 75.492C91.0846 75.5691 90.9279 75.6169 90.7665 75.6325C90.7665 75.692 90.7053 75.692 90.6441 75.692Z" fill="#35E166"/>
<path d="M88.1259 80.4266C87.9052 80.4225 87.6889 80.3644 87.4959 80.2573C87.3029 80.1501 87.1391 79.9972 87.0188 79.812C85.9136 77.7215 86.405 76.3067 86.9576 75.4453C89.8378 71.2641 103.05 72.8627 105.632 73.2321C105.812 73.2218 105.992 73.2513 106.159 73.3186C106.327 73.3859 106.477 73.4893 106.6 73.6214C106.723 73.7533 106.815 73.9109 106.87 74.0828C106.926 74.2545 106.943 74.4365 106.921 74.6157C106.898 74.7949 106.836 74.9668 106.739 75.119C106.642 75.2721 106.512 75.4014 106.359 75.4975C106.207 75.5938 106.035 75.6554 105.857 75.6777C105.675 75.7016 105.491 75.685 105.317 75.6291C99.4196 74.8289 90.4516 74.7063 88.9773 76.8582C88.8549 76.9807 88.5471 77.4115 89.224 78.6424C89.2969 78.7876 89.3404 78.9459 89.3521 79.108C89.3638 79.2702 89.3434 79.433 89.292 79.5872C89.2407 79.7415 89.1594 79.884 89.0529 80.0067C88.9464 80.1294 88.8167 80.2298 88.6713 80.3022L88.1259 80.4266Z" fill="#35E166"/>
<path d="M116.933 111.115C115.961 111.079 115.012 110.808 114.167 110.325C113.322 109.842 112.607 109.161 112.082 108.341C111.637 107.627 111.412 106.797 111.433 105.956C111.455 105.114 111.723 104.297 112.204 103.607C114.661 100.1 114.292 95.057 114.292 94.9957V94.565C114.283 94.3432 114.229 94.1255 114.134 93.9252C114.039 93.7247 113.905 93.5452 113.739 93.3971C112.634 92.105 108.825 90.0144 96.5395 90.5136C91.4993 90.6938 89.7226 88.3005 89.476 87.8103C88.1259 85.8423 87.8793 84.1824 88.8009 82.8902C91.4417 79.0767 103.666 81.5368 107.351 82.3982C107.508 82.4343 107.657 82.5011 107.788 82.5947C107.92 82.6882 108.032 82.8072 108.118 82.9446C108.204 83.0819 108.261 83.235 108.287 83.3948C108.314 83.554 108.309 83.7169 108.273 83.8742C108.231 84.1181 108.112 84.3423 107.935 84.5143C107.757 84.6863 107.529 84.7973 107.284 84.8312C107.122 84.8542 106.956 84.8426 106.798 84.797C99.9795 83.1984 91.9331 82.6451 90.8279 84.305C90.5812 84.6654 90.8279 85.4728 91.5029 86.4568V86.5794C91.5029 86.5794 92.6099 88.1797 96.3631 88.0554C106.804 87.6264 113.255 88.9168 115.712 91.9914C116.405 92.8344 116.737 93.9178 116.634 95.0047C116.695 95.9887 116.814 101.093 114.114 105.029C113.899 105.32 113.778 105.671 113.766 106.033C113.755 106.396 113.854 106.753 114.051 107.058C114.376 107.572 114.832 107.991 115.372 108.273C115.912 108.554 116.516 108.687 117.124 108.658C117.55 108.577 117.942 108.369 118.248 108.062C118.555 107.755 118.762 107.362 118.843 106.935C120.564 101.031 121.669 99.0056 125.354 97.526C125.784 97.4035 126.889 96.9727 126.275 94.7596C126.131 94.2272 126.174 93.6614 126.398 93.1572C126.622 92.653 127.012 92.2414 127.503 91.9914L130.943 89.4088C131.072 89.3121 131.219 89.2416 131.375 89.2016C131.532 89.162 131.695 89.1529 131.856 89.1746C132.015 89.198 132.169 89.2524 132.307 89.3349C132.587 89.5016 132.79 89.7724 132.871 90.0883C132.91 90.2449 132.92 90.4076 132.898 90.5677C132.85 90.8898 132.678 91.1804 132.419 91.3769L128.673 94.2027C129.348 96.8466 128.493 98.9371 126.277 99.7986C124.061 100.66 122.776 102.141 121.179 107.609C120.565 109.576 119.213 110.868 117.431 111.115H116.933Z" fill="#35E166"/>
<path d="M399.737 112.874C399.507 112.867 399.284 112.791 399.096 112.656C398.909 112.521 398.767 112.334 398.685 112.118C396.114 105.327 378.217 108.237 371.497 109.961C371.344 110.007 371.184 110.021 371.026 110.003C370.867 109.985 370.714 109.935 370.575 109.855C370.437 109.775 370.317 109.668 370.222 109.54C370.126 109.413 370.058 109.268 370.021 109.113C369.973 108.956 369.958 108.79 369.976 108.627C369.994 108.464 370.045 108.306 370.124 108.163C370.204 108.019 370.312 107.893 370.441 107.792C370.57 107.691 370.718 107.617 370.876 107.574C373.574 106.912 397.165 101.215 400.967 111.244C401.057 111.468 401.075 111.716 401.019 111.951C400.962 112.186 400.834 112.398 400.652 112.558C400.531 112.664 400.39 112.744 400.236 112.792C400.085 112.879 399.908 112.91 399.737 112.878L399.737 112.874Z" fill="#35E166"/>
<path d="M405.777 118.569L405.597 118.555C405.287 118.471 405.022 118.269 404.858 117.992C404.695 117.714 404.646 117.384 404.723 117.071C404.845 116.722 404.872 116.347 404.802 115.985C404.732 115.622 404.567 115.284 404.323 115.006C402.101 112.619 393.263 113.008 388.21 113.862C388.053 113.897 387.892 113.899 387.735 113.868C387.577 113.838 387.428 113.775 387.297 113.684C387.164 113.594 387.052 113.477 386.967 113.341C386.882 113.205 386.826 113.052 386.804 112.893C386.751 112.571 386.821 112.24 387.002 111.967C387.182 111.695 387.459 111.501 387.777 111.424C389.27 111.229 402.295 109.182 406.172 113.356C406.673 113.943 407.018 114.646 407.176 115.402C407.335 116.157 407.302 116.94 407.08 117.68C407.014 117.963 406.844 118.212 406.603 118.376C406.363 118.541 406.07 118.61 405.782 118.569L405.777 118.569Z" fill="#35E166"/>
<path d="M403.44 125.115L402.943 125.078C402.659 124.91 402.447 124.644 402.346 124.33C402.244 124.015 402.262 123.675 402.394 123.372C403.032 122.249 402.693 121.792 402.588 121.598C400.868 119.065 390.8 118.619 384.111 119.106C383.948 119.12 383.784 119.102 383.628 119.051C383.472 119 383.328 118.919 383.204 118.812C383.08 118.705 382.978 118.575 382.906 118.428C382.833 118.281 382.79 118.121 382.78 117.958C382.765 117.798 382.784 117.637 382.835 117.485C382.886 117.333 382.968 117.193 383.075 117.074C383.182 116.955 383.312 116.859 383.458 116.792C383.604 116.725 383.762 116.689 383.922 116.686C386.831 116.41 401.563 115.539 404.598 120.207C405.001 120.855 405.214 121.603 405.211 122.367C405.208 123.131 404.99 123.878 404.582 124.523C404.47 124.725 404.301 124.889 404.096 124.994C403.89 125.099 403.659 125.14 403.43 125.114L403.44 125.115Z" fill="#35E166"/>
<path d="M386.418 134.448C383.51 134.275 380.647 133.645 377.935 132.581C377.757 132.542 377.59 132.464 377.447 132.353C377.303 132.242 377.186 132.099 377.105 131.937C377.023 131.774 376.979 131.596 376.975 131.414C376.967 131.14 377.051 130.871 377.213 130.649C377.375 130.428 377.606 130.267 377.87 130.192C378.045 130.143 378.229 130.133 378.409 130.164C378.588 130.195 378.758 130.265 378.907 130.369C383.321 132.303 392.889 132.834 396.316 130.685C396.584 130.57 396.815 130.384 396.984 130.146C397.154 129.909 397.255 129.629 397.278 129.338C397.281 129.128 397.235 128.92 397.142 128.732C397.05 128.543 396.914 128.378 396.747 128.251C394.972 126.453 389.152 126.018 385.879 126.143C385.717 126.148 385.555 126.121 385.403 126.063C385.252 126.004 385.113 125.917 384.996 125.804C384.878 125.693 384.784 125.559 384.719 125.41C384.653 125.261 384.617 125.101 384.613 124.939C384.6 124.779 384.619 124.618 384.67 124.466C384.721 124.314 384.802 124.173 384.909 124.054C385.016 123.935 385.146 123.839 385.292 123.772C385.438 123.706 385.596 123.67 385.756 123.667C386.745 123.618 395.386 123.401 398.481 126.468C398.884 126.853 399.204 127.317 399.419 127.83C399.635 128.344 399.743 128.896 399.736 129.454C399.69 130.15 399.468 130.824 399.09 131.41C398.712 131.997 398.191 132.478 397.576 132.807C395.111 134.36 390.646 134.765 386.418 134.448Z" fill="#35E166"/>
<path d="M365.383 145.579C364.804 145.563 364.237 145.405 363.733 145.12C363.228 144.835 362.801 144.431 362.487 143.944C361.434 142.385 361.617 139.932 363.002 137.878C363.622 136.999 363.48 136.433 362.812 134.656C361.859 132.287 361.358 129.761 361.336 127.208C361.24 121.096 357.518 118.97 357.339 118.892C357.055 118.728 356.846 118.459 356.758 118.142C356.67 117.826 356.709 117.487 356.868 117.2C357.027 116.912 357.292 116.699 357.607 116.605C357.922 116.512 358.261 116.546 358.55 116.7C358.721 116.835 363.696 119.552 363.805 127.145C363.846 129.422 364.304 131.672 365.157 133.783C365.814 135.683 366.375 137.266 365.054 139.264C363.733 141.261 364.113 141.969 364.496 142.614C364.879 143.259 365.812 143.145 366.499 143.01C371.123 142.123 370.955 133.662 370.964 133.54C370.97 133.216 371.097 132.906 371.32 132.671C371.544 132.437 371.846 132.294 372.169 132.273C372.328 132.267 372.486 132.295 372.634 132.354C372.782 132.412 372.917 132.499 373.03 132.612C373.143 132.724 373.231 132.859 373.289 133.007C373.348 133.155 373.377 133.313 373.372 133.472C373.401 133.906 373.681 144.158 366.993 145.452C366.462 145.55 365.922 145.593 365.383 145.579Z" fill="#35E166"/>
<path d="M224.956 39.7866C227.993 37.6147 231.938 37.1712 235.381 38.6148L250.003 44.7453C253.602 46.2542 256.102 49.5926 256.538 53.4706L258.186 68.1284C258.621 72.0064 256.925 75.8166 253.75 78.0868L240.855 87.3103C237.818 89.4822 233.873 89.9257 230.43 88.4821L215.808 82.3516C212.209 80.8427 209.709 77.5043 209.273 73.6263L207.625 58.9685C207.189 55.0905 208.886 51.2803 212.06 49.0101L224.956 39.7866Z" stroke="black" stroke-width="2.47"/>
<path d="M236.98 89.7356L234.781 70.1784C234.297 65.8668 236.177 61.6294 239.7 59.096L255.408 47.7983M257.56 60.5491L251.158 64.8017C247.411 67.291 245.371 71.667 245.874 76.1374L246.674 83.2586" stroke="black" stroke-width="2.47"/>
<path d="M222.942 85.5669L220.737 65.9543C220.235 61.4872 222.272 57.1141 226.014 54.6237L244.72 42.1757" stroke="black" stroke-width="2.47"/>
<path d="M77.7953 113.142H77.7111C71.4035 112.409 66.5546 109.78 63.3757 105.252C56.1665 95.118 59.6032 79.2925 59.729 78.6455C59.7539 78.535 59.8005 78.4306 59.866 78.3384C59.9312 78.2459 60.014 78.1674 60.1096 78.1073C60.2053 78.0472 60.3118 78.0068 60.4231 77.9884C60.5342 77.9696 60.6478 77.973 60.7576 77.9985C60.8707 78.0177 60.9785 78.0608 61.0739 78.125C61.1692 78.1891 61.25 78.2729 61.3108 78.3706C61.3717 78.4684 61.4112 78.5781 61.4268 78.6923C61.4424 78.8065 61.4338 78.9228 61.4014 79.0335C61.3587 79.1598 58.0062 94.773 64.7488 104.26C67.6662 108.357 72.0863 110.772 77.8796 111.417C77.9923 111.428 78.1017 111.462 78.2015 111.516C78.3018 111.569 78.3904 111.642 78.4618 111.731C78.5334 111.818 78.587 111.919 78.6196 112.028C78.6522 112.136 78.6631 112.25 78.6517 112.363C78.6301 112.576 78.5302 112.774 78.3714 112.917C78.2126 113.061 78.0063 113.14 77.7928 113.138L77.7953 113.142Z" fill="white"/>
<path d="M63.1178 129.193C60.4809 129.252 57.9036 128.376 55.8115 126.709C49.5537 121.655 49.6386 110.629 49.6386 110.194C49.6322 110.077 49.6499 109.961 49.6903 109.853C49.7297 109.743 49.7914 109.645 49.8712 109.563C49.9503 109.481 50.045 109.417 50.1493 109.375C50.2539 109.333 50.3659 109.315 50.4779 109.321C50.7008 109.321 50.9146 109.413 51.0722 109.577C51.2299 109.74 51.3184 109.962 51.3184 110.194C51.3184 110.321 51.2335 120.826 56.8563 125.358C59.544 127.537 63.1966 128.017 67.686 126.753C67.7909 126.721 67.9009 126.711 68.0096 126.724C68.1181 126.737 68.2228 126.774 68.3173 126.831C68.4116 126.888 68.4937 126.965 68.5585 127.057C68.6232 127.148 68.6693 127.253 68.6938 127.363C68.742 127.531 68.7401 127.711 68.6882 127.877C68.6364 128.044 68.5371 128.191 68.4034 128.298C68.315 128.37 68.2137 128.422 68.1056 128.453C66.48 128.918 64.8039 129.167 63.1178 129.193Z" fill="white"/>
<path d="M124.475 260.686C124.274 260.686 124.075 260.674 123.89 260.652C123.704 260.63 123.536 260.597 123.394 260.556C123.252 260.515 123.139 260.466 123.063 260.412C122.986 260.358 122.947 260.301 122.948 260.243V198.441C122.948 198.324 123.109 198.212 123.395 198.129C123.682 198.046 124.07 197.999 124.475 197.999C124.88 197.999 125.269 198.046 125.555 198.129C125.841 198.212 126.002 198.324 126.002 198.441V260.243C126.003 260.301 125.964 260.358 125.887 260.412C125.811 260.466 125.698 260.515 125.556 260.556C125.415 260.597 125.246 260.63 125.06 260.652C124.875 260.674 124.676 260.686 124.475 260.686Z" fill="white"/>
<path d="M113.403 212.524C113.099 212.524 112.808 212.499 112.593 212.454C112.378 212.409 112.258 212.348 112.258 212.284V188.31C112.252 188.277 112.277 188.245 112.332 188.215C112.387 188.185 112.47 188.157 112.577 188.134C112.684 188.111 112.812 188.092 112.954 188.08C113.096 188.067 113.248 188.061 113.402 188.061C113.556 188.061 113.709 188.067 113.851 188.08C113.992 188.092 114.121 188.111 114.227 188.134C114.334 188.157 114.418 188.185 114.473 188.215C114.527 188.245 114.553 188.277 114.547 188.31V212.284C114.547 212.348 114.426 212.409 114.212 212.454C113.997 212.498 113.707 212.524 113.403 212.524Z" fill="white"/>
<path d="M321.66 251.512C321.535 251.513 321.41 251.494 321.295 251.457C321.18 251.421 321.076 251.367 320.989 251.3C320.902 251.233 320.835 251.153 320.791 251.065C320.748 250.978 320.729 250.885 320.734 250.793L321.938 151.261C321.947 151.084 322.049 150.916 322.221 150.793C322.393 150.67 322.624 150.601 322.863 150.601C323.102 150.601 323.332 150.67 323.505 150.793C323.677 150.916 323.779 151.084 323.788 151.261L322.584 250.827C322.585 250.917 322.561 251.006 322.514 251.089C322.468 251.172 322.4 251.248 322.314 251.312C322.228 251.375 322.126 251.426 322.014 251.46C321.902 251.495 321.782 251.512 321.66 251.512Z" fill="white"/>
<path d="M308.132 231.636C307.829 231.636 307.538 231.585 307.324 231.495C307.109 231.405 306.989 231.283 306.988 231.156V193.911C306.982 193.846 307.008 193.782 307.063 193.721C307.117 193.661 307.201 193.606 307.308 193.559C307.415 193.513 307.543 193.476 307.685 193.45C307.826 193.425 307.979 193.412 308.133 193.412C308.287 193.412 308.44 193.425 308.582 193.45C308.723 193.476 308.851 193.513 308.958 193.559C309.065 193.606 309.149 193.661 309.203 193.721C309.258 193.782 309.284 193.846 309.278 193.911V231.153C309.277 231.281 309.156 231.403 308.942 231.492C308.727 231.582 308.436 231.633 308.132 231.633V231.636Z" fill="white"/>
<path d="M308.132 182.709C307.828 182.709 307.537 182.643 307.323 182.524C307.108 182.406 306.988 182.246 306.988 182.079V168.79C306.999 168.628 307.125 168.474 307.338 168.36C307.552 168.247 307.837 168.184 308.133 168.184C308.429 168.184 308.714 168.247 308.928 168.36C309.141 168.474 309.267 168.628 309.279 168.79V182.079C309.279 182.246 309.158 182.407 308.943 182.525C308.728 182.643 308.436 182.709 308.132 182.709Z" fill="white"/>
<path d="M392.557 154.423C392.454 154.428 392.35 154.413 392.253 154.378C392.156 154.342 392.067 154.288 391.991 154.219C391.916 154.149 391.857 154.064 391.816 153.971C391.775 153.878 391.754 153.778 391.754 153.676C391.749 153.573 391.764 153.47 391.8 153.372C391.835 153.275 391.89 153.185 391.961 153.108C392.031 153.031 392.117 152.969 392.213 152.925C392.308 152.881 392.412 152.856 392.517 152.85C401.992 152.457 414.599 135.083 414.72 134.886C414.842 134.714 415.029 134.597 415.24 134.56C415.451 134.523 415.668 134.57 415.844 134.69C416.02 134.809 416.139 134.993 416.177 135.199C416.215 135.406 416.167 135.618 416.045 135.79C415.482 136.537 402.835 153.992 392.597 154.423H392.557Z" fill="white"/>
<path d="M392.295 165.126C390.767 165.134 389.244 164.956 387.764 164.596C387.662 164.574 387.566 164.533 387.482 164.475C387.397 164.415 387.326 164.34 387.274 164.253C387.222 164.168 387.189 164.073 387.177 163.976C387.164 163.878 387.173 163.779 387.204 163.684C387.26 163.494 387.389 163.33 387.567 163.225C387.745 163.12 387.958 163.081 388.165 163.117C396.225 165.045 403.604 160.772 406.411 158.843C409.219 156.915 410.742 154.986 410.782 154.532C410.749 154.34 410.796 154.144 410.914 153.984C411.031 153.825 411.209 153.714 411.41 153.675C411.612 153.636 411.822 153.672 411.996 153.775C412.171 153.878 412.296 154.041 412.346 154.23C412.581 155.327 411.143 156.915 409.859 158.05C406.651 160.966 399.834 165.126 392.295 165.126Z" fill="white"/>
<path d="M401.609 192.142C401.609 191.761 401.549 191.383 401.43 191.021C401.439 190.933 401.418 190.845 401.369 190.773C401.369 190.649 401.306 190.523 401.306 190.408C401.257 190.265 401.216 190.12 401.183 189.972L401.061 189.662L400.693 188.667C400.576 188.521 400.492 188.351 400.448 188.169H400.391C400.267 188.043 400.083 188.107 400.022 188.293C399.961 188.479 400.083 187.928 400.144 187.671C397.139 182.505 390.077 179.27 382.232 180.141C374.387 181.013 367.204 186.426 366.039 192.773C366.165 193.064 366.331 193.336 366.53 193.581C366.467 193.519 366.406 193.457 366.406 193.399C366.406 193.341 365.915 193.275 365.915 193.523C365.865 193.705 365.844 193.894 365.854 194.083V194.209C365.8 194.432 365.78 194.663 365.793 194.892C365.793 195.257 365.854 195.638 365.854 196.074C365.927 196.64 366.03 197.201 366.161 197.755C368.002 204.599 376.099 209.142 385.238 208.15C394.377 207.158 401.372 200.932 401.678 193.838C401.688 193.278 401.668 192.717 401.617 192.159L401.609 192.142Z" fill="#35E166"/>
<path d="M376.529 206.756C376.187 206.761 375.854 206.666 375.592 206.491C375.33 206.316 375.156 206.072 375.103 205.804L373.451 200.571C373.38 200.264 373.457 199.948 373.665 199.684C373.874 199.419 374.199 199.226 374.577 199.142C374.77 199.107 374.969 199.102 375.163 199.128C375.358 199.154 375.544 199.211 375.711 199.294C376.045 199.463 376.282 199.729 376.371 200.035L377.946 205.268C378.003 205.417 378.021 205.573 377.997 205.727C377.974 205.881 377.912 206.03 377.813 206.164C377.715 206.299 377.583 206.415 377.425 206.507C377.266 206.597 377.087 206.662 376.897 206.697L376.529 206.756Z" fill="black"/>
<path d="M386.077 205.992C385.817 205.987 385.567 205.889 385.364 205.715C385.161 205.541 385.017 205.3 384.955 205.03L384.227 201.601C384.154 201.438 384.116 201.26 384.116 201.08C384.116 200.9 384.154 200.723 384.227 200.56C384.299 200.398 384.404 200.255 384.534 200.141C384.665 200.028 384.818 199.948 384.981 199.906C385.143 199.866 385.312 199.866 385.474 199.906C385.638 199.945 385.792 200.022 385.925 200.133C386.058 200.244 386.165 200.385 386.24 200.546C386.315 200.707 386.355 200.885 386.357 201.065L387.142 204.494C387.175 204.648 387.18 204.808 387.156 204.964C387.132 205.12 387.08 205.27 387.001 205.403C386.922 205.537 386.82 205.653 386.7 205.745C386.58 205.837 386.445 205.902 386.301 205.937L386.077 205.992Z" fill="black"/>
<path d="M397.399 203.698C397.168 203.707 396.941 203.644 396.744 203.516C396.547 203.389 396.391 203.202 396.293 202.98L394.144 197.882C394.017 197.57 394.011 197.217 394.125 196.9C394.24 196.582 394.467 196.325 394.758 196.184C394.906 196.107 395.068 196.063 395.233 196.055C395.398 196.047 395.562 196.075 395.717 196.136C395.872 196.196 396.013 196.289 396.133 196.41C396.253 196.53 396.349 196.675 396.416 196.837L398.504 201.869C398.576 202.027 398.617 202.199 398.625 202.375C398.632 202.55 398.606 202.725 398.549 202.89C398.493 203.054 398.405 203.205 398.292 203.332C398.178 203.46 398.042 203.562 397.89 203.633L397.399 203.698Z" fill="black"/>
<path d="M372.396 191.465C372.089 191.482 371.788 191.381 371.554 191.182C371.32 190.984 371.172 190.704 371.14 190.4C371.104 189.535 371.248 188.672 371.562 187.865C371.875 187.057 372.352 186.323 372.962 185.706C375.289 183.203 379.564 182.077 385.663 182.328C391.762 182.579 395.661 183.892 396.793 186.332C397.073 187.013 397.163 187.757 397.053 188.484C396.942 189.212 396.635 189.896 396.164 190.464C396.064 190.595 395.939 190.706 395.796 190.789C395.653 190.873 395.495 190.928 395.331 190.952C395.168 190.974 395.001 190.965 394.841 190.924C394.643 190.869 394.463 190.767 394.315 190.625C394.167 190.483 394.057 190.307 393.994 190.112C393.932 189.918 393.919 189.711 393.957 189.51C393.995 189.309 394.082 189.121 394.211 188.962C394.379 188.729 394.489 188.46 394.533 188.177C394.576 187.894 394.552 187.605 394.463 187.333C394.148 186.708 392.639 185.143 385.534 184.83C378.429 184.516 376.039 186.082 374.782 187.46C374.422 187.796 374.135 188.203 373.94 188.656C373.745 189.108 373.647 189.596 373.651 190.088C373.668 190.252 373.652 190.417 373.604 190.574C373.556 190.732 373.478 190.878 373.373 191.005C373.268 191.134 373.138 191.24 372.991 191.317C372.845 191.395 372.685 191.444 372.52 191.46L372.396 191.465Z" fill="black"/>
<path d="M380.56 201.403C377.684 201.448 374.841 200.796 372.289 199.505C369.736 198.215 367.552 196.327 365.936 194.01C365.788 193.726 365.75 193.4 365.829 193.091C365.909 192.783 366.1 192.512 366.368 192.329C366.664 192.176 367.009 192.141 367.332 192.231C367.654 192.32 367.928 192.528 368.097 192.81C368.277 193.162 373.588 201.759 386.54 198.156C399.492 194.553 398.449 189.026 398.449 188.966C398.419 188.67 398.502 188.374 398.683 188.134C398.865 187.895 399.13 187.729 399.43 187.669C399.729 187.61 400.04 187.66 400.304 187.811C400.567 187.961 400.764 188.202 400.856 188.485C400.917 188.837 402.336 196.23 387.22 200.439C385.06 201.079 382.815 201.403 380.557 201.4L380.56 201.403Z" fill="black"/>
<path d="M218.024 332.139C163.716 332.139 112.602 327.944 74.1892 320.354C46.6361 314.929 13.7457 305.421 13.7457 290.859C13.7457 276.296 46.6361 266.732 74.1892 261.301C112.602 253.706 163.718 249.576 218.024 249.576C272.33 249.576 323.383 253.712 361.796 261.301C389.408 266.726 422.299 276.296 422.299 290.859C422.299 305.421 389.408 314.924 361.796 320.354C323.383 327.935 272.33 332.139 218.024 332.139ZM218.024 252.044C163.84 252.044 112.971 256.18 74.6802 263.708C37.4937 271.05 16.2004 280.924 16.2004 290.859C16.2004 300.794 37.4937 310.604 74.6802 317.947C112.971 325.476 163.84 329.671 218.024 329.671C272.208 329.671 323.076 325.476 361.366 317.947C398.492 310.604 419.846 300.732 419.846 290.859C419.846 280.985 398.492 271.05 361.366 263.708C323.076 256.18 272.145 252.044 218.024 252.044Z" fill="white"/>
<path d="M221.81 339.784C163.012 339.784 107.717 334.697 66.0814 325.442C24.4456 316.187 0.763672 303.44 0.763672 289.712C0.763672 275.984 23.95 263.357 66.0814 253.98C108.213 244.602 163.012 239.638 221.81 239.638C280.608 239.638 335.903 244.725 377.539 253.98C419.174 263.235 442.917 276.043 442.917 289.712C442.917 303.38 419.666 316.127 377.54 325.442C335.414 334.757 280.607 339.784 221.81 339.784ZM221.81 242.09C163.195 242.09 108.088 247.176 66.6347 256.371C26.2877 265.319 3.22399 277.514 3.22399 289.712C3.22399 301.909 26.2949 314.105 66.6347 323.053C108.09 332.307 163.195 337.332 221.81 337.332C280.424 337.332 335.53 332.303 376.983 323.053C417.323 314.105 440.455 301.961 440.455 289.712C440.455 277.462 417.323 265.321 376.983 256.371C335.53 247.18 280.423 242.09 221.81 242.09Z" fill="white"/>
<path d="M212.043 352.78C165.061 352.78 121.932 348.988 83.603 341.407C41.1586 333.03 19.9068 323.063 14.4399 320.189C-5.52308 309.855 0.987839 289.615 1.11025 289.432C1.15109 289.275 1.22536 289.128 1.32805 289.002C1.42929 288.875 1.55626 288.771 1.70068 288.696C1.84537 288.621 2.00417 288.577 2.16692 288.567C2.32967 288.556 2.49276 288.58 2.64573 288.636C2.95015 288.76 3.19908 288.99 3.34612 289.282C3.49315 289.575 3.52826 289.911 3.44496 290.228C3.13714 290.961 -2.51335 308.685 15.5452 318.049C41.2864 331.377 116.53 353.146 235.568 350.028C345.887 347.161 414.744 333.03 434.584 309.244C439.376 303.434 441.281 296.953 440.174 289.982C440.121 289.666 440.194 289.342 440.377 289.08C440.561 288.817 440.841 288.636 441.157 288.576C441.481 288.539 441.806 288.626 442.069 288.818C442.331 289.011 442.51 289.296 442.57 289.615C443.799 297.259 441.772 304.413 436.428 310.772C425.987 323.307 402.705 333.273 367.202 340.305C333.664 346.971 289.438 351.067 235.63 352.474C227.704 352.657 219.783 352.78 212.043 352.78Z" fill="white"/>
<path d="M14.8921 355.074C14.5886 355.074 14.2974 354.943 14.0826 354.709C13.8679 354.476 13.747 354.16 13.7466 353.829V318.908C13.7407 318.74 13.7659 318.573 13.8208 318.417C13.8756 318.26 13.959 318.117 14.0659 317.996C14.1728 317.876 14.301 317.779 14.4428 317.714C14.5846 317.648 14.7371 317.614 14.8912 317.614C15.0453 317.614 15.1979 317.648 15.3397 317.714C15.4815 317.779 15.6097 317.876 15.7165 317.996C15.8234 318.117 15.9068 318.26 15.9616 318.417C16.0165 318.573 16.0417 318.74 16.0358 318.908V353.826C16.0354 354.156 15.9148 354.472 15.7004 354.705C15.486 354.938 15.1953 355.069 14.8921 355.07V355.074Z" fill="white"/>
<path d="M25.5011 356C25.1032 356 24.7218 355.823 24.4404 355.509C24.1591 355.194 24.0011 354.768 24.0011 354.323V323.741C23.9934 323.516 24.0264 323.291 24.0983 323.08C24.1701 322.869 24.2793 322.677 24.4192 322.514C24.5592 322.352 24.727 322.222 24.9127 322.134C25.0984 322.046 25.2982 322 25.5 322C25.7018 322 25.9016 322.046 26.0873 322.134C26.273 322.222 26.4408 322.352 26.5808 322.514C26.7207 322.677 26.8299 322.869 26.9017 323.08C26.9736 323.291 27.0066 323.516 26.9989 323.741V354.323C26.9989 354.767 26.8412 355.193 26.5604 355.508C26.2795 355.822 25.8985 355.999 25.5011 356Z" fill="white"/>
<path d="M23.0184 365.012H15.9278C14.2847 364.863 12.7602 364.155 11.6511 363.024C10.5419 361.894 9.92749 360.422 9.92749 358.896C9.92749 357.37 10.5419 355.898 11.6511 354.768C12.7602 353.637 14.2847 352.929 15.9278 352.78H23.0184C24.6615 352.929 26.186 353.637 27.2952 354.768C28.4044 355.898 29.0188 357.37 29.0188 358.896C29.0188 360.422 28.4044 361.894 27.2952 363.024C26.186 364.155 24.6615 364.863 23.0184 365.012ZM15.9278 355.121C14.9353 355.239 14.0231 355.687 13.362 356.381C12.7009 357.076 12.3362 357.969 12.3362 358.894C12.3362 359.819 12.7009 360.713 13.362 361.407C14.0231 362.102 14.9353 362.55 15.9278 362.667H23.0184C24.0109 362.55 24.9232 362.102 25.5843 361.407C26.2454 360.713 26.61 359.819 26.61 358.894C26.61 357.969 26.2454 357.076 25.5843 356.381C24.9232 355.687 24.0109 355.239 23.0184 355.121H15.9278Z" fill="white"/>
<path d="M422.299 348.191C422.096 348.191 421.902 348.06 421.759 347.827C421.616 347.593 421.535 347.277 421.535 346.947V320.39C421.535 320.059 421.616 319.743 421.759 319.509C421.902 319.276 422.096 319.145 422.299 319.145C422.4 319.137 422.502 319.163 422.597 319.221C422.692 319.281 422.778 319.372 422.85 319.489C422.922 319.607 422.978 319.748 423.014 319.903C423.051 320.058 423.067 320.224 423.061 320.39V346.947C423.067 347.112 423.051 347.278 423.014 347.433C422.979 347.589 422.923 347.73 422.85 347.847C422.778 347.964 422.692 348.055 422.597 348.115C422.502 348.175 422.401 348.201 422.299 348.191Z" fill="white"/>
<path d="M431.5 347.998C431.3 348.009 431.1 347.975 430.914 347.897C430.727 347.82 430.557 347.7 430.415 347.547C430.274 347.394 430.164 347.21 430.092 347.007C430.021 346.805 429.991 346.588 430.003 346.371V314.627C430.003 314.195 430.16 313.782 430.441 313.476C430.722 313.171 431.103 313 431.5 313C431.897 313 432.278 313.171 432.559 313.476C432.84 313.782 432.997 314.195 432.997 314.627V346.371C433.009 346.588 432.979 346.805 432.908 347.007C432.836 347.21 432.726 347.394 432.585 347.547C432.443 347.7 432.273 347.82 432.086 347.897C431.9 347.975 431.7 348.009 431.5 347.998Z" fill="white"/>
<path d="M430.2 359.628H423.294C422.395 359.721 421.487 359.614 420.63 359.312C419.772 359.01 418.983 358.521 418.314 357.876C417.645 357.232 417.111 356.445 416.745 355.567C416.379 354.69 416.19 353.74 416.19 352.78C416.19 351.82 416.379 350.871 416.745 349.993C417.111 349.115 417.645 348.329 418.314 347.684C418.983 347.039 419.772 346.55 420.63 346.248C421.487 345.947 422.395 345.839 423.294 345.933H430.2C431.801 346.099 433.286 346.892 434.366 348.158C435.446 349.424 436.045 351.071 436.045 352.78C436.045 354.489 435.446 356.137 434.366 357.403C433.286 358.668 431.801 359.462 430.2 359.628ZM423.294 348.554C422.729 348.477 422.156 348.529 421.611 348.706C421.067 348.883 420.564 349.181 420.137 349.581C419.709 349.981 419.367 350.472 419.132 351.024C418.898 351.575 418.777 352.173 418.777 352.778C418.777 353.383 418.898 353.981 419.132 354.533C419.367 355.084 419.709 355.576 420.137 355.976C420.564 356.375 421.067 356.674 421.611 356.851C422.156 357.028 422.729 357.08 423.294 357.003H430.2C431.167 356.871 432.055 356.37 432.699 355.592C433.343 354.814 433.698 353.814 433.698 352.778C433.698 351.742 433.343 350.742 432.699 349.965C432.055 349.187 431.167 348.685 430.2 348.554H423.294Z" fill="white"/>
<path d="M117.603 387.939C117.198 387.939 116.809 387.809 116.523 387.579C116.236 387.348 116.075 387.036 116.075 386.71V346.317C116.09 346 116.258 345.699 116.542 345.479C116.827 345.258 117.207 345.135 117.602 345.135C117.997 345.135 118.377 345.258 118.662 345.479C118.947 345.699 119.114 346 119.13 346.317V386.717C119.13 387.043 118.969 387.355 118.683 387.585C118.397 387.816 118.008 387.945 117.603 387.946V387.939Z" fill="white"/>
<path d="M127.911 387.939C127.607 387.938 127.316 387.807 127.102 387.573C126.887 387.34 126.767 387.024 126.767 386.694V347.957C126.761 347.789 126.786 347.622 126.841 347.466C126.896 347.309 126.979 347.167 127.086 347.046C127.193 346.925 127.321 346.829 127.463 346.764C127.605 346.698 127.757 346.664 127.912 346.664C128.066 346.664 128.218 346.698 128.36 346.764C128.502 346.829 128.63 346.925 128.737 347.046C128.844 347.167 128.927 347.309 128.982 347.466C129.037 347.622 129.062 347.789 129.056 347.957V386.701C129.056 387.031 128.935 387.348 128.721 387.581C128.506 387.815 128.214 387.946 127.911 387.946V387.939Z" fill="white"/>
<path d="M127.297 397.884H118.593C116.912 397.884 115.301 397.2 114.113 395.981C112.924 394.762 112.257 393.109 112.257 391.386C112.257 389.663 112.924 388.01 114.113 386.791C115.301 385.573 116.912 384.888 118.593 384.888H127.303C128.983 384.888 130.595 385.573 131.783 386.791C132.971 388.01 133.639 389.663 133.639 391.386C133.639 393.109 132.971 394.762 131.783 395.981C130.595 397.2 128.983 397.884 127.303 397.884H127.297ZM118.593 387.385C118.074 387.373 117.558 387.468 117.076 387.664C116.593 387.86 116.154 388.152 115.783 388.525C115.412 388.897 115.117 389.341 114.916 389.832C114.715 390.322 114.611 390.849 114.611 391.381C114.611 391.914 114.715 392.44 114.916 392.931C115.117 393.422 115.412 393.866 115.783 394.238C116.154 394.611 116.593 394.903 117.076 395.099C117.558 395.295 118.074 395.39 118.593 395.378H127.303C127.822 395.39 128.337 395.295 128.82 395.099C129.303 394.903 129.742 394.611 130.113 394.238C130.484 393.866 130.778 393.422 130.98 392.931C131.181 392.44 131.284 391.914 131.284 391.381C131.284 390.849 131.181 390.322 130.98 389.832C130.778 389.341 130.484 388.897 130.113 388.525C129.742 388.152 129.303 387.86 128.82 387.664C128.337 387.468 127.822 387.373 127.303 387.385H118.593Z" fill="white"/>
<path d="M241.695 392.533C241.391 392.532 241.1 392.403 240.886 392.173C240.671 391.943 240.55 391.632 240.55 391.306V351.668C240.561 351.35 240.687 351.05 240.901 350.83C241.114 350.61 241.399 350.487 241.695 350.487C241.992 350.487 242.277 350.61 242.49 350.83C242.704 351.05 242.83 351.35 242.841 351.668V391.306C242.841 391.632 242.72 391.944 242.505 392.174C242.29 392.404 241.998 392.533 241.695 392.533Z" fill="white"/>
<path d="M252.005 393.292C251.803 393.292 251.608 393.162 251.465 392.932C251.322 392.702 251.241 392.389 251.241 392.063V351.668C251.249 351.351 251.332 351.05 251.475 350.83C251.617 350.61 251.807 350.487 252.005 350.487C252.202 350.487 252.392 350.61 252.535 350.83C252.677 351.05 252.761 351.351 252.768 351.668V392.068C252.768 392.394 252.688 392.706 252.545 392.937C252.402 393.167 252.208 393.297 252.005 393.297V393.292Z" fill="white"/>
<path d="M251.551 404H242.531C240.79 404 239.121 403.315 237.89 402.097C236.659 400.878 235.968 399.225 235.968 397.502C235.968 395.779 236.659 394.126 237.89 392.907C239.121 391.689 240.79 391.004 242.531 391.004H251.551C253.292 391.004 254.961 391.689 256.192 392.907C257.422 394.126 258.114 395.779 258.114 397.502C258.114 399.225 257.422 400.878 256.192 402.097C254.961 403.315 253.292 404 251.551 404ZM242.531 393.506C241.46 393.506 240.433 393.927 239.676 394.677C238.919 395.427 238.493 396.443 238.493 397.504C238.493 398.564 238.919 399.581 239.676 400.331C240.433 401.08 241.46 401.501 242.531 401.501H251.551C252.622 401.501 253.649 401.08 254.406 400.331C255.163 399.581 255.589 398.564 255.589 397.504C255.589 396.443 255.163 395.427 254.406 394.677C253.649 393.927 252.622 393.506 251.551 393.506H242.531Z" fill="white"/>
<path d="M367.315 379.537C367.114 379.537 366.915 379.506 366.73 379.444C366.544 379.383 366.376 379.293 366.234 379.18C366.092 379.067 365.98 378.932 365.904 378.784C365.827 378.636 365.788 378.478 365.789 378.318V340.192C365.804 339.877 365.971 339.579 366.256 339.36C366.541 339.142 366.921 339.02 367.316 339.02C367.711 339.02 368.091 339.142 368.376 339.36C368.661 339.579 368.828 339.877 368.843 340.192V378.318C368.843 378.641 368.682 378.951 368.396 379.18C368.109 379.408 367.72 379.537 367.315 379.537Z" fill="white"/>
<path d="M378.39 371.892C378.086 371.892 377.795 371.762 377.58 371.532C377.366 371.301 377.245 370.988 377.244 370.662V337.241C377.238 337.075 377.264 336.91 377.319 336.755C377.373 336.6 377.457 336.459 377.564 336.339C377.671 336.22 377.799 336.125 377.941 336.06C378.082 335.995 378.235 335.962 378.389 335.962C378.543 335.962 378.696 335.995 378.837 336.06C378.979 336.125 379.107 336.22 379.214 336.339C379.321 336.459 379.405 336.6 379.459 336.755C379.514 336.91 379.54 337.075 379.534 337.241V370.662C379.534 370.823 379.504 370.984 379.446 371.133C379.33 371.434 379.107 371.673 378.828 371.798C378.689 371.861 378.54 371.892 378.39 371.892Z" fill="white"/>
<path d="M377.553 391.768H368.533C366.793 391.768 365.123 391.084 363.893 389.865C362.662 388.647 361.97 386.994 361.97 385.27C361.97 383.547 362.662 381.894 363.893 380.676C365.123 379.457 366.793 378.772 368.533 378.772H377.553C379.294 378.772 380.963 379.457 382.194 380.676C383.425 381.894 384.116 383.547 384.116 385.27C384.116 386.994 383.425 388.647 382.194 389.865C380.963 391.084 379.294 391.768 377.553 391.768ZM368.533 381.275C367.463 381.275 366.436 381.696 365.678 382.445C364.921 383.195 364.496 384.212 364.496 385.272C364.496 386.332 364.921 387.349 365.678 388.099C366.436 388.849 367.463 389.27 368.533 389.27H377.553C378.624 389.27 379.651 388.849 380.408 388.099C381.166 387.349 381.591 386.332 381.591 385.272C381.591 384.212 381.166 383.195 380.408 382.445C379.651 381.696 378.624 381.275 377.553 381.275H368.533Z" fill="white"/>
<path d="M422 292.387C421.774 292.381 421.554 292.309 421.362 292.179C421.169 292.048 421.011 291.863 420.904 291.643C420.83 291.484 420.786 291.31 420.775 291.131C420.763 290.952 420.783 290.772 420.834 290.602C420.884 290.43 420.964 290.272 421.07 290.136C421.177 289.999 421.306 289.888 421.452 289.809C422.853 288.996 430.039 285.071 433.024 286.636C433.174 286.709 433.309 286.815 433.422 286.947C433.535 287.079 433.622 287.235 433.679 287.405C433.735 287.576 433.76 287.757 433.752 287.939C433.745 288.119 433.705 288.296 433.634 288.458C433.564 288.621 433.464 288.766 433.342 288.885C433.22 289.002 433.079 289.092 432.926 289.148C432.773 289.205 432.611 289.227 432.45 289.214C432.289 289.2 432.132 289.152 431.989 289.071C430.711 288.395 426.08 290.154 422.548 292.184C422.387 292.31 422.196 292.379 422 292.383V292.387Z" fill="white"/>
<path d="M416.093 300.79C415.756 300.818 415.418 300.739 415.153 300.569C414.887 300.399 414.715 300.151 414.672 299.88C414.63 299.609 414.722 299.335 414.927 299.117C415.132 298.899 415.435 298.755 415.771 298.715C417.831 298.3 424.847 297.003 427.294 298.3C427.583 298.426 427.832 298.604 428.022 298.82C428.212 299.036 428.337 299.284 428.388 299.545C428.446 299.808 428.377 300.078 428.194 300.3C428.012 300.523 427.731 300.68 427.409 300.74C427.086 300.8 426.748 300.758 426.463 300.623C426.178 300.488 425.968 300.27 425.877 300.014C424.977 299.545 420.534 299.909 416.35 300.739L416.093 300.79Z" fill="white"/>
<path d="M418.225 285.506C418.024 285.502 417.828 285.453 417.649 285.361C417.47 285.269 417.313 285.138 417.189 284.976C417.041 284.761 416.959 284.504 416.954 284.241C416.948 283.977 417.02 283.717 417.159 283.495C417.252 283.349 417.372 283.222 417.512 283.123C426.376 276.829 426.7 276.963 427.347 277.161C427.624 277.2 427.881 277.335 428.073 277.544C428.265 277.753 428.382 278.022 428.404 278.308C428.426 278.594 428.352 278.879 428.195 279.116C428.037 279.353 427.805 279.528 427.536 279.611L427.277 279.745C426.306 280.209 422.424 282.851 418.994 285.308C418.756 285.434 418.493 285.502 418.225 285.506ZM425.858 278.949C425.858 279.015 425.858 279.015 425.923 279.015C425.987 279.015 425.858 279.015 425.858 278.949Z" fill="white"/>
<path d="M219.137 307.676C206.994 307.676 195.525 306.921 186.876 305.598C174.057 303.519 172.585 300.999 172.585 299.236C172.585 297.474 174.057 295.017 186.876 292.936C195.525 291.615 206.994 290.858 219.137 290.858C231.28 290.858 242.811 291.615 251.46 292.936C264.278 295.017 265.75 297.534 265.75 299.236C265.75 300.938 264.278 303.519 251.46 305.598C242.811 306.921 231.341 307.676 219.137 307.676ZM219.137 293.377C207.485 293.377 196.382 294.071 187.919 295.33C177.799 296.842 175.157 298.732 174.977 299.299C174.798 299.866 177.799 301.699 187.919 303.205C196.382 304.464 207.485 305.156 219.137 305.156C230.79 305.156 241.953 304.464 250.356 303.205C260.353 301.693 263.051 299.866 263.297 299.236C263.543 298.607 260.353 296.837 250.356 295.33C241.953 294.071 230.851 293.377 219.137 293.377Z" fill="white"/>
<path d="M175.917 298.502H175.737L172.185 298.256C106.459 294.48 60.8913 285.562 40.2481 272.506C39.9874 272.328 39.8046 272.055 39.7378 271.744C39.6709 271.433 39.7251 271.108 39.8891 270.836C39.9654 270.693 40.0698 270.568 40.1962 270.468C40.3225 270.368 40.4679 270.295 40.6233 270.254C40.7786 270.213 40.9407 270.206 41.099 270.232C41.2573 270.258 41.4088 270.316 41.5442 270.403C55.6928 279.375 89.8726 291.075 172.32 295.773L176.116 296.02C176.436 296.081 176.721 296.261 176.914 296.525C177.108 296.789 177.195 297.117 177.159 297.444C177.115 297.739 176.966 298.008 176.741 298.201C176.516 298.395 176.229 298.499 175.933 298.495L175.917 298.502Z" fill="white"/>
<path d="M76.4138 305.383C49.3546 305.383 25.6842 304.24 18.9718 300.639C18.6824 300.483 18.4694 300.229 18.3774 299.931C18.2855 299.633 18.3218 299.313 18.4787 299.039C18.666 298.791 18.9436 298.614 19.2606 298.54C19.5775 298.467 19.9124 298.502 20.2037 298.639C37.0317 307.726 173.744 300.067 175.102 299.952C175.266 299.937 175.431 299.953 175.588 300C175.745 300.047 175.889 300.124 176.011 300.227C176.133 300.329 176.231 300.455 176.298 300.595C176.363 300.735 176.397 300.886 176.397 301.039C176.413 301.186 176.397 301.335 176.35 301.476C176.279 301.689 176.139 301.877 175.948 302.013C175.758 302.15 175.527 302.228 175.286 302.238C171.768 302.468 119.806 305.383 76.4138 305.383Z" fill="white"/>
<path d="M257.83 296.973C257.522 296.975 257.225 296.862 256.996 296.656C256.767 296.451 256.623 296.168 256.593 295.863C256.562 295.558 256.647 295.253 256.831 295.007C257.014 294.761 257.283 294.591 257.586 294.532C258.321 294.41 329.159 281.532 357.741 261.264C357.874 261.172 358.024 261.106 358.182 261.072C358.34 261.037 358.504 261.034 358.663 261.062C358.823 261.091 358.975 261.15 359.112 261.237C359.248 261.324 359.366 261.437 359.458 261.57C359.644 261.837 359.717 262.167 359.661 262.487C359.603 262.808 359.419 263.092 359.151 263.278C330.141 283.847 260.958 296.419 258.013 296.968L257.83 296.973Z" fill="white"/>
<path d="M367.001 309.97C320.215 309.97 265.254 301.099 264.517 300.974C264.355 300.951 264.198 300.896 264.058 300.81C263.917 300.725 263.794 300.611 263.697 300.476C263.599 300.342 263.528 300.188 263.49 300.025C263.445 299.825 263.45 299.617 263.503 299.419C263.556 299.221 263.656 299.04 263.794 298.891C263.932 298.742 264.103 298.631 264.294 298.566C264.484 298.501 264.687 298.486 264.884 298.521C265.931 298.648 365.403 314.687 410.099 303.498C410.409 303.421 410.735 303.47 411.01 303.634C411.286 303.798 411.488 304.065 411.575 304.379C411.65 304.712 411.595 305.062 411.423 305.355C411.251 305.648 410.975 305.862 410.652 305.951C398.909 308.845 383.478 309.97 367.001 309.97Z" fill="white"/>
</svg>
