<svg width="1440" height="1024" viewBox="0 0 1440 1024" fill="none" xmlns="http://www.w3.org/2000/svg">
<g opacity="0.2">
<path opacity="0.35" d="M240.001 204.924L120.001 409.535L0.00125122 204.924L240.001 204.924Z" fill="white" fill-opacity="0.25"/>
<path opacity="0.96" d="M240.001 1024L360 819.073L480 1024H240.001Z" fill="white" fill-opacity="0.25"/>
<path opacity="0.51" d="M1080 819.074L1200.01 614.463L1320 819.074H1080Z" fill="white" fill-opacity="0.25"/>
<path opacity="0.84" d="M240 204.926L360 6.10352e-05L480.001 204.926L240 204.926Z" fill="white" fill-opacity="0.25"/>
<path opacity="0.92" d="M600.001 9.15527e-05L480.001 204.926L360.001 0.000113832L600.001 9.15527e-05Z" fill="white" fill-opacity="0.25"/>
<path opacity="0.32" d="M240 614.462L360 409.537L480.001 614.462H240Z" fill="white" fill-opacity="0.25"/>
<path opacity="0.22" d="M1200.01 1024L1320 819.073L1440 1024H1200.01Z" fill="white" fill-opacity="0.25"/>
<path opacity="0.28" d="M0.00100708 614.463L120.001 409.537L240 614.462L0.00100708 614.463Z" fill="white" fill-opacity="0.25"/>
<path opacity="0.98" d="M1080 409.536L959.999 614.462L839.996 409.536L1080 409.536Z" fill="white" fill-opacity="0.25"/>
<path opacity="0.32" d="M720.001 614.463L600.001 819.074L480.001 614.463H720.001Z" fill="white" fill-opacity="0.25"/>
<path opacity="0.56" d="M600.001 409.537L480.001 614.462L360.001 409.537L600.001 409.537Z" fill="white" fill-opacity="0.25"/>
<path opacity="0.03" d="M480.001 204.926L600.001 6.10352e-05L720.001 204.926L480.001 204.926Z" fill="white" fill-opacity="0.25"/>
<path opacity="0.19" d="M120 819.074L239.999 614.463L360 819.074H120Z" fill="white" fill-opacity="0.25"/>
<path opacity="0.41" d="M1320 819.073L1200.01 1024L1080 819.073H1320Z" fill="white" fill-opacity="0.25"/>
<path opacity="0.76" d="M720.001 204.924L600.001 409.535L480.001 204.924L720.001 204.924Z" fill="white" fill-opacity="0.25"/>
<path opacity="0.03" d="M1440 614.463L1320 819.074L1200 614.463H1440Z" fill="white" fill-opacity="0.25"/>
<path opacity="0.17" d="M0.000976563 204.926L120.001 9.15527e-05L240 204.926L0.000976563 204.926Z" fill="white" fill-opacity="0.25"/>
<path opacity="0.71" d="M839.996 6.10352e-05L720.001 204.926L600.001 8.22017e-05L839.996 6.10352e-05Z" fill="white" fill-opacity="0.25"/>
<path opacity="0.09" d="M839.996 819.073L720 1024L600.001 819.073H839.996Z" fill="white" fill-opacity="0.25"/>
<path opacity="0.26" d="M959.999 614.462L1080 409.537L1200.01 614.462H959.999Z" fill="white" fill-opacity="0.25"/>
<path opacity="0.87" d="M959.999 614.463L840.007 819.074L720.002 614.463H959.999Z" fill="white" fill-opacity="0.25"/>
<path opacity="0.18" d="M360.001 409.535L480.001 204.924L600.001 409.535H360.001Z" fill="white" fill-opacity="0.25"/>
<path opacity="0.17" d="M240 614.463L120.001 819.074L0.0010376 614.463H240Z" fill="white" fill-opacity="0.25"/>
<path opacity="0.43" d="M720.002 204.926L840.007 9.15527e-05L959.999 204.926L720.002 204.926Z" fill="white" fill-opacity="0.25"/>
<path opacity="0.01" d="M959.999 1024L1080 819.073L1200.01 1024H959.999Z" fill="white" fill-opacity="0.25"/>
<path opacity="0.84" d="M6.10352e-05 1024L120.001 819.073L240.001 1024H6.10352e-05Z" fill="white" fill-opacity="0.25"/>
<path opacity="0.77" d="M839.996 409.537L720 614.462L600.001 409.537L839.996 409.537Z" fill="white" fill-opacity="0.25"/>
<path opacity="0.74" d="M1320 3.05176e-05L1200.01 204.926L1080 5.27964e-05L1320 3.05176e-05Z" fill="white" fill-opacity="0.25"/>
<path opacity="0.08" d="M600.001 819.073L480.001 1024L360 819.073H600.001Z" fill="white" fill-opacity="0.25"/>
<path opacity="0.61" d="M360 409.537L240.001 614.462L120.001 409.537L360 409.537Z" fill="white" fill-opacity="0.25"/>
<path opacity="0.15" d="M1440 204.924L1320 409.535L1200 204.924L1440 204.924Z" fill="white" fill-opacity="0.25"/>
<path opacity="0.34" d="M1200.01 614.463L1080 819.074L959.999 614.463H1200.01Z" fill="white" fill-opacity="0.25"/>
<path opacity="0.05" d="M360 6.10352e-05L240.001 204.926L120 8.3314e-05L360 6.10352e-05Z" fill="white" fill-opacity="0.25"/>
<path opacity="0.62" d="M480 614.462L599.999 409.536L720 614.462H480Z" fill="white" fill-opacity="0.25"/>
<path opacity="0.64" d="M840.007 819.074L959.999 614.463L1080 819.074H840.007Z" fill="white" fill-opacity="0.25"/>
<path opacity="0.87" d="M120 409.535L240.001 204.924L360 409.535H120Z" fill="white" fill-opacity="0.25"/>
<path opacity="0.23" d="M1320 409.537L1200.01 614.462L1080 409.537L1320 409.537Z" fill="white" fill-opacity="0.25"/>
<path opacity="0.55" d="M359.999 819.073L239.999 1024L120 819.073H359.999Z" fill="white" fill-opacity="0.25"/>
<path opacity="0.42" d="M720.002 1024L840.007 819.073L959.999 1024H720.002Z" fill="white" fill-opacity="0.25"/>
<path opacity="0.38" d="M959.999 204.926L1080 0L1200.01 204.926L959.999 204.926Z" fill="white" fill-opacity="0.25"/>
<path opacity="0.94" d="M480.001 1024L600.001 819.073L720.001 1024H480.001Z" fill="white" fill-opacity="0.25"/>
<path opacity="0.7" d="M1080 409.535L1200.01 204.924L1320 409.535H1080Z" fill="white" fill-opacity="0.25"/>
<path opacity="0.57" d="M1080 6.10352e-05L959.999 204.926L840.007 8.22017e-05L1080 6.10352e-05Z" fill="white" fill-opacity="0.25"/>
<path opacity="0.39" d="M600.001 409.535L720 204.924L839.996 409.535H600.001Z" fill="white" fill-opacity="0.25"/>
<path opacity="0.64" d="M480.001 204.924L360 409.535L240 204.924L480.001 204.924Z" fill="white" fill-opacity="0.25"/>
<path opacity="0.69" d="M1200 614.462L1320 409.536L1440 614.462H1200Z" fill="white" fill-opacity="0.25"/>
<path opacity="0.51" d="M1200.01 204.924L1080 409.535L959.999 204.924L1200.01 204.924Z" fill="white" fill-opacity="0.25"/>
<path opacity="0.35" d="M1080 819.073L959.999 1024L840.007 819.073H1080Z" fill="white" fill-opacity="0.25"/>
<path opacity="0.37" d="M1200.01 204.926L1320 0L1440 204.926L1200.01 204.926Z" fill="white" fill-opacity="0.25"/>
<path opacity="0.12" d="M360.002 819.074L480.001 614.463L600.001 819.074H360.002Z" fill="white" fill-opacity="0.25"/>
<path opacity="0.42" d="M839.996 409.535L959.999 204.924L1080 409.535H839.996Z" fill="white" fill-opacity="0.25"/>
<path opacity="0.77" d="M600.001 819.074L720 614.463L839.996 819.074H600.001Z" fill="white" fill-opacity="0.25"/>
<path opacity="0.74" d="M480.001 614.463L360 819.074L240.001 614.463H480.001Z" fill="white" fill-opacity="0.25"/>
<path opacity="0.71" d="M959.999 204.923L840.007 409.534L720.002 204.923L959.999 204.923Z" fill="white" fill-opacity="0.25"/>
<path opacity="0.02" d="M720 614.463L839.996 409.537L959.999 614.462L720 614.463Z" fill="white" fill-opacity="0.25"/>
<path opacity="0.88" d="M1440 409.536L1320 614.462L1200 409.536L1440 409.536Z" fill="white" fill-opacity="0.25"/>
<path opacity="0.88" d="M600.001 614.463L480.001 819.074L360.002 614.463H600.001Z" fill="white" fill-opacity="0.25"/>
<path opacity="0.76" d="M360 614.463L239.999 819.074L120 614.463H360Z" fill="white" fill-opacity="0.25"/>
<path opacity="0.45" d="M240.001 819.073L120.001 1024L6.10352e-05 819.073H240.001Z" fill="white" fill-opacity="0.25"/>
<path opacity="0.51" d="M1200 409.535L1320 204.924L1440 409.535H1200Z" fill="white" fill-opacity="0.25"/>
<path opacity="0.18" d="M1440 819.073L1320 1024L1200.01 819.073H1440Z" fill="white" fill-opacity="0.25"/>
<path opacity="0.64" d="M0.0010376 819.074L120.001 614.463L240 819.074H0.0010376Z" fill="white" fill-opacity="0.25"/>
<path opacity="0.84" d="M1440 0L1320 204.926L1200.01 2.22788e-05L1440 0Z" fill="white" fill-opacity="0.25"/>
<path opacity="0.17" d="M480.001 409.537L360 614.462L240 409.537L480.001 409.537Z" fill="white" fill-opacity="0.25"/>
<path opacity="0.15" d="M600.001 1024L720 819.073L839.996 1024H600.001Z" fill="white" fill-opacity="0.25"/>
<path opacity="0.83" d="M839.996 204.924L720 409.535L600.001 204.924L839.996 204.924Z" fill="white" fill-opacity="0.25"/>
<path opacity="0.11" d="M959.999 819.074L1080 614.463L1200.01 819.074H959.999Z" fill="white" fill-opacity="0.25"/>
<path opacity="0.35" d="M1080 1024L1200.01 819.073L1320 1024H1080Z" fill="white" fill-opacity="0.25"/>
<path opacity="0.69" d="M0.00125122 409.535L120.001 204.924L240.001 409.535H0.00125122Z" fill="white" fill-opacity="0.25"/>
<path opacity="0.9" d="M360.001 614.462L480.001 409.537L600.001 614.462H360.001Z" fill="white" fill-opacity="0.25"/>
<path opacity="0.41" d="M240.001 819.074L360 614.463L480.001 819.074H240.001Z" fill="white" fill-opacity="0.25"/>
<path opacity="0.55" d="M240 9.15527e-05L120.001 204.926L0.000976562 0.000112719L240 9.15527e-05Z" fill="white" fill-opacity="0.25"/>
<path opacity="0.73" d="M600.001 204.926L720.001 6.10352e-05L839.996 204.926L600.001 204.926Z" fill="white" fill-opacity="0.25"/>
<path opacity="0.61" d="M600.001 204.924L480.001 409.535L360.001 204.924L600.001 204.924Z" fill="white" fill-opacity="0.25"/>
<path opacity="0.82" d="M839.996 614.462L959.999 409.536L1080 614.462H839.996Z" fill="white" fill-opacity="0.25"/>
<path opacity="0.19" d="M360.001 204.926L480.001 9.15527e-05L600.001 204.926L360.001 204.926Z" fill="white" fill-opacity="0.25"/>
<path opacity="0.77" d="M720.001 819.073L600.001 1024L480.001 819.073H720.001Z" fill="white" fill-opacity="0.25"/>
<path opacity="0.79" d="M720.002 819.074L840.007 614.463L959.999 819.074H720.002Z" fill="white" fill-opacity="0.25"/>
<path opacity="0.72" d="M720 409.536L599.999 614.462L480 409.536L720 409.536Z" fill="white" fill-opacity="0.25"/>
<path opacity="0.79" d="M720.002 409.534L840.007 204.923L959.999 409.534H720.002Z" fill="white" fill-opacity="0.25"/>
<path opacity="0.87" d="M840.007 1024L959.999 819.073L1080 1024H840.007Z" fill="white" fill-opacity="0.25"/>
<path opacity="0.06" d="M1080 614.462L1200.01 409.537L1320 614.462H1080Z" fill="white" fill-opacity="0.25"/>
<path opacity="0.22" d="M480.001 819.074L600.001 614.463L720.001 819.074H480.001Z" fill="white" fill-opacity="0.25"/>
<path opacity="0.57" d="M1200.01 819.073L1080 1024L959.999 819.073H1200.01Z" fill="white" fill-opacity="0.25"/>
<path opacity="0.73" d="M120.001 614.462L240.001 409.537L360 614.462H120.001Z" fill="white" fill-opacity="0.25"/>
<path opacity="0.32" d="M1080 204.924L959.999 409.535L839.996 204.924L1080 204.924Z" fill="white" fill-opacity="0.25"/>
<path opacity="0.03" d="M839.996 614.463L720 819.074L600.001 614.463H839.996Z" fill="white" fill-opacity="0.25"/>
<path opacity="0.56" d="M480.001 6.10352e-05L360 204.926L240 8.3314e-05L480.001 6.10352e-05Z" fill="white" fill-opacity="0.25"/>
<path opacity="0.6" d="M120 204.926L240.001 6.10352e-05L360 204.926L120 204.926Z" fill="white" fill-opacity="0.25"/>
<path opacity="0.9" d="M1320 204.924L1200.01 409.535L1080 204.924L1320 204.924Z" fill="white" fill-opacity="0.25"/>
<path opacity="0.88" d="M360 1024L480.001 819.073L600.001 1024H360Z" fill="white" fill-opacity="0.25"/>
<path opacity="0.01" d="M720.001 6.10352e-05L600.001 204.926L480.001 8.3314e-05L720.001 6.10352e-05Z" fill="white" fill-opacity="0.25"/>
<path opacity="0.59" d="M1200.01 0L1080 204.926L959.999 2.22788e-05L1200.01 0Z" fill="white" fill-opacity="0.25"/>
<path opacity="0.37" d="M959.999 409.537L839.996 614.463L720 409.537L959.999 409.537Z" fill="white" fill-opacity="0.25"/>
<path opacity="0.21" d="M959.999 9.15527e-05L840.007 204.926L720.002 0.000112719L959.999 9.15527e-05Z" fill="white" fill-opacity="0.25"/>
<path opacity="0.71" d="M1200.01 409.537L1080 614.462L959.999 409.537L1200.01 409.537Z" fill="white" fill-opacity="0.25"/>
<path opacity="0.33" d="M240 409.535L360 204.924L480.001 409.535H240Z" fill="white" fill-opacity="0.25"/>
<path opacity="0.2" d="M840.007 204.926L959.999 6.10352e-05L1080 204.926L840.007 204.926Z" fill="white" fill-opacity="0.25"/>
<path opacity="0.97" d="M1080 204.926L1200.01 3.05176e-05L1320 204.926L1080 204.926Z" fill="white" fill-opacity="0.25"/>
<path opacity="0.25" d="M480.001 409.535L600.001 204.924L720.001 409.535H480.001Z" fill="white" fill-opacity="0.25"/>
<path opacity="0.24" d="M360 204.924L240.001 409.535L120 204.924L360 204.924Z" fill="white" fill-opacity="0.25"/>
<path opacity="0.95" d="M959.999 409.535L1080 204.924L1200.01 409.535H959.999Z" fill="white" fill-opacity="0.25"/>
<path opacity="0.19" d="M480 819.073L360 1024L240.001 819.073H480Z" fill="white" fill-opacity="0.25"/>
<path opacity="0.45" d="M600.001 614.462L720 409.537L839.996 614.462H600.001Z" fill="white" fill-opacity="0.25"/>
<path opacity="0.62" d="M1320 614.463L1200.01 819.074L1080 614.463H1320Z" fill="white" fill-opacity="0.25"/>
<path opacity="0.11" d="M1080 614.463L959.999 819.074L840.007 614.463H1080Z" fill="white" fill-opacity="0.25"/>
<path opacity="0.52" d="M1200 819.074L1320 614.463L1440 819.074H1200Z" fill="white" fill-opacity="0.25"/>
<path opacity="0.06" d="M240 409.537L120.001 614.462L0.00100708 409.537L240 409.537Z" fill="white" fill-opacity="0.25"/>
<path opacity="0.65" d="M959.999 819.073L840.007 1024L720.002 819.073H959.999Z" fill="white" fill-opacity="0.25"/>
</g>
</svg>
