<svg width="39" height="42" viewBox="0 0 39 42" fill="none" xmlns="http://www.w3.org/2000/svg">
<path d="M14.7936 41.7446C12.2157 41.7567 9.67465 41.1425 7.3958 39.9566L5.58085 38.8319C3.9467 37.5755 2.5958 35.9985 1.61394 34.2011L0 31.1565L3.2949 32.3472C9.8847 34.7964 18.7604 31.3543 24.2743 24.2026C29.7881 17.0508 30.7971 9.18151 27.6362 3.35809L25.9552 0.255371L29.3191 1.51197C30.646 1.98691 31.8924 2.65637 33.016 3.49771L34.697 4.95211C40.8848 11.3709 40.3468 22.8858 33.42 31.8178C28.4442 38.1706 21.3164 41.7446 14.7936 41.7446ZM6.05181 35.6555C6.39901 36.0421 6.78162 36.3966 7.19479 36.7143L8.67474 37.6412C15.4655 41.2811 25.1492 38.0291 31.2681 30.1637C37.3869 22.2983 38.0608 12.2319 32.748 6.806C32.3308 6.37597 31.8808 5.97792 31.402 5.61532C33.083 11.9003 31.268 19.5776 26.4262 25.7966C21.5843 32.0156 13.1126 36.4505 6.05181 35.6555V35.6555Z" fill="#35E166"/>
<path d="M8.28343 35.1064C6.3851 35.105 4.50029 34.7944 2.70664 34.1874L2.23602 33.9951L2.0391 33.5356C-1.65708 26.9079 -0.2452 17.4615 5.59939 10.0474C11.444 2.63337 21.7941 -1.69664 29.6571 1.12401L30.1258 1.25475L30.3227 1.71428C34.0189 8.34195 32.607 17.7884 26.7604 25.2024C21.8571 31.4994 14.8015 35.1064 8.28343 35.1064ZM4.11854 31.8916C10.7035 33.9259 19.2361 30.513 24.612 23.6239C29.7201 17.1942 31.0631 9.12452 28.2412 3.41592C21.5893 1.31629 13.1887 4.66378 7.67887 11.6837C2.16905 18.7036 1.29668 26.1196 4.11854 31.8936V31.8916Z" fill="#35E166"/>
<path d="M34.3049 20.1703C33.9284 20.1467 33.575 19.9921 33.3142 19.7371L29.4174 15.5934C29.2937 15.4792 29.1966 15.3421 29.1325 15.191C29.0348 14.9631 29.0162 14.7122 29.0791 14.4739C29.1421 14.2355 29.2835 14.0216 29.4834 13.8623C29.7501 13.6393 30.0987 13.5213 30.4563 13.5327C30.8139 13.5442 31.1529 13.6844 31.4027 13.924L35.3053 18.0676C35.4297 18.1818 35.5274 18.3188 35.5922 18.47C35.689 18.6982 35.707 18.949 35.6437 19.1873C35.5805 19.4255 35.4391 19.6393 35.2393 19.7987C34.9938 20.0293 34.6607 20.1596 34.3126 20.1612L34.3049 20.1703Z" fill="#35E166"/>
<path d="M30.1609 26.8064C29.8014 26.8019 29.4585 26.6743 29.2069 26.4514L26.1416 23.8534C26.0097 23.7479 25.9045 23.62 25.8325 23.4775C25.7606 23.335 25.7234 23.1811 25.7234 23.0255C25.7234 22.8699 25.7606 22.716 25.8325 22.5735C25.9045 22.431 26.0097 22.303 26.1416 22.1976C26.3876 21.9733 26.725 21.8416 27.0816 21.8306C27.4382 21.8196 27.7856 21.9302 28.0494 22.1387L31.1128 24.7973C31.2446 24.9028 31.3499 25.0308 31.4222 25.1731C31.4945 25.3156 31.5319 25.4695 31.5319 25.6252C31.5319 25.7809 31.4945 25.9348 31.4222 26.0772C31.3499 26.2196 31.2446 26.3476 31.1128 26.4531C30.9933 26.5687 30.8463 26.6603 30.6819 26.7216C30.5175 26.7829 30.3397 26.8124 30.1609 26.8082V26.8064Z" fill="#35E166"/>
<path d="M21.7716 35.9362C21.3675 35.9373 20.9779 35.8079 20.6817 35.574L16.978 32.2384C16.7201 31.9996 16.5831 31.6841 16.5967 31.3601C16.6102 31.0361 16.7732 30.7297 17.0503 30.5072C17.1792 30.3868 17.3367 30.2912 17.5123 30.2265C17.7758 30.1282 18.0689 30.1025 18.3506 30.1528C18.6322 30.2031 18.8883 30.327 19.0831 30.5072L22.7869 33.8446C22.9988 34.0103 23.1446 34.2281 23.2042 34.4677C23.2637 34.7072 23.2339 34.9566 23.119 35.181C23.0422 35.3305 22.929 35.4645 22.7869 35.574C22.5176 35.8036 22.1529 35.9338 21.7716 35.9362V35.9362Z" fill="#35E166"/>
<path d="M9.04342 30.9563C8.57654 30.9693 8.11264 30.8752 7.68448 30.6809C7.25632 30.4866 6.8744 30.1967 6.56566 29.8318C4.97771 27.8463 5.86753 23.8096 9.42505 17.1942C12.9826 10.5788 16.3484 6.93951 19.7793 6.21244C20.4242 6.04621 21.0949 6.01912 21.7503 6.13282C22.4056 6.24652 23.0317 6.49861 23.59 6.8736C23.8512 7.09584 24.0184 7.41575 24.0559 7.76483C24.0933 8.11392 23.9981 8.46439 23.7904 8.7412C23.5828 9.01802 23.2794 9.19917 22.9451 9.24583C22.6109 9.29248 22.2723 9.20096 22.0021 8.99085C21.725 8.82634 21.4182 8.72334 21.101 8.68838C20.7836 8.65348 20.4627 8.6885 20.1591 8.79114C18.6996 9.17892 15.6502 10.9084 11.6478 18.4506C7.64535 25.9928 8.47191 28.0441 8.5352 28.11C8.85897 28.2426 9.21458 28.2657 9.55163 28.1759C9.79487 28.1013 10.0539 28.1035 10.296 28.1821C10.538 28.2608 10.7523 28.4124 10.9117 28.6178C11.071 28.8232 11.1684 29.0732 11.1914 29.3362C11.2144 29.5992 11.162 29.8634 11.0409 30.0954C10.8893 30.4017 10.6329 30.6376 10.3224 30.7566C9.90423 30.8711 9.4754 30.938 9.04342 30.9563V30.9563Z" fill="#35E166"/>
</svg>
