<svg width="80" height="112" viewBox="0 0 80 112" fill="none" xmlns="http://www.w3.org/2000/svg">
<path fill-rule="evenodd" clip-rule="evenodd" d="M48.5505 27.5152L40.3205 22.8C37.6281 21.2575 34.3199 21.2575 31.6275 22.8L9.04012 35.7407C6.32065 37.2987 4.64312 40.1931 4.64312 43.3273V69.0437C4.64312 72.1779 6.32065 75.0723 9.04012 76.6303L18.1227 81.8339V50.8496C18.1227 47.643 19.8088 44.6728 22.5621 43.0292L48.5505 27.5152ZM52.1773 29.593L24.4294 46.1573C22.7775 47.1435 21.7658 48.9256 21.7658 50.8496V83.9211L31.6275 89.571C32.9737 90.3423 34.4738 90.7279 35.974 90.7279V57.2294C35.974 55.2502 37.0441 53.4258 38.7715 52.4598L65.2253 37.6667C64.5799 36.9067 63.7999 36.2518 62.9078 35.7407L52.1773 29.593ZM40.3205 89.571C40.0903 89.7029 39.8555 89.8235 39.6171 89.9329V57.2294C39.6171 56.5697 39.9738 55.9615 40.5496 55.6395L66.9538 40.8742C67.1837 41.6604 67.3048 42.4852 67.3048 43.3273V55.221L54.4668 62.295C52.7227 63.2561 51.6394 65.0898 51.6394 67.0812V83.0862L40.3205 89.571ZM70.948 43.3273V57.4488V69.0437C70.948 73.4838 68.5714 77.5842 64.7189 79.7914L42.1315 92.7321C38.3173 94.9173 33.6306 94.9173 29.8164 92.7321L7.22908 79.7914C3.3765 77.5842 1 73.4838 1 69.0437V43.3273C1 38.8872 3.3765 34.7868 7.22908 32.5796L29.8164 19.6389C33.6307 17.4537 38.3173 17.4537 42.1315 19.6389L64.7189 32.5796C68.5715 34.7868 70.948 38.8872 70.948 43.3273ZM56.225 65.4858L67.3048 59.4375V69.0437C67.3048 72.1779 65.6273 75.0723 62.9078 76.6303L55.2825 80.999V67.0812C55.2825 66.4174 55.6436 65.8061 56.225 65.4858Z" fill="#35E166"/>
</svg>
